<svg width="168" height="343" viewBox="0 0 168 343" fill="none" xmlns="http://www.w3.org/2000/svg">
<path fill-rule="evenodd" clip-rule="evenodd" d="M108.548 217.688H59.2395C57.7259 217.688 56.2271 217.987 54.8288 218.569C53.4304 219.151 52.1599 220.004 51.0899 221.08L23.3751 248.923C22.3051 249.997 21.4563 251.273 20.8772 252.678C20.2981 254.082 20 255.587 20 257.107C20 258.628 20.2981 260.133 20.8772 261.537C21.4563 262.942 22.3051 264.218 23.3751 265.292L51.0899 293.145C52.1603 294.22 53.431 295.072 54.8293 295.653C56.2277 296.234 57.7263 296.533 59.2395 296.532H108.548C110.062 296.532 111.56 296.233 112.959 295.651C114.357 295.069 115.628 294.216 116.698 293.14L144.412 265.292C145.482 264.218 146.331 262.942 146.91 261.537C147.489 260.133 147.788 258.628 147.788 257.107C147.788 255.587 147.489 254.082 146.91 252.678C146.331 251.273 145.482 249.997 144.412 248.923L116.698 221.08C115.628 220.004 114.357 219.151 112.959 218.569C111.56 217.987 110.062 217.688 108.548 217.688ZM83.8937 283.539C83.3956 283.539 82.905 283.464 82.437 283.321C81.6568 283.083 80.939 282.655 80.3518 282.065C79.4125 281.121 78.8847 279.841 78.8847 278.507V246.412C78.8847 244.906 78.2895 243.462 77.2299 242.398C76.1702 241.333 74.7331 240.735 73.2346 240.735C71.7361 240.735 70.299 241.333 69.2393 242.398C68.1797 243.462 67.5845 244.906 67.5845 246.412V278.507C67.5845 279.841 67.0567 281.121 66.1174 282.065C65.178 283.009 63.9039 283.539 62.5755 283.539C61.247 283.539 59.9729 283.009 59.0336 282.065C58.0942 281.121 57.5665 279.841 57.5665 278.507V246.412C57.5665 242.24 59.2162 238.238 62.1526 235.288C65.0891 232.338 69.0718 230.681 73.2246 230.681C77.1859 230.681 80.9924 232.189 83.8838 234.889C86.7751 232.189 90.5816 230.681 94.5429 230.681C98.6957 230.681 102.678 232.338 105.615 235.288C108.551 238.238 110.201 242.24 110.201 246.412V278.507C110.201 279.841 109.673 281.121 108.734 282.065C107.795 283.009 106.521 283.539 105.192 283.539C103.864 283.539 102.59 283.009 101.65 282.065C100.711 281.121 100.183 279.841 100.183 278.507V246.412C100.183 244.909 99.5888 243.468 98.5311 242.405C97.4734 241.342 96.0388 240.745 94.5429 240.745C93.0471 240.745 91.6125 241.342 90.5548 242.405C89.497 243.468 88.9028 244.909 88.9028 246.412V278.507C88.9028 279.841 88.3751 281.121 87.4357 282.065C86.4963 283.009 85.2223 283.539 83.8938 283.539H83.8937Z" fill="black"/>
<path d="M59.2395 20H108.548C110.062 19.9998 111.56 20.2992 112.959 20.8812C114.357 21.4632 115.628 22.3162 116.698 23.3917L144.412 51.2347C145.482 52.3094 146.331 53.5854 146.91 54.9898C147.489 56.3942 147.788 57.8994 147.788 59.4195C147.788 60.9396 147.489 62.4448 146.91 63.8492C146.331 65.2535 145.482 66.5295 144.412 67.6043L116.698 95.4523C115.628 96.5278 114.357 97.3808 112.959 97.9628C111.56 98.5448 110.062 98.8442 108.548 98.844H59.2395C57.7263 98.8449 56.2277 98.5462 54.8293 97.9651C53.431 97.384 52.1603 96.5319 51.0899 95.4574L23.3751 67.6043C22.3051 66.5295 21.4563 65.2535 20.8772 63.8492C20.2981 62.4448 20 60.9396 20 59.4195C20 57.8994 20.2981 56.3942 20.8772 54.9898C21.4563 53.5854 22.3051 52.3094 23.3751 51.2347L51.0899 23.3917C52.1599 22.3162 53.4304 21.4632 54.8288 20.8812C56.2271 20.2992 57.7259 19.9998 59.2395 20Z" fill="#ED1C24"/>
<path fill-rule="evenodd" clip-rule="evenodd" d="M80.7192 84.7113C81.6106 85.445 82.7313 85.8509 83.8937 85.8509C83.8938 85.8509 83.8938 85.8509 83.8938 85.8509C85.2223 85.8509 86.4963 85.3208 87.4357 84.3771C88.3751 83.4333 88.9028 82.1534 88.9028 80.8188V48.7236C88.9028 47.2208 89.497 45.7796 90.5548 44.717C91.6125 43.6544 93.0471 43.0574 94.5429 43.0574C96.0388 43.0574 97.4734 43.6544 98.5311 44.717C99.5888 45.7796 100.183 47.2208 100.183 48.7236V80.8188C100.183 82.1534 100.711 83.4333 101.65 84.3771C102.59 85.3208 103.864 85.8509 105.192 85.8509C106.521 85.8509 107.795 85.3208 108.734 84.3771C109.673 83.4333 110.201 82.1534 110.201 80.8188V48.7236C110.201 44.5516 108.551 40.5505 105.615 37.6004C102.678 34.6504 98.6957 32.9931 94.5429 32.9931C90.5816 32.9931 86.7751 34.5011 83.8838 37.2006C80.9924 34.5011 77.1859 32.9931 73.2246 32.9931C69.0718 32.9931 65.0891 34.6504 62.1526 37.6004C59.2162 40.5505 57.5665 44.5516 57.5665 48.7236V80.8188C57.5665 82.1534 58.0942 83.4333 59.0336 84.3771C59.9729 85.3208 61.247 85.8509 62.5755 85.8509C63.9039 85.8509 65.178 85.3208 66.1174 84.3771C67.0567 83.4333 67.5845 82.1534 67.5845 80.8188V48.7236C67.5845 47.2182 68.1797 45.7744 69.2393 44.7099C70.299 43.6454 71.7361 43.0473 73.2346 43.0473C74.7331 43.0473 76.1702 43.6454 77.2299 44.7099C78.2895 45.7744 78.8847 47.2182 78.8847 48.7236V80.8188C78.8847 82.1534 79.4125 83.4333 80.3518 84.3771C80.4693 84.495 80.5919 84.6065 80.7192 84.7113Z" fill="white"/>
<path fill-rule="evenodd" clip-rule="evenodd" d="M108.548 118.844H59.2395C57.7259 118.844 56.2271 119.143 54.8288 119.725C53.4304 120.307 52.1599 121.16 51.0899 122.236L23.3751 150.079C22.3051 151.153 21.4563 152.429 20.8772 153.834C20.2981 155.238 20 156.743 20 158.263C20 159.784 20.2981 161.289 20.8772 162.693C21.4563 164.098 22.3051 165.374 23.3751 166.448L51.0899 194.301C52.1603 195.376 53.431 196.228 54.8293 196.809C56.2277 197.39 57.7263 197.689 59.2395 197.688H108.548C110.062 197.688 111.56 197.389 112.959 196.807C114.357 196.225 115.628 195.372 116.698 194.296L144.412 166.448C145.482 165.374 146.331 164.098 146.91 162.693C147.489 161.289 147.788 159.784 147.788 158.263C147.788 156.743 147.489 155.238 146.91 153.834C146.331 152.429 145.482 151.153 144.412 150.079L116.698 122.236C115.628 121.16 114.357 120.307 112.959 119.725C111.56 119.143 110.062 118.844 108.548 118.844ZM83.8937 184.695C82.7313 184.695 81.6106 184.289 80.7192 183.555C80.5919 183.451 80.4693 183.339 80.3518 183.221C79.4125 182.277 78.8847 180.997 78.8847 179.663V147.568C78.8847 146.062 78.2895 144.618 77.2299 143.554C76.1702 142.489 74.7331 141.891 73.2346 141.891C71.7361 141.891 70.299 142.489 69.2393 143.554C68.1797 144.618 67.5845 146.062 67.5845 147.568V179.663C67.5845 180.997 67.0567 182.277 66.1174 183.221C65.178 184.165 63.9039 184.695 62.5755 184.695C61.247 184.695 59.9729 184.165 59.0336 183.221C58.0942 182.277 57.5665 180.997 57.5665 179.663V147.568C57.5665 143.396 59.2162 139.394 62.1526 136.444C65.0891 133.494 69.0718 131.837 73.2246 131.837C77.1859 131.837 80.9924 133.345 83.8838 136.045C86.7751 133.345 90.5816 131.837 94.5429 131.837C98.6957 131.837 102.678 133.494 105.615 136.444C108.551 139.394 110.201 143.396 110.201 147.568V179.663C110.201 180.997 109.673 182.277 108.734 183.221C107.795 184.165 106.521 184.695 105.192 184.695C103.864 184.695 102.59 184.165 101.65 183.221C100.711 182.277 100.183 180.997 100.183 179.663V147.568C100.183 146.065 99.5888 144.624 98.5311 143.561C97.4734 142.498 96.0388 141.901 94.5429 141.901C93.0471 141.901 91.6125 142.498 90.5548 143.561C89.497 144.624 88.9028 146.065 88.9028 147.568V179.663C88.9028 180.997 88.3751 182.277 87.4357 183.221C86.4963 184.165 85.2223 184.695 83.8938 184.695H83.8937Z" fill="white"/>
<rect x="0.5" y="0.5" width="167" height="342" rx="4.5" stroke="#7B61FF" stroke-dasharray="10 5"/>
</svg>
