<svg width="128" height="79" viewBox="0 0 128 79" fill="none" xmlns="http://www.w3.org/2000/svg">
<path fill-rule="evenodd" clip-rule="evenodd" d="M88.548 1.04259e-07H39.2395C37.7259 -0.000203987 36.2271 0.29923 34.8288 0.88119C33.4304 1.46315 32.1599 2.31623 31.0899 3.39168L3.3751 31.2347C2.30508 32.3094 1.45627 33.5854 0.877169 34.9898C0.298064 36.3942 0 37.8994 0 39.4195C0 40.9396 0.298064 42.4448 0.877169 43.8492C1.45627 45.2535 2.30508 46.5295 3.3751 47.6043L31.0899 75.4574C32.1603 76.5319 33.431 77.384 34.8293 77.9651C36.2277 78.5462 37.7263 78.8449 39.2395 78.844H88.548C90.0616 78.8442 91.5604 78.5448 92.9588 77.9628C94.3571 77.3808 95.6276 76.5278 96.6977 75.4523L124.412 47.6043C125.482 46.5295 126.331 45.2535 126.91 43.8492C127.489 42.4448 127.788 40.9396 127.788 39.4195C127.788 37.8994 127.489 36.3942 126.91 34.9898C126.331 33.5854 125.482 32.3094 124.412 31.2347L96.6977 3.39168C95.6276 2.31623 94.3571 1.46315 92.9588 0.88119C91.5604 0.29923 90.0616 -0.000203987 88.548 1.04259e-07ZM63.8937 65.8509C63.3956 65.8509 62.905 65.7764 62.437 65.6334C61.6568 65.3952 60.939 64.9669 60.3518 64.3771C59.4125 63.4333 58.8847 62.1534 58.8847 60.8188V28.7236C58.8847 27.2182 58.2895 25.7744 57.2299 24.7099C56.1702 23.6454 54.7331 23.0473 53.2346 23.0473C51.7361 23.0473 50.299 23.6454 49.2393 24.7099C48.1797 25.7744 47.5845 27.2182 47.5845 28.7236V60.8188C47.5845 62.1534 47.0567 63.4333 46.1174 64.3771C45.178 65.3208 43.9039 65.8509 42.5755 65.8509C41.247 65.8509 39.9729 65.3208 39.0336 64.3771C38.0942 63.4333 37.5665 62.1534 37.5665 60.8188V28.7236C37.5665 24.5516 39.2162 20.5505 42.1526 17.6004C45.0891 14.6504 49.0718 12.9931 53.2246 12.9931C57.1859 12.9931 60.9924 14.5011 63.8838 17.2006C66.7751 14.5011 70.5816 12.9931 74.5429 12.9931C78.6957 12.9931 82.6784 14.6504 85.6149 17.6004C88.5514 20.5505 90.201 24.5516 90.201 28.7236V60.8188C90.201 62.1534 89.6733 63.4333 88.7339 64.3771C87.7946 65.3208 86.5205 65.8509 85.1921 65.8509C83.8636 65.8509 82.5895 65.3208 81.6502 64.3771C80.7108 63.4333 80.1831 62.1534 80.1831 60.8188V28.7236C80.1831 27.2208 79.5888 25.7796 78.5311 24.717C77.4734 23.6544 76.0388 23.0574 74.5429 23.0574C73.0471 23.0574 71.6125 23.6544 70.5548 24.717C69.497 25.7796 68.9028 27.2208 68.9028 28.7236V60.8188C68.9028 62.1534 68.3751 63.4333 67.4357 64.3771C66.4963 65.3208 65.2223 65.8509 63.8938 65.8509H63.8937Z" fill="white"/>
</svg>
