<svg width="128" height="79" viewBox="0 0 128 79" fill="none" xmlns="http://www.w3.org/2000/svg">
<path d="M39.2395 1.04366e-07H88.548C90.0616 -0.000204091 91.5604 0.29923 92.9588 0.88119C94.3571 1.46315 95.6276 2.31623 96.6977 3.39168L124.412 31.2347C125.482 32.3094 126.331 33.5854 126.91 34.9898C127.489 36.3942 127.788 37.8994 127.788 39.4195C127.788 40.9396 127.489 42.4448 126.91 43.8492C126.331 45.2535 125.482 46.5295 124.412 47.6043L96.6977 75.4523C95.6276 76.5278 94.3571 77.3808 92.9588 77.9628C91.5604 78.5448 90.0616 78.8442 88.548 78.844H39.2395C37.7263 78.8449 36.2277 78.5462 34.8293 77.9651C33.431 77.384 32.1603 76.5319 31.0899 75.4574L3.3751 47.6043C2.30508 46.5295 1.45627 45.2535 0.877169 43.8492C0.298064 42.4448 0 40.9396 0 39.4195C0 37.8994 0.298064 36.3942 0.877169 34.9898C1.45627 33.5854 2.30508 32.3094 3.3751 31.2347L31.0899 3.39168C32.1599 2.31623 33.4304 1.46315 34.8288 0.88119C36.2271 0.29923 37.7259 -0.000204091 39.2395 1.04366e-07Z" fill="#ED1C24"/>
<path fill-rule="evenodd" clip-rule="evenodd" d="M62.4369 65.6334C62.905 65.7764 63.3956 65.8509 63.8937 65.8509C63.8938 65.8509 63.8938 65.8509 63.8938 65.8509C65.2223 65.8509 66.4963 65.3208 67.4357 64.377C68.3751 63.4333 68.9028 62.1534 68.9028 60.8188V28.7236C68.9028 27.2208 69.497 25.7796 70.5548 24.717C71.6125 23.6544 73.0471 23.0574 74.5429 23.0574C76.0388 23.0574 77.4734 23.6544 78.5311 24.717C79.5888 25.7796 80.1831 27.2208 80.1831 28.7236V60.8188C80.1831 62.1534 80.7108 63.4333 81.6502 64.377C82.5895 65.3208 83.8636 65.8509 85.1921 65.8509C86.5205 65.8509 87.7946 65.3208 88.7339 64.377C89.6733 63.4333 90.201 62.1534 90.201 60.8188V28.7236C90.201 24.5516 88.5514 20.5505 85.6149 17.6004C82.6784 14.6504 78.6957 12.993 74.5429 12.993C70.5816 12.993 66.7751 14.5011 63.8838 17.2006C60.9924 14.5011 57.1859 12.993 53.2246 12.993C49.0718 12.993 45.0891 14.6504 42.1526 17.6004C39.2162 20.5505 37.5665 24.5516 37.5665 28.7236V60.8188C37.5665 62.1534 38.0942 63.4333 39.0336 64.377C39.9729 65.3208 41.247 65.8509 42.5755 65.8509C43.9039 65.8509 45.178 65.3208 46.1174 64.377C47.0567 63.4333 47.5845 62.1534 47.5845 60.8188V28.7236C47.5845 27.2182 48.1797 25.7744 49.2393 24.7099C50.299 23.6453 51.7361 23.0473 53.2346 23.0473C54.7331 23.0473 56.1702 23.6453 57.2299 24.7099C58.2895 25.7744 58.8847 27.2182 58.8847 28.7236V60.8188C58.8847 62.1534 59.4125 63.4333 60.3518 64.377C60.939 64.9669 61.6568 65.3951 62.4369 65.6334Z" fill="white"/>
</svg>
