<svg width="844" height="421" viewBox="0 0 844 421" fill="none" xmlns="http://www.w3.org/2000/svg">
<path d="M105.519 411.748C106.005 407.092 106.597 401.707 107.296 395.593C107.995 389.479 108.751 383.077 109.564 376.387C110.366 369.703 111.185 362.977 112.02 356.211C112.855 349.444 113.674 343.111 114.476 337.21C111.622 342.738 108.74 348.287 105.83 353.858L97.5448 369.733C94.9249 374.734 92.5259 379.266 90.3481 383.329C88.1702 387.393 86.4072 390.683 85.059 393.2C83.8146 394.878 82.5755 396.473 81.3419 397.987C80.2005 399.392 78.9698 400.722 77.6576 401.968C76.5696 403.011 75.3632 403.922 74.0633 404.682C73.0163 405.325 71.8185 405.677 70.5919 405.702C69.3206 405.769 68.0613 405.426 66.9976 404.723C66.5504 404.387 66.194 403.944 65.9609 403.434C65.7278 402.924 65.6254 402.363 65.6631 401.803C65.6461 401.546 65.6461 401.288 65.6631 401.03C65.6927 400.765 65.7588 400.504 65.8596 400.257C65.543 392.58 65.3001 384.826 65.1309 376.996C64.9617 369.166 64.8825 361.467 64.8934 353.899V348.504C64.8934 346.71 64.8934 344.959 64.9753 343.223C62.792 348.092 60.4477 353.154 57.9423 358.407C55.437 363.66 52.7979 368.842 50.0251 373.953C47.296 379.069 44.4659 384.004 41.5348 388.758C38.6037 393.512 35.6944 397.814 32.807 401.664C30.2011 405.176 27.3239 408.476 24.202 411.534C21.8715 413.94 19.1178 415.892 16.0801 417.292C14.1634 418.099 12.1904 418.764 10.177 419.282C8.72362 419.658 7.23164 419.862 5.73122 419.891C4.19871 420.007 2.67277 419.592 1.40827 418.715C0.967989 418.375 0.611813 417.938 0.367532 417.437C0.123252 416.936 -0.00252557 416.385 3.84275e-05 415.828C0.0795919 414.27 0.676294 412.785 1.69484 411.608C2.94615 410.059 4.59338 408.882 6.45992 408.203C8.94343 407.227 11.6507 405.074 14.5818 401.746C17.8934 397.918 20.933 393.861 23.678 389.605C26.8002 384.84 29.9523 379.535 33.1345 373.689C36.3167 367.844 39.4006 361.919 42.3862 355.915C45.3774 349.883 48.1911 343.996 50.8275 338.255C53.4638 332.514 55.8082 327.304 57.8605 322.627C59.9073 317.971 61.5912 314.086 62.9121 310.972C64.2303 307.862 65.0572 305.93 65.3683 305.165C66.0025 303.618 67.1281 302.325 68.5696 301.488C69.814 300.761 71.2242 300.37 72.6633 300.353C74.6064 300.353 75.9546 300.879 76.7079 301.932C77.4611 302.985 77.8377 304.868 77.8377 307.583C78.2689 310.988 78.6346 314.193 78.9348 317.198C79.2351 320.203 79.4889 323.29 79.6963 326.46C79.9091 329.618 80.0593 333.026 80.1466 336.684C80.2339 340.341 80.2721 344.55 80.2612 349.31C80.2612 352.726 80.1957 356.488 80.0647 360.595C79.9337 364.702 79.8791 369.297 79.901 374.38C86.369 362.585 92.1002 352.18 97.0945 343.165C102.089 334.15 106.425 326.6 110.104 320.513C112.912 315.713 116.03 311.102 119.438 306.711C121.965 303.596 123.985 302.039 125.497 302.039H126.062C126.222 302.056 126.384 302.056 126.545 302.039C126.707 302.013 126.871 301.999 127.036 301.998C128.329 301.998 129.353 302.82 130.106 304.465C130.931 306.468 131.317 308.625 131.236 310.791C131.023 313.445 130.701 316.735 130.27 320.661C129.839 324.587 129.339 328.93 128.772 333.69C128.226 338.428 127.62 343.42 126.954 348.668C126.288 353.916 125.641 359.125 125.014 364.296C124.359 369.467 123.747 374.474 123.18 379.316C122.612 384.157 122.148 388.58 121.788 392.583C121.679 393.296 121.625 394.016 121.624 394.738V396.967C121.624 398.382 121.624 399.796 121.706 401.236C121.788 402.675 121.788 404.09 121.788 405.497C121.788 407.142 121.709 408.787 121.55 410.432C121.413 411.996 120.959 413.516 120.216 414.898C119.418 416.312 118.222 417.457 116.777 418.188C114.756 419.123 112.54 419.555 110.317 419.447C109.648 419.472 108.984 419.336 108.378 419.05C107.773 418.763 107.244 418.335 106.838 417.802C105.964 416.639 105.525 414.621 105.519 411.748Z" fill="white"/>
<path d="M177.462 358.407C181.932 358.407 185.273 359.504 187.483 361.697C189.694 363.89 190.786 366.906 190.758 370.745C190.705 373.231 190.098 375.673 188.982 377.893C187.457 380.808 185.369 383.388 182.841 385.484C179.246 388.502 175.337 391.122 171.182 393.299C165.291 396.425 159.18 399.116 152.9 401.351C153.024 402.115 153.314 402.842 153.748 403.482C154.182 404.121 154.751 404.657 155.413 405.052C157.11 406.016 159.043 406.478 160.989 406.385C163.677 406.357 166.351 405.99 168.947 405.291C171.806 404.549 174.613 403.614 177.347 402.494C180.123 401.351 182.833 400.126 185.469 398.793C188.106 397.461 190.496 396.21 192.625 395.018C194.754 393.825 196.531 392.805 197.955 391.933C199.38 391.061 200.346 390.527 200.829 390.288C201.226 390.001 201.682 389.807 202.163 389.721C202.524 389.668 202.888 389.64 203.252 389.638C203.831 389.614 204.402 389.769 204.89 390.082C205.307 390.375 205.675 390.734 205.979 391.143C206.264 391.533 206.47 391.974 206.585 392.443C206.68 392.828 206.733 393.223 206.74 393.619C206.733 394.204 206.681 394.787 206.585 395.363C206.379 396.223 205.962 397.017 205.373 397.674C205.103 397.946 204.202 398.678 202.663 399.871C201.124 401.063 199.151 402.47 196.719 404.09C194.287 405.71 191.479 407.43 188.278 409.247C184.98 411.104 181.579 412.771 178.093 414.24C174.459 415.772 170.718 417.034 166.9 418.015C163.158 419.001 159.307 419.506 155.438 419.521C152.461 419.578 149.511 418.936 146.825 417.645C144.366 416.44 142.189 414.724 140.439 412.611C138.66 410.452 137.304 407.974 136.443 405.307C135.519 402.506 135.054 399.573 135.068 396.622C135.118 394.006 135.583 391.416 136.443 388.947C137.435 386.002 138.762 383.181 140.398 380.541C142.231 377.591 144.357 374.835 146.743 372.316C149.268 369.618 152.105 367.232 155.192 365.209C158.396 363.118 161.859 361.459 165.492 360.274C169.356 359.01 173.398 358.379 177.462 358.407ZM174.539 369.61C174.3 369.557 174.056 369.529 173.81 369.527H173.082C171.106 369.512 169.151 369.928 167.351 370.745C165.562 371.559 163.905 372.641 162.438 373.953C160.949 375.304 159.624 376.828 158.492 378.493C157.337 380.138 156.298 381.783 155.356 383.428C154.495 384.964 153.725 386.549 153.047 388.174C152.425 389.696 151.958 390.963 151.631 391.991C153.522 391.02 155.471 389.91 157.493 388.701C159.515 387.491 161.415 386.233 163.224 385.123C165.034 384.012 166.548 382.959 167.875 382.038C169.201 381.117 170.118 380.5 170.658 380.171C172.587 379.089 174.288 377.642 175.669 375.91C176.459 374.922 176.938 373.719 177.044 372.456C177.061 372.096 177.001 371.736 176.868 371.402C176.735 371.067 176.533 370.764 176.275 370.514C175.802 370.042 175.196 369.727 174.539 369.61Z" fill="white"/>
<path d="M284.128 398.11C281.59 400.975 278.818 403.622 275.842 406.023C272.767 408.544 269.513 410.837 266.107 412.883C262.983 414.785 259.695 416.401 256.282 417.711C253.506 418.843 250.55 419.465 247.554 419.545C245.251 419.645 242.997 418.86 241.25 417.349C239.613 415.885 238.794 413.396 238.794 409.881C238.859 406.942 239.294 404.024 240.087 401.195C238.535 403.486 236.779 405.631 234.839 407.602C232.66 409.834 230.247 411.823 227.643 413.533C224.828 415.375 221.783 416.836 218.587 417.876C215.063 419.007 211.381 419.563 207.682 419.521C205.954 419.524 204.232 419.331 202.548 418.945C200.989 418.604 199.517 417.944 198.225 417.004C196.946 416.031 195.92 414.761 195.237 413.302C194.432 411.494 194.045 409.525 194.107 407.545C194.107 407.487 194.213 406.665 194.426 405.077C194.897 402.505 195.587 399.979 196.489 397.526C197.647 394.088 199.437 389.636 201.86 384.168C204.284 378.701 207.706 372.069 212.127 364.271C213.022 362.474 214.375 360.947 216.049 359.846C217.496 358.956 219.159 358.487 220.855 358.489C221.644 358.492 222.429 358.586 223.197 358.769C223.993 358.952 224.758 359.254 225.465 359.665C226.133 360.053 226.709 360.584 227.151 361.22C227.583 361.854 227.809 362.607 227.798 363.375C227.801 363.898 227.718 364.417 227.552 364.913C227.121 366.185 226.538 367.4 225.817 368.532C224.924 370.021 223.893 371.724 222.706 373.64C221.518 375.557 220.249 377.638 218.948 379.858C217.646 382.079 216.401 384.374 215.271 386.759C214.149 389.117 213.176 391.542 212.357 394.022C211.595 396.342 211.149 398.755 211.03 401.195C211.03 402.148 211.315 403.08 211.849 403.868C212.151 404.285 212.556 404.617 213.024 404.83C213.492 405.044 214.006 405.131 214.518 405.085C218.065 405.074 221.537 404.063 224.54 402.165C227.768 400.166 230.712 397.736 233.292 394.944C235.987 392.045 238.433 388.922 240.603 385.608C242.787 382.279 244.607 379.233 246.064 376.47C247.115 374.568 248.018 372.588 248.766 370.547C249.499 368.549 250.349 366.596 251.312 364.699C252.127 363.056 253.191 361.549 254.464 360.233C255.045 359.646 255.739 359.185 256.503 358.878C257.268 358.571 258.087 358.425 258.91 358.448C259.767 358.404 260.624 358.549 261.42 358.871C262.216 359.194 262.932 359.686 263.52 360.315C264.638 361.528 265.246 363.128 265.215 364.781C265.108 366.177 264.739 367.539 264.126 368.795C263.397 370.506 262.488 372.447 261.375 374.644C260.261 376.84 259.074 379.176 257.78 381.668C256.487 384.16 255.283 386.685 254.186 389.26C253.12 391.719 252.201 394.241 251.435 396.811C250.745 399.033 250.378 401.343 250.346 403.671C250.346 405.62 251.525 406.591 253.9 406.591C256.045 406.485 258.153 405.989 260.122 405.126C262.852 404.019 265.466 402.642 267.925 401.014C270.799 399.144 273.535 397.069 276.112 394.804C278.773 392.481 281.195 389.897 283.341 387.088L284.128 398.11Z" fill="white"/>
<path d="M373.96 342.491C378.288 340.767 382.5 338.761 386.569 336.486C389.762 334.714 392.792 332.661 395.624 330.35C397.728 328.667 399.579 326.686 401.118 324.469C402.236 322.957 402.893 321.151 403.009 319.271C402.946 318.576 402.658 317.92 402.19 317.404C401.515 316.59 400.679 315.926 399.734 315.454C398.414 314.783 397.017 314.277 395.575 313.949C393.665 313.519 391.711 313.314 389.753 313.341C384.185 313.296 378.636 314.021 373.264 315.496C368.51 316.812 363.886 318.566 359.452 320.735C355.627 322.597 351.951 324.753 348.456 327.184C345.28 329.437 342.613 331.4 340.457 333.073C339.217 334.004 338.043 335.021 336.945 336.116C335.946 337.12 334.974 338.014 334.03 338.798C333.111 339.569 332.092 340.211 331.001 340.706C329.773 341.221 328.45 341.471 327.12 341.438C325.217 341.55 323.338 340.966 321.831 339.793C321.193 339.233 320.69 338.535 320.359 337.751C320.029 336.968 319.88 336.119 319.923 335.269C319.923 332.939 320.837 330.471 322.666 327.866C324.819 324.91 327.377 322.274 330.264 320.036C333.832 317.227 337.647 314.749 341.661 312.633C346.196 310.181 350.912 308.083 355.768 306.357C360.904 304.547 366.163 303.109 371.504 302.055C376.921 300.973 382.429 300.422 387.952 300.41C392.877 300.343 397.793 300.815 402.616 301.817C406.156 302.523 409.556 303.813 412.678 305.633C415.067 307.031 417.066 309.012 418.491 311.391C419.753 313.589 420.409 316.084 420.391 318.621C420.301 321.517 419.404 324.33 417.804 326.74C415.783 329.91 413.299 332.758 410.435 335.187C406.82 338.282 402.894 340.989 398.719 343.264C393.723 346.008 388.522 348.356 383.163 350.288C387.989 351.803 392.652 353.8 397.081 356.252C400.198 357.974 403.034 360.165 405.49 362.75C407.367 364.733 408.768 367.122 409.583 369.733C410.285 372.137 410.641 374.63 410.64 377.136C410.591 381.034 409.518 384.851 407.528 388.199C405.277 392.079 402.393 395.552 398.997 398.472C395.033 401.926 390.697 404.922 386.069 407.405C380.856 410.233 375.407 412.597 369.784 414.47C363.718 416.492 357.504 418.037 351.199 419.093C344.655 420.198 338.03 420.748 331.394 420.738C328.992 420.735 326.592 420.597 324.205 420.327C321.934 420.089 319.697 419.601 317.532 418.871C315.716 418.276 314.043 417.306 312.62 416.025C311.994 415.433 311.5 414.714 311.173 413.916C310.845 413.117 310.691 412.257 310.72 411.394C310.708 411.191 310.708 410.988 310.72 410.785C310.72 410.596 310.786 410.374 310.843 410.103C311.056 409.667 311.302 409.14 311.572 408.515C311.996 407.734 312.643 407.097 313.431 406.689C314.86 405.937 316.404 405.429 317.999 405.184C320.95 404.714 323.936 404.51 326.923 404.575C333.686 392.199 339.267 381.531 343.667 372.571C348.066 363.611 351.742 356.235 354.695 350.445C356.867 345.99 359.366 341.704 362.17 337.622C364.19 334.88 366.171 333.509 368.114 333.509C368.966 333.509 369.812 333.648 370.62 333.92C371.385 334.169 372.106 334.538 372.756 335.014C373.372 335.467 373.883 336.048 374.255 336.717C374.632 337.401 374.827 338.172 374.82 338.954C374.422 339.419 374.169 339.991 374.091 340.599C374.025 341.15 373.96 341.792 373.96 342.491ZM369.514 357.996C367.091 363.523 364.815 368.477 362.686 372.859C360.557 377.24 358.551 381.259 356.668 384.917C354.785 388.569 352.995 391.977 351.297 395.141C349.6 398.305 347.94 401.403 346.319 404.436C352.25 403.959 358.115 402.856 363.816 401.145C368.768 399.7 373.52 397.638 377.964 395.009C381.604 392.892 384.813 390.101 387.42 386.784C389.596 384.064 390.804 380.691 390.851 377.202C390.824 375.553 390.482 373.925 389.844 372.406C389.03 370.522 387.863 368.813 386.405 367.372C384.446 365.446 382.244 363.787 379.855 362.437C376.585 360.595 373.129 359.107 369.547 357.996H369.514Z" fill="white"/>
<path d="M504.271 394.121C503.305 395.042 502.011 396.309 500.39 397.938C498.769 399.566 496.927 401.318 494.855 403.21C492.784 405.102 490.573 407.018 488.232 408.968C485.938 410.856 483.535 412.606 481.035 414.207C478.738 415.695 476.319 416.986 473.806 418.065C471.69 419.012 469.407 419.524 467.092 419.57C465.395 419.616 463.718 419.192 462.245 418.344C460.913 417.549 459.77 416.471 458.896 415.186C457.982 413.839 457.312 412.341 456.915 410.761C456.482 409.104 456.265 407.398 456.268 405.686C456.267 404.557 456.349 403.43 456.514 402.313C456.665 401.243 456.94 400.194 457.333 399.188C455.662 401.458 453.752 403.799 451.601 406.212C449.502 408.598 447.204 410.799 444.732 412.792C442.373 414.714 439.798 416.351 437.06 417.67C434.529 418.908 431.754 419.56 428.939 419.578C427.27 419.546 425.615 419.269 424.026 418.756C422.107 418.155 420.314 417.204 418.737 415.951C417.007 414.579 415.575 412.866 414.529 410.917C413.334 408.586 412.751 405.987 412.834 403.366C412.89 400.686 413.23 398.02 413.849 395.412C414.587 392.119 415.614 388.899 416.919 385.789C418.353 382.339 420.11 379.034 422.168 375.918C424.286 372.682 426.827 369.747 429.725 367.191C432.684 364.588 436.04 362.478 439.664 360.94C443.61 359.3 447.847 358.485 452.117 358.547C454.222 358.508 456.32 358.808 458.331 359.435C459.898 359.941 461.414 360.594 462.859 361.384C464.194 362.199 465.44 363.153 466.576 364.23C467.493 363.737 468.435 363.276 469.409 362.849C470.238 362.461 471.088 362.121 471.955 361.829C472.694 361.56 473.47 361.41 474.256 361.384C476.078 361.309 477.864 361.916 479.267 363.087C479.839 363.52 480.309 364.074 480.646 364.709C480.983 365.344 481.177 366.045 481.215 366.764C481.225 367.065 481.197 367.366 481.133 367.66C480.866 368.691 480.448 369.991 479.881 371.559C479.313 373.127 478.68 374.871 477.981 376.79C477.285 378.715 476.565 380.722 475.844 382.803C475.124 384.884 474.452 386.916 473.863 388.931C473.273 390.946 472.782 392.813 472.406 394.573C472.063 396.052 471.874 397.563 471.841 399.081C471.794 400.468 472.074 401.846 472.659 403.103C472.908 403.611 473.301 404.033 473.79 404.314C474.279 404.596 474.84 404.724 475.402 404.682C476.404 404.635 477.384 404.371 478.276 403.909C479.524 403.313 480.726 402.623 481.87 401.845C483.164 400.973 484.498 399.983 485.874 398.875C487.241 397.773 488.576 396.646 489.869 395.511C492.888 392.808 496.094 389.721 499.489 386.249C500.178 385.618 501.064 385.246 501.995 385.197C502.543 385.206 503.079 385.357 503.553 385.635C504.026 385.913 504.42 386.309 504.697 386.784C505.42 387.816 505.804 389.05 505.794 390.313C505.811 391.018 505.685 391.72 505.423 392.375C505.161 393.029 504.769 393.624 504.271 394.121ZM448.269 373.171C445.688 373.181 443.152 373.852 440.9 375.121C438.513 376.435 436.378 378.168 434.596 380.237C432.768 382.353 431.294 384.753 430.232 387.343C429.174 389.847 428.618 392.536 428.595 395.256C428.596 396.383 428.664 397.509 428.799 398.628C428.919 399.744 429.232 400.83 429.725 401.836C430.2 402.817 430.909 403.664 431.788 404.304C432.853 405.004 434.112 405.344 435.382 405.275C436.89 405.159 438.334 404.611 439.541 403.695C441.297 402.492 442.941 401.132 444.454 399.632C446.211 397.915 447.87 396.1 449.423 394.195C451.061 392.221 452.516 390.285 453.787 388.388C454.93 386.742 455.982 385.034 456.939 383.272C457.569 382.273 457.981 381.152 458.151 379.982C458.15 378.949 457.774 377.952 457.095 377.177C456.366 376.315 455.493 375.585 454.516 375.022C453.488 374.432 452.387 373.981 451.241 373.681C450.274 373.395 449.276 373.226 448.269 373.179V373.171Z" fill="white"/>
<path d="M508.798 368.228C509.665 366.168 511.057 364.375 512.835 363.029C514.212 361.979 515.88 361.384 517.608 361.327C518.905 361.33 520.15 361.841 521.08 362.75C521.617 363.296 522.032 363.952 522.298 364.672C522.563 365.393 522.673 366.162 522.619 366.928C522.613 367.694 522.53 368.457 522.373 369.207C522.184 370.103 521.888 370.973 521.489 371.798C522.963 370.013 524.677 368.444 526.582 367.134C528.884 365.49 531.331 364.061 533.893 362.865C536.549 361.593 539.307 360.547 542.138 359.739C544.748 358.958 547.454 358.548 550.178 358.522C552.719 358.426 555.223 359.149 557.325 360.587C559.241 361.968 560.199 364.31 560.199 367.611C560.184 369.672 559.884 371.72 559.307 373.698C558.698 375.863 557.929 377.98 557.006 380.031C556.064 382.145 555.008 384.218 553.854 386.241C552.699 388.265 551.553 390.181 550.415 391.999L547.304 396.934C546.362 398.423 545.625 399.648 545.085 400.627C544.391 401.471 544.02 402.535 544.037 403.629C544.028 404.044 544.171 404.448 544.438 404.765C544.603 404.939 544.805 405.073 545.029 405.158C545.253 405.242 545.494 405.273 545.732 405.25C546.165 405.244 546.598 405.205 547.026 405.135C547.668 404.986 548.272 404.706 548.802 404.312C551.866 403.158 554.85 401.801 557.735 400.249C560.772 398.604 563.703 396.909 566.503 395.1C569.304 393.29 571.874 391.472 574.216 389.655C576.558 387.837 578.514 386.208 580.078 384.72C580.457 384.37 580.895 384.092 581.372 383.897C581.759 383.748 582.169 383.667 582.584 383.658C583 383.642 583.414 383.73 583.788 383.914C584.162 384.097 584.485 384.371 584.729 384.711C585.261 385.5 585.528 386.44 585.49 387.393C585.413 389.358 584.874 391.277 583.918 392.994C582.694 395.251 580.999 397.215 578.948 398.752C575.881 400.945 573.064 402.974 570.499 404.839C567.934 406.703 565.322 408.422 562.663 409.996C559.894 411.643 557.035 413.134 554.099 414.462C550.624 415.998 547.046 417.287 543.39 418.32C542.129 418.714 540.847 419.038 539.55 419.29C538.498 419.496 537.429 419.606 536.357 419.619C533.5 419.619 531.445 418.797 530.094 417.218C528.743 415.638 528.113 413.393 528.113 410.522C528.113 410.144 528.113 409.782 528.154 409.428C528.194 409.075 528.219 408.68 528.276 408.252C528.434 406.351 528.884 404.487 529.611 402.725C530.438 400.617 531.381 398.558 532.436 396.556C533.527 394.45 534.701 392.353 535.956 390.263C537.212 388.174 538.355 386.2 539.387 384.341C540.435 382.474 541.311 380.804 542.015 379.348C542.613 378.244 542.97 377.024 543.063 375.77C543.081 375.02 542.838 374.287 542.375 373.698C542.12 373.409 541.802 373.184 541.445 373.041C541.088 372.898 540.703 372.841 540.32 372.875C536.812 372.893 533.389 373.967 530.495 375.96C527.299 378.073 524.38 380.582 521.808 383.428C519.113 386.432 516.629 389.62 514.374 392.969C512.114 396.325 510.122 399.341 508.397 402.017C507.291 403.871 506.304 405.794 505.442 407.775C504.557 409.807 503.624 411.707 502.658 413.459C501.792 415.077 500.688 416.555 499.383 417.843C498.775 418.424 498.058 418.879 497.274 419.179C496.489 419.48 495.653 419.621 494.814 419.595C493.988 419.636 493.163 419.497 492.396 419.187C491.629 418.878 490.937 418.405 490.369 417.802C489.281 416.607 488.694 415.036 488.731 413.418C488.878 411.88 489.26 410.373 489.861 408.951C490.614 406.895 491.583 404.515 492.768 401.812C493.952 399.108 495.287 396.183 496.771 393.035C498.256 389.915 499.738 386.828 501.217 383.774C502.696 380.719 504.11 377.838 505.458 375.129C506.828 372.436 507.942 370.136 508.798 368.228Z" fill="white"/>
<path d="M621.941 401.03C621.885 401.157 621.857 401.295 621.859 401.433C621.863 401.574 621.838 401.714 621.785 401.845C621.803 402.899 622.049 403.938 622.505 404.888C622.687 405.362 623.011 405.769 623.431 406.051C623.852 406.334 624.349 406.479 624.855 406.467C625.185 406.486 625.514 406.433 625.821 406.311C629.117 405.283 632.257 403.808 635.155 401.927C638.314 399.916 641.352 397.719 644.251 395.347C647.055 393.053 649.739 390.615 652.291 388.043C654.737 385.548 656.77 383.327 658.391 381.38C658.677 380.974 659.052 380.639 659.486 380.4C659.92 380.161 660.402 380.023 660.896 379.998C661.318 380.009 661.731 380.117 662.103 380.316C662.475 380.514 662.796 380.797 663.041 381.142C663.699 382.03 664.026 383.121 663.967 384.226C663.928 385.485 663.65 386.724 663.148 387.878C662.441 389.52 661.504 391.052 660.364 392.427C657.187 395.942 653.929 399.325 650.588 402.577C647.412 405.677 644.037 408.565 640.485 411.221C637.329 413.595 633.928 415.622 630.341 417.267C627.24 418.723 623.865 419.5 620.442 419.545C616.507 419.545 613.409 418.421 611.149 416.173C608.89 413.925 607.757 410.555 607.752 406.064V405.242C607.751 404.965 607.778 404.69 607.834 404.419C606.567 406.719 604.96 408.813 603.068 410.629C601.145 412.484 599 414.092 596.682 415.416C594.411 416.721 591.995 417.756 589.486 418.501C587.154 419.212 584.733 419.583 582.297 419.603C580.431 419.62 578.575 419.343 576.795 418.78C575.171 418.267 573.69 417.376 572.472 416.181C571.202 414.898 570.237 413.343 569.647 411.633C568.921 409.492 568.577 407.239 568.632 404.978C568.61 400.573 569.321 396.194 570.736 392.024C572.092 388.031 573.967 384.237 576.312 380.738C578.591 377.349 581.262 374.242 584.27 371.485C587.132 368.853 590.248 366.514 593.571 364.502C596.585 362.669 599.796 361.185 603.142 360.077C605.955 359.114 608.899 358.595 611.87 358.538C614.592 358.467 617.296 358.992 619.795 360.077C620.902 360.643 621.911 361.385 622.784 362.273C622.997 361.779 623.218 361.327 623.431 360.891C623.971 359.591 624.454 358.423 624.888 357.519C625.322 356.614 625.609 355.873 625.772 355.446C625.936 355.018 626.394 353.801 627.148 352.04C627.901 350.28 628.785 348.158 629.776 345.748C630.767 343.338 631.847 340.755 633.01 337.992C634.173 335.228 635.229 332.637 636.203 330.202L638.708 323.91C639.404 322.15 639.838 321.023 639.994 320.538C640.376 319.176 640.892 317.857 641.533 316.598C642.144 315.399 642.918 314.291 643.834 313.308C644.723 312.362 645.777 311.59 646.945 311.029C648.215 310.454 649.597 310.173 650.989 310.207C652.781 310.138 654.552 310.602 656.082 311.539C657.425 312.436 658.104 314.155 658.104 316.696C658.098 317.765 657.961 318.829 657.695 319.863C657.425 320.949 657.114 322.002 656.77 323.03C656.426 324.058 656.041 325.078 655.64 326.073C655.239 327.069 654.87 328.014 654.543 328.878C651.846 334.29 649.019 340.177 646.061 346.538C643.102 352.899 640.166 359.298 637.251 365.736C634.347 372.173 631.572 378.452 628.924 384.571C626.277 390.691 623.949 396.177 621.941 401.03ZM619.484 369.281C616 369.445 612.563 370.158 609.299 371.395C605.223 372.798 601.429 374.923 598.099 377.67C594.635 380.543 591.719 384.024 589.494 387.944C587.086 392.224 585.717 397.015 585.498 401.927C585.498 404.09 586.407 405.168 588.241 405.168C590.474 405.175 592.682 404.693 594.709 403.753C596.827 402.759 598.797 401.474 600.563 399.936C602.478 398.286 604.225 396.448 605.779 394.45C607.392 392.4 608.89 390.261 610.265 388.043C611.641 385.849 612.88 383.656 613.982 381.462C615.088 379.274 616.046 377.226 616.848 375.334L617.986 372.818C618.412 371.748 618.928 370.58 619.517 369.281H619.484Z" fill="white"/>
<path d="M687.161 358.407C691.631 358.407 694.972 359.504 697.182 361.697C699.393 363.89 700.485 366.906 700.457 370.745C700.404 373.231 699.796 375.673 698.681 377.893C697.155 380.809 695.065 383.391 692.532 385.484C688.936 388.526 685.021 391.165 680.857 393.356C674.957 396.49 668.839 399.19 662.55 401.433C662.674 402.196 662.963 402.923 663.395 403.562C663.828 404.201 664.394 404.738 665.055 405.135C666.751 406.098 668.684 406.56 670.63 406.467C673.321 406.44 675.998 406.073 678.597 405.373C681.456 404.631 684.263 403.697 686.997 402.577C689.773 401.433 692.483 400.208 695.119 398.875C697.755 397.543 700.146 396.292 702.275 395.1C704.404 393.907 706.18 392.887 707.605 392.015C708.535 391.419 709.494 390.87 710.479 390.37C710.876 390.083 711.332 389.889 711.813 389.803C712.174 389.749 712.538 389.722 712.902 389.72C713.481 389.693 714.053 389.849 714.54 390.165C714.96 390.453 715.329 390.812 715.629 391.226C715.919 391.612 716.128 392.055 716.243 392.525C716.338 392.91 716.391 393.305 716.398 393.702C716.391 394.286 716.339 394.869 716.243 395.445C716.037 396.307 715.617 397.102 715.023 397.757C714.755 398.031 713.855 398.763 712.321 399.953C710.787 401.143 708.806 402.549 706.377 404.172C703.921 405.817 701.137 407.512 697.936 409.33C694.638 411.187 691.237 412.854 687.75 414.322C684.116 415.853 680.375 417.115 676.558 418.098C672.816 419.083 668.964 419.588 665.096 419.603C662.121 419.66 659.174 419.018 656.491 417.728C654.032 416.522 651.855 414.806 650.105 412.694C648.323 410.536 646.967 408.057 646.109 405.39C645.185 402.588 644.72 399.655 644.734 396.704C644.784 394.089 645.249 391.498 646.109 389.03C647.098 386.083 648.425 383.261 650.064 380.623C651.897 377.673 654.023 374.917 656.409 372.398C658.934 369.7 661.771 367.314 664.858 365.291C668.062 363.201 671.525 361.541 675.158 360.356C679.028 359.061 683.082 358.402 687.161 358.407ZM684.263 369.61C684.023 369.557 683.779 369.529 683.534 369.527H682.805C680.83 369.512 678.874 369.928 677.074 370.745C675.285 371.559 673.629 372.641 672.162 373.953C670.668 375.293 669.338 376.806 668.199 378.46C667.042 380.138 666.005 381.802 665.088 383.453C664.23 384.989 663.461 386.573 662.787 388.199C662.165 389.72 661.698 390.987 661.371 392.015C663.254 391.045 665.208 389.948 667.233 388.725C669.258 387.502 671.168 386.31 672.964 385.147C674.738 384.012 676.285 382.984 677.606 382.063C678.933 381.142 679.858 380.525 680.398 380.196C682.326 379.114 684.028 377.667 685.409 375.935C686.199 374.946 686.678 373.744 686.784 372.48C686.799 372.121 686.738 371.762 686.605 371.427C686.472 371.093 686.271 370.79 686.015 370.539C685.54 370.055 684.928 369.73 684.263 369.61Z" fill="white"/>
<path d="M753.348 365.958C753.329 367.825 753.14 369.686 752.783 371.518C752.424 373.512 751.799 375.449 750.925 377.276C750.13 378.974 749.002 380.493 747.609 381.742C746.222 382.95 744.432 383.587 742.598 383.527C741.877 383.624 741.145 383.451 740.543 383.042C740.191 382.545 740.031 381.937 740.093 381.331C740.093 380.845 740.093 380.13 740.093 379.184C740.093 378.238 740.093 377.325 740.093 376.461C740.115 375.621 739.979 374.784 739.691 373.994C739.421 373.319 738.75 372.982 737.669 372.982C736.18 373.062 734.741 373.551 733.51 374.397C731.842 375.453 730.296 376.691 728.9 378.09C727.288 379.703 725.789 381.426 724.414 383.247C722.997 385.119 721.691 387.071 720.5 389.095C719.409 390.926 718.489 392.853 717.749 394.853C717.148 396.352 716.807 397.943 716.742 399.558C716.701 400.405 716.858 401.251 717.201 402.026C717.544 402.802 718.062 403.486 718.715 404.024C720.262 405.187 722.165 405.769 724.094 405.669C726.726 405.634 729.339 405.224 731.856 404.452C734.653 403.616 737.389 402.586 740.043 401.368C742.77 400.117 745.39 398.768 747.928 397.304C750.466 395.84 752.758 394.45 754.838 393.126C756.918 391.802 758.645 390.658 760.045 389.712C760.933 389.085 761.851 388.503 762.796 387.969C763.552 387.559 764.394 387.336 765.253 387.319C765.829 387.306 766.398 387.46 766.89 387.763C767.321 388.038 767.692 388.399 767.979 388.824C768.249 389.181 768.457 389.581 768.593 390.008C768.691 390.396 768.746 390.793 768.757 391.193C768.746 391.777 768.692 392.36 768.593 392.937C768.39 393.798 767.973 394.593 767.381 395.248C767.114 395.577 766.238 396.399 764.753 397.716C763.268 399.032 761.358 400.589 759.022 402.387C756.68 404.175 753.987 406.094 750.941 408.145C747.811 410.219 744.545 412.077 741.165 413.705C737.684 415.383 734.076 416.781 730.374 417.884C726.807 418.964 723.104 419.518 719.378 419.529C716.881 419.572 714.398 419.131 712.067 418.229C710.054 417.434 708.226 416.23 706.696 414.693C705.252 413.198 704.137 411.416 703.421 409.461C702.664 407.451 702.275 405.319 702.275 403.169C702.36 400.29 702.933 397.448 703.97 394.763C705.205 391.377 706.777 388.126 708.661 385.057C710.743 381.629 713.092 378.373 715.686 375.318C718.319 372.188 721.256 369.331 724.455 366.788C727.48 364.38 730.794 362.362 734.32 360.784C737.584 359.304 741.121 358.531 744.702 358.514C745.833 358.506 746.961 358.641 748.059 358.917C749.044 359.159 749.975 359.586 750.802 360.175C751.608 360.773 752.248 361.569 752.66 362.487C753.141 363.579 753.375 364.764 753.348 365.958Z" fill="white"/>
<path d="M795.055 358.489C797.262 358.519 799.458 358.795 801.605 359.312C803.933 359.838 806.15 360.774 808.154 362.075C810.172 363.401 811.87 365.163 813.124 367.233C814.509 369.632 815.196 372.373 815.106 375.145C815.076 377.016 814.859 378.879 814.459 380.706C813.986 382.947 813.337 385.147 812.518 387.286C813.008 387.9 813.649 388.376 814.377 388.668C815.099 388.942 815.865 389.078 816.637 389.071C817.945 389.028 819.228 388.696 820.395 388.1C821.881 387.385 823.302 386.543 824.644 385.583C826.162 384.5 827.619 383.333 829.008 382.087C830.454 380.788 831.819 379.488 833.102 378.189C834.395 376.889 835.558 375.663 836.614 374.495C837.67 373.328 838.546 372.349 839.242 371.534C839.421 371.351 839.635 371.205 839.872 371.108C840.108 371.01 840.362 370.962 840.618 370.967C841.024 370.986 841.419 371.104 841.771 371.308C842.123 371.513 842.421 371.799 842.64 372.143C843.283 373.114 843.594 374.269 843.524 375.433C843.453 377.127 843.026 378.786 842.271 380.303C841.134 382.522 839.554 384.482 837.629 386.06C836.336 387.464 834.854 389.087 833.183 390.93C831.513 392.771 829.73 394.507 827.845 396.128C826.025 397.697 824.049 399.075 821.95 400.241C820.083 401.329 817.969 401.918 815.81 401.951C814.42 401.953 813.038 401.733 811.716 401.302C810.283 400.804 808.933 400.091 807.712 399.188C805.81 402.182 803.589 404.959 801.089 407.471C798.612 409.957 795.827 412.113 792.803 413.886C789.717 415.69 786.415 417.094 782.978 418.065C779.307 419.087 775.513 419.594 771.704 419.57C769.919 419.522 768.149 419.22 766.448 418.674C764.389 418.038 762.462 417.035 760.758 415.712C758.879 414.248 757.324 412.408 756.189 410.308C754.879 407.81 754.239 405.012 754.33 402.19C754.392 399.563 754.743 396.95 755.378 394.401C756.146 391.178 757.216 388.036 758.572 385.016C760.076 381.663 761.888 378.457 763.983 375.441C766.185 372.254 768.81 369.384 771.786 366.912C774.889 364.343 778.379 362.288 782.127 360.825C786.249 359.229 790.637 358.437 795.055 358.489ZM790.846 372.776C788.288 372.782 785.773 373.438 783.535 374.685C781.176 375.972 779.067 377.677 777.313 379.719C775.497 381.821 774.037 384.208 772.99 386.784C771.916 389.341 771.359 392.086 771.352 394.861C771.356 395.987 771.436 397.111 771.59 398.225C771.742 399.411 772.085 400.564 772.605 401.639C773.114 402.691 773.877 403.598 774.824 404.279C775.975 405.03 777.333 405.398 778.704 405.332C781.246 405.317 783.739 404.63 785.934 403.342C788.309 401.994 790.429 400.238 792.197 398.151C794.046 395.99 795.521 393.532 796.561 390.88C797.631 388.271 798.187 385.477 798.199 382.655C798.193 381.531 798.125 380.407 797.994 379.291C797.874 378.17 797.546 377.082 797.028 376.083C796.509 375.099 795.741 374.271 794.801 373.681C793.593 373.014 792.223 372.7 790.846 372.776Z" fill="white"/>
<path fill-rule="evenodd" clip-rule="evenodd" d="M496.165 3.16041e-07H346.835C342.252 -0.000618345 337.713 0.907056 333.478 2.67115C329.243 4.43525 325.395 7.0212 322.155 10.2812L238.221 94.6817C234.981 97.9397 232.41 101.808 230.656 106.065C228.903 110.322 228 114.884 228 119.492C228 124.1 228.903 128.663 230.656 132.92C232.41 137.177 234.981 141.045 238.221 144.303L322.155 228.734C325.396 231.991 329.245 234.574 333.479 236.336C337.714 238.097 342.253 239.003 346.835 239H496.165C500.748 239.001 505.287 238.093 509.522 236.329C513.757 234.565 517.605 231.979 520.845 228.719L604.779 144.303C608.019 141.045 610.59 137.177 612.344 132.92C614.097 128.663 615 124.1 615 119.492C615 114.884 614.097 110.322 612.344 106.065C610.59 101.808 608.019 97.9397 604.779 94.6817L520.845 10.2812C517.605 7.0212 513.757 4.43525 509.522 2.67115C505.287 0.907056 500.748 -0.000618345 496.165 3.16041e-07ZM421.5 199.614C418.985 199.614 416.535 198.986 414.357 197.817C413.05 197.116 411.84 196.219 410.773 195.146C407.929 192.286 406.33 188.406 406.33 184.36V87.07C406.33 82.5065 404.528 78.1299 401.319 74.9031C398.11 71.6762 393.757 69.8634 389.219 69.8634C384.681 69.8634 380.329 71.6762 377.12 74.9031C373.911 78.1299 372.108 82.5065 372.108 87.07V184.36C372.108 188.406 370.51 192.286 367.665 195.146C364.82 198.007 360.961 199.614 356.938 199.614C352.915 199.614 349.057 198.007 346.212 195.146C343.367 192.286 341.769 188.406 341.769 184.36V87.07C341.769 74.4234 346.765 62.2947 355.658 53.3522C364.551 44.4097 376.612 39.3859 389.189 39.3859C401.185 39.3859 412.713 43.9571 421.47 52.1403C430.226 43.9571 441.754 39.3859 453.751 39.3859C466.327 39.3859 478.389 44.4097 487.282 53.3522C496.175 62.2947 501.171 74.4234 501.171 87.07V184.36C501.171 188.406 499.572 192.286 496.728 195.146C493.883 198.007 490.024 199.614 486.001 199.614C481.978 199.614 478.119 198.007 475.275 195.146C472.43 192.286 470.832 188.406 470.832 184.36V87.07C470.832 82.5146 469.032 78.1458 465.829 74.9247C462.625 71.7035 458.281 69.8939 453.751 69.8939C449.22 69.8939 444.876 71.7035 441.673 74.9247C438.469 78.1458 436.67 82.5146 436.67 87.07V184.36C436.67 188.406 435.071 192.286 432.227 195.146C429.382 198.007 425.523 199.614 421.5 199.614H421.5Z" fill="white"/>
</svg>
