<svg width="1043" height="1043" viewBox="0 0 1043 1043" fill="none" xmlns="http://www.w3.org/2000/svg">
<path d="M205.519 722.748C206.005 718.092 206.597 712.707 207.296 706.593C207.995 700.479 208.751 694.077 209.564 687.387C210.366 680.703 211.185 673.977 212.02 667.211C212.855 660.444 213.674 654.111 214.476 648.21C211.622 653.738 208.74 659.287 205.83 664.858L197.545 680.733C194.925 685.734 192.526 690.266 190.348 694.329C188.17 698.393 186.407 701.683 185.059 704.2C183.815 705.878 182.576 707.473 181.342 708.987C180.201 710.392 178.97 711.722 177.658 712.968C176.57 714.011 175.363 714.922 174.063 715.682C173.016 716.325 171.818 716.677 170.592 716.702C169.321 716.769 168.061 716.426 166.998 715.723C166.55 715.387 166.194 714.944 165.961 714.434C165.728 713.924 165.625 713.363 165.663 712.803C165.646 712.546 165.646 712.288 165.663 712.03C165.693 711.765 165.759 711.504 165.86 711.257C165.543 703.58 165.3 695.826 165.131 687.996C164.962 680.166 164.883 672.467 164.893 664.899V659.504C164.893 657.71 164.893 655.959 164.975 654.223C162.792 659.092 160.448 664.154 157.942 669.407C155.437 674.66 152.798 679.842 150.025 684.953C147.296 690.069 144.466 695.004 141.535 699.758C138.604 704.512 135.694 708.814 132.807 712.664C130.201 716.176 127.324 719.476 124.202 722.534C121.871 724.94 119.118 726.892 116.08 728.292C114.163 729.099 112.19 729.764 110.177 730.282C108.724 730.658 107.232 730.862 105.731 730.891C104.199 731.007 102.673 730.592 101.408 729.715C100.968 729.375 100.612 728.938 100.368 728.437C100.123 727.936 99.9975 727.385 100 726.828C100.08 725.27 100.676 723.785 101.695 722.608C102.946 721.059 104.593 719.882 106.46 719.203C108.943 718.227 111.651 716.074 114.582 712.746C117.893 708.918 120.933 704.861 123.678 700.605C126.8 695.84 129.952 690.535 133.134 684.689C136.317 678.844 139.401 672.919 142.386 666.915C145.377 660.883 148.191 654.996 150.827 649.255C153.464 643.514 155.808 638.304 157.86 633.627C159.907 628.971 161.591 625.086 162.912 621.972C164.23 618.862 165.057 616.93 165.368 616.165C166.003 614.618 167.128 613.325 168.57 612.488C169.814 611.761 171.224 611.37 172.663 611.353C174.606 611.353 175.955 611.879 176.708 612.932C177.461 613.985 177.838 615.868 177.838 618.583C178.269 621.988 178.635 625.193 178.935 628.198C179.235 631.203 179.489 634.29 179.696 637.46C179.909 640.618 180.059 644.026 180.147 647.684C180.234 651.341 180.272 655.55 180.261 660.31C180.261 663.726 180.196 667.488 180.065 671.595C179.934 675.702 179.879 680.297 179.901 685.38C186.369 673.585 192.1 663.18 197.095 654.165C202.089 645.15 206.425 637.6 210.104 631.513C212.912 626.713 216.03 622.102 219.438 617.711C221.965 614.596 223.985 613.039 225.497 613.039H226.062C226.222 613.056 226.384 613.056 226.545 613.039C226.707 613.013 226.871 612.999 227.036 612.998C228.329 612.998 229.353 613.82 230.106 615.465C230.931 617.468 231.317 619.625 231.236 621.791C231.023 624.445 230.701 627.735 230.27 631.661C229.839 635.587 229.339 639.93 228.772 644.69C228.226 649.428 227.62 654.42 226.954 659.668C226.288 664.916 225.641 670.125 225.014 675.296C224.359 680.467 223.747 685.474 223.18 690.316C222.612 695.157 222.148 699.58 221.788 703.583C221.679 704.296 221.625 705.016 221.624 705.738V707.967C221.624 709.382 221.624 710.796 221.706 712.236C221.788 713.675 221.788 715.09 221.788 716.497C221.788 718.142 221.709 719.787 221.55 721.432C221.413 722.996 220.959 724.516 220.216 725.898C219.418 727.312 218.222 728.457 216.777 729.188C214.756 730.123 212.54 730.555 210.317 730.447C209.648 730.472 208.984 730.336 208.378 730.05C207.773 729.763 207.244 729.335 206.838 728.802C205.964 727.639 205.525 725.621 205.519 722.748Z" fill="white"/>
<path d="M277.462 669.407C281.932 669.407 285.273 670.504 287.483 672.697C289.694 674.89 290.786 677.906 290.758 681.745C290.705 684.231 290.098 686.673 288.982 688.893C287.457 691.808 285.369 694.388 282.841 696.484C279.246 699.502 275.337 702.122 271.182 704.299C265.291 707.425 259.18 710.116 252.9 712.351C253.024 713.115 253.314 713.842 253.748 714.482C254.182 715.121 254.751 715.657 255.413 716.052C257.11 717.016 259.043 717.478 260.989 717.385C263.677 717.357 266.351 716.99 268.947 716.291C271.806 715.549 274.613 714.614 277.347 713.494C280.123 712.351 282.833 711.126 285.469 709.793C288.106 708.461 290.496 707.21 292.625 706.018C294.754 704.825 296.531 703.805 297.955 702.933C299.38 702.061 300.346 701.527 300.829 701.288C301.226 701.001 301.682 700.807 302.163 700.721C302.524 700.668 302.888 700.64 303.252 700.638C303.831 700.614 304.402 700.769 304.89 701.082C305.307 701.375 305.675 701.734 305.979 702.143C306.264 702.533 306.47 702.974 306.585 703.443C306.68 703.828 306.733 704.223 306.74 704.619C306.733 705.204 306.681 705.787 306.585 706.363C306.379 707.223 305.962 708.017 305.373 708.674C305.103 708.946 304.202 709.678 302.663 710.871C301.124 712.063 299.151 713.47 296.719 715.09C294.287 716.71 291.479 718.43 288.278 720.247C284.98 722.104 281.579 723.771 278.093 725.24C274.459 726.772 270.718 728.034 266.9 729.015C263.158 730.001 259.307 730.506 255.438 730.521C252.461 730.578 249.511 729.936 246.825 728.645C244.366 727.44 242.189 725.724 240.439 723.611C238.66 721.452 237.304 718.974 236.443 716.307C235.519 713.506 235.054 710.573 235.068 707.622C235.118 705.006 235.583 702.416 236.443 699.947C237.435 697.002 238.762 694.181 240.398 691.541C242.231 688.591 244.357 685.835 246.743 683.316C249.268 680.618 252.105 678.232 255.192 676.209C258.396 674.118 261.859 672.459 265.492 671.274C269.356 670.01 273.398 669.379 277.462 669.407V669.407ZM274.539 680.61C274.3 680.557 274.056 680.529 273.81 680.527H273.082C271.106 680.512 269.151 680.928 267.351 681.745C265.562 682.559 263.905 683.641 262.438 684.953C260.949 686.304 259.624 687.828 258.492 689.493C257.337 691.138 256.298 692.783 255.356 694.428C254.495 695.964 253.725 697.549 253.047 699.174C252.425 700.696 251.958 701.963 251.631 702.991C253.522 702.02 255.471 700.91 257.493 699.701C259.515 698.491 261.415 697.233 263.224 696.123C265.034 695.012 266.548 693.959 267.875 693.038C269.201 692.117 270.118 691.5 270.658 691.171C272.587 690.089 274.288 688.642 275.669 686.91C276.459 685.922 276.938 684.719 277.044 683.456C277.061 683.096 277.001 682.736 276.868 682.402C276.735 682.067 276.533 681.764 276.275 681.514C275.802 681.042 275.196 680.727 274.539 680.61Z" fill="white"/>
<path d="M384.128 709.11C381.59 711.975 378.818 714.622 375.842 717.023C372.767 719.544 369.513 721.837 366.107 723.883C362.983 725.785 359.695 727.401 356.282 728.711C353.506 729.843 350.55 730.465 347.554 730.545C345.251 730.645 342.997 729.86 341.25 728.349C339.613 726.885 338.794 724.396 338.794 720.881C338.859 717.942 339.294 715.024 340.087 712.195C338.535 714.486 336.779 716.631 334.839 718.602C332.66 720.834 330.247 722.823 327.643 724.533C324.828 726.375 321.783 727.836 318.587 728.876C315.063 730.007 311.381 730.563 307.682 730.521C305.954 730.524 304.232 730.331 302.548 729.945C300.989 729.604 299.517 728.944 298.225 728.004C296.946 727.031 295.92 725.761 295.237 724.302C294.432 722.494 294.045 720.525 294.107 718.545C294.107 718.487 294.213 717.665 294.426 716.077C294.897 713.505 295.587 710.979 296.489 708.526C297.647 705.088 299.437 700.636 301.86 695.168C304.284 689.701 307.706 683.069 312.127 675.271C313.022 673.474 314.375 671.947 316.049 670.846C317.496 669.956 319.159 669.487 320.855 669.489C321.644 669.492 322.429 669.586 323.197 669.769C323.993 669.952 324.758 670.254 325.465 670.665C326.133 671.053 326.709 671.584 327.151 672.22C327.583 672.854 327.809 673.607 327.798 674.375C327.801 674.898 327.718 675.417 327.552 675.913C327.121 677.185 326.538 678.4 325.817 679.532C324.924 681.021 323.893 682.724 322.706 684.64C321.518 686.557 320.249 688.638 318.948 690.858C317.646 693.079 316.401 695.374 315.271 697.759C314.149 700.117 313.176 702.542 312.357 705.022C311.595 707.342 311.149 709.755 311.03 712.195C311.03 713.148 311.315 714.08 311.849 714.868C312.151 715.285 312.556 715.617 313.024 715.83C313.492 716.044 314.006 716.131 314.518 716.085C318.065 716.074 321.537 715.063 324.54 713.165C327.768 711.166 330.712 708.736 333.292 705.944C335.987 703.045 338.433 699.922 340.603 696.608C342.787 693.279 344.607 690.233 346.064 687.47C347.115 685.568 348.018 683.588 348.766 681.547C349.499 679.549 350.349 677.596 351.312 675.699C352.127 674.056 353.191 672.549 354.464 671.233C355.045 670.646 355.739 670.185 356.503 669.878C357.268 669.571 358.087 669.425 358.91 669.448C359.767 669.404 360.624 669.549 361.42 669.871C362.216 670.194 362.932 670.686 363.52 671.315C364.638 672.528 365.246 674.128 365.215 675.781C365.108 677.177 364.739 678.539 364.126 679.795C363.397 681.506 362.488 683.447 361.375 685.644C360.261 687.84 359.074 690.176 357.78 692.668C356.487 695.16 355.283 697.685 354.186 700.26C353.12 702.719 352.201 705.241 351.435 707.811C350.745 710.033 350.378 712.343 350.346 714.671C350.346 716.62 351.525 717.591 353.9 717.591C356.045 717.485 358.153 716.989 360.122 716.126C362.852 715.019 365.466 713.642 367.925 712.014C370.799 710.144 373.535 708.069 376.112 705.804C378.773 703.481 381.195 700.897 383.341 698.088L384.128 709.11Z" fill="white"/>
<path d="M473.96 653.491C478.288 651.767 482.5 649.761 486.569 647.486C489.762 645.714 492.792 643.661 495.624 641.35C497.728 639.667 499.579 637.686 501.118 635.469C502.236 633.957 502.893 632.151 503.009 630.271C502.946 629.576 502.658 628.92 502.19 628.404C501.515 627.59 500.679 626.926 499.734 626.454C498.414 625.783 497.017 625.277 495.575 624.949C493.665 624.519 491.711 624.314 489.753 624.341C484.185 624.296 478.636 625.021 473.264 626.496C468.51 627.812 463.886 629.566 459.452 631.735C455.627 633.597 451.951 635.753 448.456 638.184C445.28 640.437 442.613 642.4 440.457 644.073C439.217 645.004 438.043 646.021 436.945 647.116C435.946 648.12 434.974 649.014 434.03 649.798C433.111 650.569 432.092 651.211 431.001 651.706C429.773 652.221 428.45 652.471 427.12 652.438C425.217 652.55 423.338 651.966 421.831 650.793C421.193 650.233 420.69 649.535 420.359 648.751C420.029 647.968 419.88 647.119 419.923 646.269C419.923 643.939 420.837 641.471 422.666 638.866C424.819 635.91 427.377 633.274 430.264 631.036C433.832 628.227 437.647 625.749 441.661 623.633C446.196 621.181 450.912 619.083 455.768 617.357C460.904 615.547 466.163 614.109 471.504 613.055C476.921 611.973 482.429 611.422 487.952 611.41C492.877 611.343 497.793 611.815 502.616 612.817C506.156 613.523 509.556 614.813 512.678 616.633C515.067 618.031 517.066 620.012 518.491 622.391C519.753 624.589 520.409 627.084 520.391 629.621C520.301 632.517 519.404 635.33 517.804 637.74C515.783 640.91 513.299 643.758 510.435 646.187C506.82 649.282 502.894 651.989 498.719 654.264C493.723 657.008 488.522 659.356 483.163 661.288C487.989 662.803 492.652 664.8 497.081 667.252C500.198 668.974 503.034 671.165 505.49 673.75C507.367 675.733 508.768 678.122 509.583 680.733C510.285 683.137 510.641 685.63 510.64 688.136C510.591 692.034 509.518 695.851 507.528 699.199C505.277 703.079 502.393 706.552 498.997 709.472C495.033 712.926 490.697 715.922 486.069 718.405C480.856 721.233 475.407 723.597 469.784 725.47C463.718 727.492 457.504 729.037 451.199 730.093C444.655 731.198 438.03 731.748 431.394 731.738C428.992 731.735 426.592 731.597 424.205 731.327C421.934 731.089 419.697 730.601 417.532 729.871C415.716 729.276 414.043 728.306 412.62 727.025C411.994 726.433 411.5 725.714 411.173 724.916C410.845 724.117 410.691 723.257 410.72 722.394C410.708 722.191 410.708 721.988 410.72 721.785C410.72 721.596 410.786 721.374 410.843 721.103C411.056 720.667 411.302 720.14 411.572 719.515C411.996 718.734 412.643 718.097 413.431 717.689C414.86 716.937 416.404 716.429 417.999 716.184C420.95 715.714 423.936 715.51 426.923 715.575C433.686 703.199 439.267 692.531 443.667 683.571C448.066 674.611 451.742 667.235 454.695 661.445C456.867 656.99 459.366 652.704 462.17 648.622C464.19 645.88 466.171 644.509 468.114 644.509C468.966 644.509 469.812 644.648 470.62 644.92C471.385 645.169 472.106 645.538 472.756 646.014C473.372 646.467 473.883 647.048 474.255 647.717C474.632 648.401 474.827 649.172 474.82 649.954C474.422 650.419 474.169 650.991 474.091 651.599C474.025 652.15 473.96 652.792 473.96 653.491ZM469.514 668.996C467.091 674.523 464.815 679.477 462.686 683.859C460.557 688.24 458.551 692.259 456.668 695.917C454.785 699.569 452.995 702.977 451.297 706.141C449.6 709.305 447.94 712.403 446.319 715.436C452.25 714.959 458.115 713.856 463.816 712.145C468.768 710.7 473.52 708.638 477.964 706.009C481.604 703.892 484.813 701.101 487.42 697.784C489.596 695.064 490.804 691.691 490.851 688.202C490.824 686.553 490.482 684.925 489.844 683.406C489.03 681.522 487.863 679.813 486.405 678.372C484.446 676.446 482.244 674.787 479.855 673.437C476.585 671.595 473.129 670.107 469.547 668.996H469.514Z" fill="white"/>
<path d="M604.271 705.121C603.305 706.042 602.011 707.309 600.39 708.938C598.769 710.566 596.927 712.318 594.855 714.21C592.784 716.102 590.573 718.018 588.232 719.968C585.938 721.856 583.535 723.606 581.035 725.207C578.738 726.695 576.319 727.986 573.806 729.065C571.69 730.012 569.407 730.524 567.092 730.57C565.395 730.616 563.718 730.192 562.245 729.344C560.913 728.549 559.77 727.471 558.896 726.186C557.982 724.839 557.312 723.341 556.915 721.761C556.482 720.104 556.265 718.398 556.268 716.686C556.267 715.557 556.349 714.43 556.514 713.313C556.665 712.243 556.94 711.194 557.333 710.188C555.662 712.458 553.752 714.799 551.601 717.212C549.502 719.598 547.204 721.799 544.732 723.792C542.373 725.714 539.798 727.351 537.06 728.67C534.529 729.908 531.754 730.56 528.939 730.578C527.27 730.546 525.615 730.269 524.026 729.756C522.107 729.155 520.314 728.204 518.737 726.951C517.007 725.579 515.575 723.866 514.529 721.917C513.334 719.586 512.751 716.987 512.834 714.366C512.89 711.686 513.23 709.02 513.849 706.412C514.587 703.119 515.614 699.899 516.919 696.789C518.353 693.339 520.11 690.034 522.168 686.918C524.286 683.682 526.827 680.747 529.725 678.191C532.684 675.588 536.04 673.478 539.664 671.94C543.61 670.3 547.847 669.485 552.117 669.547C554.222 669.508 556.32 669.808 558.331 670.435C559.898 670.941 561.414 671.594 562.859 672.384C564.194 673.199 565.44 674.153 566.576 675.23C567.493 674.737 568.435 674.276 569.409 673.849C570.238 673.461 571.088 673.121 571.955 672.829C572.694 672.56 573.47 672.41 574.256 672.384C576.078 672.309 577.864 672.916 579.267 674.087C579.839 674.52 580.309 675.074 580.646 675.709C580.983 676.344 581.177 677.045 581.215 677.764C581.225 678.065 581.197 678.366 581.133 678.66C580.866 679.691 580.448 680.991 579.881 682.559C579.313 684.127 578.68 685.871 577.981 687.79C577.285 689.715 576.565 691.722 575.844 693.803C575.124 695.884 574.452 697.916 573.863 699.931C573.273 701.946 572.782 703.813 572.406 705.573C572.063 707.052 571.874 708.563 571.841 710.081C571.794 711.468 572.074 712.846 572.659 714.103C572.908 714.611 573.301 715.033 573.79 715.314C574.279 715.596 574.84 715.724 575.402 715.682C576.404 715.635 577.384 715.371 578.276 714.909C579.524 714.313 580.726 713.623 581.87 712.845C583.164 711.973 584.498 710.983 585.874 709.875C587.241 708.773 588.576 707.646 589.869 706.511C592.888 703.808 596.094 700.721 599.489 697.249C600.178 696.618 601.064 696.246 601.995 696.197C602.543 696.206 603.079 696.357 603.553 696.635C604.026 696.913 604.42 697.309 604.697 697.784C605.42 698.816 605.804 700.05 605.794 701.313C605.811 702.018 605.685 702.72 605.423 703.375C605.161 704.029 604.769 704.624 604.271 705.121V705.121ZM548.269 684.171C545.688 684.181 543.152 684.852 540.9 686.121C538.513 687.435 536.378 689.168 534.596 691.237C532.768 693.353 531.294 695.753 530.232 698.343C529.174 700.847 528.618 703.536 528.595 706.256C528.596 707.383 528.664 708.509 528.799 709.628C528.919 710.744 529.232 711.83 529.725 712.836C530.2 713.817 530.909 714.664 531.788 715.304C532.853 716.004 534.112 716.344 535.382 716.275C536.89 716.159 538.334 715.611 539.541 714.695C541.297 713.492 542.941 712.132 544.454 710.632C546.211 708.915 547.87 707.1 549.423 705.195C551.061 703.221 552.516 701.285 553.787 699.388C554.93 697.742 555.982 696.034 556.939 694.272C557.569 693.273 557.981 692.152 558.151 690.982C558.15 689.949 557.774 688.952 557.095 688.177C556.366 687.315 555.493 686.585 554.516 686.022C553.488 685.432 552.387 684.981 551.241 684.681C550.274 684.395 549.276 684.226 548.269 684.179V684.171Z" fill="white"/>
<path d="M608.798 679.228C609.665 677.168 611.057 675.375 612.835 674.029C614.212 672.979 615.88 672.384 617.608 672.327C618.905 672.33 620.15 672.841 621.08 673.75C621.617 674.296 622.032 674.952 622.298 675.672C622.563 676.393 622.673 677.162 622.619 677.928C622.613 678.694 622.53 679.457 622.373 680.207C622.184 681.103 621.888 681.973 621.489 682.798C622.963 681.013 624.677 679.444 626.582 678.134C628.884 676.49 631.331 675.061 633.893 673.865C636.549 672.593 639.307 671.547 642.138 670.739C644.748 669.958 647.454 669.548 650.178 669.522C652.719 669.426 655.223 670.149 657.325 671.587C659.241 672.968 660.199 675.31 660.199 678.611C660.184 680.672 659.884 682.72 659.307 684.698C658.698 686.863 657.929 688.98 657.006 691.031C656.064 693.145 655.008 695.218 653.854 697.241C652.699 699.265 651.553 701.181 650.415 702.999L647.304 707.934C646.362 709.423 645.625 710.648 645.085 711.627C644.391 712.471 644.02 713.535 644.037 714.629C644.028 715.044 644.171 715.448 644.438 715.765C644.603 715.939 644.805 716.073 645.029 716.158C645.253 716.242 645.494 716.273 645.732 716.25C646.165 716.244 646.598 716.205 647.026 716.135C647.668 715.986 648.272 715.706 648.802 715.312C651.866 714.158 654.85 712.801 657.735 711.249C660.772 709.604 663.703 707.909 666.503 706.1C669.304 704.29 671.874 702.472 674.216 700.655C676.558 698.837 678.514 697.208 680.078 695.72C680.457 695.37 680.895 695.092 681.372 694.897C681.759 694.748 682.169 694.667 682.584 694.658C683 694.642 683.414 694.73 683.788 694.914C684.162 695.097 684.485 695.371 684.729 695.711C685.261 696.5 685.528 697.44 685.49 698.393C685.413 700.358 684.874 702.277 683.918 703.994C682.694 706.251 680.999 708.215 678.948 709.752C675.881 711.945 673.064 713.974 670.499 715.839C667.934 717.703 665.322 719.422 662.663 720.996C659.894 722.643 657.035 724.134 654.099 725.462C650.624 726.998 647.046 728.287 643.39 729.32C642.129 729.714 640.847 730.038 639.55 730.29C638.498 730.496 637.429 730.606 636.357 730.619C633.5 730.619 631.445 729.797 630.094 728.218C628.743 726.638 628.113 724.393 628.113 721.522C628.113 721.144 628.113 720.782 628.154 720.428C628.194 720.075 628.219 719.68 628.276 719.252C628.434 717.351 628.884 715.487 629.611 713.725C630.438 711.617 631.381 709.558 632.436 707.556C633.527 705.45 634.701 703.353 635.956 701.263C637.212 699.174 638.355 697.2 639.387 695.341C640.435 693.474 641.311 691.804 642.015 690.348C642.613 689.244 642.97 688.024 643.063 686.77C643.081 686.02 642.838 685.287 642.375 684.698C642.12 684.409 641.802 684.184 641.445 684.041C641.088 683.898 640.703 683.841 640.32 683.875C636.812 683.893 633.389 684.967 630.495 686.96C627.299 689.073 624.38 691.582 621.808 694.428C619.113 697.432 616.629 700.62 614.374 703.969C612.114 707.325 610.122 710.341 608.397 713.017C607.291 714.871 606.304 716.794 605.442 718.775C604.557 720.807 603.624 722.707 602.658 724.459C601.792 726.077 600.688 727.555 599.383 728.843C598.775 729.424 598.058 729.879 597.274 730.179C596.489 730.48 595.653 730.621 594.814 730.595C593.988 730.636 593.163 730.497 592.396 730.187C591.629 729.878 590.937 729.405 590.369 728.802C589.281 727.607 588.694 726.036 588.731 724.418C588.878 722.88 589.26 721.373 589.861 719.951C590.614 717.895 591.583 715.515 592.768 712.812C593.952 710.108 595.287 707.183 596.771 704.035C598.256 700.915 599.738 697.828 601.217 694.774C602.696 691.719 604.11 688.838 605.458 686.129C606.828 683.436 607.942 681.136 608.798 679.228Z" fill="white"/>
<path d="M721.941 712.03C721.885 712.157 721.857 712.295 721.859 712.433C721.863 712.574 721.838 712.714 721.785 712.845C721.803 713.899 722.049 714.938 722.505 715.888C722.687 716.362 723.011 716.769 723.431 717.051C723.852 717.334 724.349 717.479 724.855 717.467C725.185 717.486 725.514 717.433 725.821 717.311C729.117 716.283 732.257 714.808 735.155 712.927C738.314 710.916 741.352 708.719 744.251 706.347C747.055 704.053 749.739 701.615 752.291 699.043C754.737 696.548 756.77 694.327 758.391 692.38C758.677 691.974 759.052 691.639 759.486 691.4C759.92 691.161 760.402 691.023 760.896 690.998C761.318 691.009 761.731 691.117 762.103 691.316C762.475 691.514 762.796 691.797 763.041 692.142C763.699 693.03 764.026 694.121 763.967 695.226C763.928 696.485 763.65 697.724 763.148 698.878C762.441 700.52 761.504 702.052 760.364 703.427C757.187 706.942 753.929 710.325 750.588 713.577C747.412 716.677 744.037 719.565 740.485 722.221C737.329 724.595 733.928 726.622 730.341 728.267C727.24 729.723 723.865 730.5 720.442 730.545C716.507 730.545 713.409 729.421 711.149 727.173C708.89 724.925 707.757 721.555 707.752 717.064V716.242C707.751 715.965 707.778 715.69 707.834 715.419C706.567 717.719 704.96 719.813 703.068 721.629C701.145 723.484 699 725.092 696.682 726.416C694.411 727.721 691.995 728.756 689.486 729.501C687.154 730.212 684.733 730.583 682.297 730.603C680.431 730.62 678.575 730.343 676.795 729.78C675.171 729.267 673.69 728.376 672.472 727.181C671.202 725.898 670.237 724.343 669.647 722.633C668.921 720.492 668.577 718.239 668.632 715.978C668.61 711.573 669.321 707.194 670.736 703.024C672.092 699.031 673.967 695.237 676.312 691.738C678.591 688.349 681.262 685.242 684.27 682.485C687.132 679.853 690.248 677.514 693.571 675.502C696.585 673.669 699.796 672.185 703.142 671.077C705.955 670.114 708.899 669.595 711.87 669.538C714.592 669.467 717.296 669.992 719.795 671.077C720.902 671.643 721.911 672.385 722.784 673.273C722.997 672.779 723.218 672.327 723.431 671.891C723.971 670.591 724.454 669.423 724.888 668.519C725.322 667.614 725.609 666.873 725.772 666.446C725.936 666.018 726.394 664.801 727.148 663.04C727.901 661.28 728.785 659.158 729.776 656.748C730.767 654.338 731.847 651.755 733.01 648.992C734.173 646.228 735.229 643.637 736.203 641.202L738.708 634.91C739.404 633.15 739.838 632.023 739.994 631.538C740.376 630.176 740.892 628.857 741.533 627.598C742.144 626.399 742.918 625.291 743.834 624.308C744.723 623.362 745.777 622.59 746.945 622.029C748.215 621.454 749.597 621.173 750.989 621.207C752.781 621.138 754.552 621.602 756.082 622.539C757.425 623.436 758.104 625.155 758.104 627.696C758.098 628.765 757.961 629.829 757.695 630.863C757.425 631.949 757.114 633.002 756.77 634.03C756.426 635.058 756.041 636.078 755.64 637.073C755.239 638.069 754.87 639.014 754.543 639.878C751.846 645.29 749.019 651.177 746.061 657.538C743.102 663.899 740.166 670.298 737.251 676.736C734.347 683.173 731.572 689.452 728.924 695.571C726.277 701.691 723.949 707.177 721.941 712.03ZM719.484 680.281C716 680.445 712.563 681.158 709.299 682.395C705.223 683.798 701.429 685.923 698.099 688.67C694.635 691.543 691.719 695.024 689.494 698.944C687.086 703.224 685.717 708.015 685.498 712.927C685.498 715.09 686.407 716.168 688.241 716.168C690.474 716.175 692.682 715.693 694.709 714.753C696.827 713.759 698.797 712.474 700.563 710.936C702.478 709.286 704.225 707.448 705.779 705.45C707.392 703.4 708.89 701.261 710.265 699.043C711.641 696.849 712.88 694.656 713.982 692.462C715.088 690.274 716.046 688.226 716.848 686.334L717.986 683.818C718.412 682.748 718.928 681.58 719.517 680.281H719.484Z" fill="white"/>
<path d="M787.161 669.407C791.631 669.407 794.972 670.504 797.182 672.697C799.393 674.89 800.485 677.906 800.457 681.745C800.404 684.231 799.796 686.673 798.681 688.893C797.155 691.809 795.065 694.391 792.532 696.484C788.936 699.526 785.021 702.165 780.857 704.356C774.957 707.49 768.839 710.19 762.55 712.433C762.674 713.196 762.963 713.923 763.395 714.562C763.828 715.201 764.394 715.738 765.055 716.135C766.751 717.098 768.684 717.56 770.63 717.467C773.321 717.44 775.998 717.073 778.597 716.373C781.456 715.631 784.263 714.697 786.997 713.577C789.773 712.433 792.483 711.208 795.119 709.875C797.755 708.543 800.146 707.292 802.275 706.1C804.404 704.907 806.18 703.887 807.605 703.015C808.535 702.419 809.494 701.87 810.479 701.37C810.876 701.083 811.332 700.889 811.813 700.803C812.174 700.749 812.538 700.722 812.902 700.72C813.481 700.693 814.053 700.849 814.54 701.165C814.96 701.453 815.329 701.812 815.629 702.226C815.919 702.612 816.128 703.055 816.243 703.525C816.338 703.91 816.391 704.305 816.398 704.702C816.391 705.286 816.339 705.869 816.243 706.445C816.037 707.307 815.617 708.102 815.023 708.757C814.755 709.031 813.855 709.763 812.321 710.953C810.787 712.143 808.806 713.549 806.377 715.172C803.921 716.817 801.137 718.512 797.936 720.33C794.638 722.187 791.237 723.854 787.75 725.322C784.116 726.853 780.375 728.115 776.558 729.098C772.816 730.083 768.964 730.588 765.096 730.603C762.121 730.66 759.174 730.018 756.491 728.728C754.032 727.522 751.855 725.806 750.105 723.694C748.323 721.536 746.967 719.057 746.109 716.39C745.185 713.588 744.72 710.655 744.734 707.704C744.784 705.089 745.249 702.498 746.109 700.03C747.098 697.083 748.425 694.261 750.064 691.623C751.897 688.673 754.023 685.917 756.409 683.398C758.934 680.7 761.771 678.314 764.858 676.291C768.062 674.201 771.525 672.541 775.158 671.356C779.028 670.061 783.082 669.402 787.161 669.407V669.407ZM784.263 680.61C784.023 680.557 783.779 680.529 783.534 680.527H782.805C780.83 680.512 778.874 680.928 777.074 681.745C775.285 682.559 773.629 683.641 772.162 684.953C770.668 686.293 769.338 687.806 768.199 689.46C767.042 691.138 766.005 692.802 765.088 694.453C764.23 695.989 763.461 697.573 762.787 699.199C762.165 700.72 761.698 701.987 761.371 703.015C763.254 702.045 765.208 700.948 767.233 699.725C769.258 698.502 771.168 697.31 772.964 696.147C774.738 695.012 776.285 693.984 777.606 693.063C778.933 692.142 779.858 691.525 780.398 691.196C782.326 690.114 784.028 688.667 785.409 686.935C786.199 685.946 786.678 684.744 786.784 683.48C786.799 683.121 786.738 682.762 786.605 682.427C786.472 682.093 786.271 681.79 786.015 681.539C785.54 681.055 784.928 680.73 784.263 680.61V680.61Z" fill="white"/>
<path d="M853.348 676.958C853.329 678.825 853.14 680.686 852.783 682.518C852.424 684.512 851.799 686.449 850.925 688.276C850.13 689.974 849.002 691.493 847.609 692.742C846.222 693.95 844.432 694.587 842.598 694.527C841.877 694.624 841.145 694.451 840.543 694.042C840.191 693.545 840.031 692.937 840.093 692.331C840.093 691.845 840.093 691.13 840.093 690.184C840.093 689.238 840.093 688.325 840.093 687.461C840.115 686.621 839.979 685.784 839.691 684.994C839.421 684.319 838.75 683.982 837.669 683.982C836.18 684.062 834.741 684.551 833.51 685.397C831.842 686.453 830.296 687.691 828.9 689.09C827.288 690.703 825.789 692.426 824.414 694.247C822.997 696.119 821.691 698.071 820.5 700.095C819.409 701.926 818.489 703.853 817.749 705.853C817.148 707.352 816.807 708.943 816.742 710.558C816.701 711.405 816.858 712.251 817.201 713.026C817.544 713.802 818.062 714.486 818.715 715.024C820.262 716.187 822.165 716.769 824.094 716.669C826.726 716.634 829.339 716.224 831.856 715.452C834.653 714.616 837.389 713.586 840.043 712.368C842.77 711.117 845.39 709.768 847.928 708.304C850.466 706.84 852.758 705.45 854.838 704.126C856.918 702.802 858.645 701.658 860.045 700.712C860.933 700.085 861.851 699.503 862.796 698.969C863.552 698.559 864.394 698.336 865.253 698.319C865.829 698.306 866.398 698.46 866.89 698.763C867.321 699.038 867.692 699.399 867.979 699.824C868.249 700.181 868.457 700.581 868.593 701.008C868.691 701.396 868.746 701.793 868.757 702.193C868.746 702.777 868.692 703.36 868.593 703.937C868.39 704.798 867.973 705.593 867.381 706.248C867.114 706.577 866.238 707.399 864.753 708.716C863.268 710.032 861.358 711.589 859.022 713.387C856.68 715.175 853.987 717.094 850.941 719.145C847.811 721.219 844.545 723.077 841.165 724.705C837.684 726.383 834.076 727.781 830.374 728.884C826.807 729.964 823.104 730.518 819.378 730.529C816.881 730.572 814.398 730.131 812.067 729.229C810.054 728.434 808.226 727.23 806.696 725.693C805.252 724.198 804.137 722.416 803.421 720.461C802.664 718.451 802.275 716.319 802.275 714.169C802.36 711.29 802.933 708.448 803.97 705.763C805.205 702.377 806.777 699.126 808.661 696.057C810.743 692.629 813.092 689.373 815.686 686.318C818.319 683.188 821.256 680.331 824.455 677.788C827.48 675.38 830.794 673.362 834.32 671.784C837.584 670.304 841.121 669.531 844.702 669.514C845.833 669.506 846.961 669.641 848.059 669.917C849.044 670.159 849.975 670.586 850.802 671.175C851.608 671.773 852.248 672.569 852.66 673.487C853.141 674.579 853.375 675.764 853.348 676.958V676.958Z" fill="white"/>
<path d="M895.055 669.489C897.262 669.519 899.458 669.795 901.605 670.312C903.933 670.838 906.15 671.774 908.154 673.075C910.172 674.401 911.87 676.163 913.124 678.233C914.509 680.632 915.196 683.373 915.106 686.145C915.076 688.016 914.859 689.879 914.459 691.706C913.986 693.947 913.337 696.147 912.518 698.286C913.008 698.9 913.649 699.376 914.377 699.668C915.099 699.942 915.865 700.078 916.637 700.071C917.945 700.028 919.228 699.696 920.395 699.1C921.881 698.385 923.302 697.543 924.644 696.583C926.162 695.5 927.619 694.333 929.008 693.087C930.454 691.788 931.819 690.488 933.102 689.189C934.395 687.889 935.558 686.663 936.614 685.495C937.67 684.328 938.546 683.349 939.242 682.534C939.421 682.351 939.635 682.205 939.872 682.108C940.108 682.01 940.362 681.962 940.618 681.967C941.024 681.986 941.419 682.104 941.771 682.308C942.123 682.513 942.421 682.799 942.64 683.143C943.283 684.114 943.594 685.269 943.524 686.433C943.453 688.127 943.026 689.786 942.271 691.303C941.134 693.522 939.554 695.482 937.629 697.06C936.336 698.464 934.854 700.087 933.183 701.93C931.513 703.771 929.73 705.507 927.845 707.128C926.025 708.697 924.049 710.075 921.95 711.241C920.083 712.329 917.969 712.918 915.81 712.951C914.42 712.953 913.038 712.733 911.716 712.302C910.283 711.804 908.933 711.091 907.712 710.188C905.81 713.182 903.589 715.959 901.089 718.471C898.612 720.957 895.827 723.113 892.803 724.886C889.717 726.69 886.415 728.094 882.978 729.065C879.307 730.087 875.513 730.594 871.704 730.57C869.919 730.522 868.149 730.22 866.448 729.674C864.389 729.038 862.462 728.035 860.758 726.712C858.879 725.248 857.324 723.408 856.189 721.308C854.879 718.81 854.239 716.012 854.33 713.19C854.392 710.563 854.743 707.95 855.378 705.401C856.146 702.178 857.216 699.036 858.572 696.016C860.076 692.663 861.888 689.457 863.983 686.441C866.185 683.254 868.81 680.384 871.786 677.912C874.889 675.343 878.379 673.288 882.127 671.825C886.249 670.229 890.637 669.437 895.055 669.489V669.489ZM890.846 683.776C888.288 683.782 885.773 684.438 883.535 685.685C881.176 686.972 879.067 688.677 877.313 690.719C875.497 692.821 874.037 695.208 872.99 697.784C871.916 700.341 871.359 703.086 871.352 705.861C871.356 706.987 871.436 708.111 871.59 709.225C871.742 710.411 872.085 711.564 872.605 712.639C873.114 713.691 873.877 714.598 874.824 715.279C875.975 716.03 877.333 716.398 878.704 716.332C881.246 716.317 883.739 715.63 885.934 714.342C888.309 712.994 890.429 711.238 892.197 709.151C894.046 706.99 895.521 704.532 896.561 701.88C897.631 699.271 898.187 696.477 898.199 693.655C898.193 692.531 898.125 691.407 897.994 690.291C897.874 689.17 897.546 688.082 897.028 687.083C896.509 686.099 895.741 685.271 894.801 684.681C893.593 684.014 892.223 683.7 890.846 683.776V683.776Z" fill="white"/>
<path fill-rule="evenodd" clip-rule="evenodd" d="M596.165 311H446.835C442.252 310.999 437.713 311.907 433.478 313.671C429.243 315.435 425.395 318.021 422.155 321.281L338.221 405.682C334.981 408.94 332.41 412.808 330.656 417.065C328.903 421.322 328 425.884 328 430.492C328 435.1 328.903 439.663 330.656 443.92C332.41 448.177 334.981 452.045 338.221 455.303L422.155 539.734C425.396 542.991 429.245 545.574 433.479 547.336C437.714 549.097 442.253 550.003 446.835 550H596.165C600.748 550.001 605.287 549.093 609.522 547.329C613.757 545.565 617.605 542.979 620.845 539.719L704.779 455.303C708.019 452.045 710.59 448.177 712.344 443.92C714.097 439.663 715 435.1 715 430.492C715 425.884 714.097 421.322 712.344 417.065C710.59 412.808 708.019 408.94 704.779 405.682L620.845 321.281C617.605 318.021 613.757 315.435 609.522 313.671C605.287 311.907 600.748 310.999 596.165 311ZM521.5 510.614C518.985 510.614 516.535 509.986 514.357 508.817C513.05 508.116 511.84 507.219 510.773 506.146C507.929 503.286 506.33 499.406 506.33 495.36V398.07C506.33 393.507 504.528 389.13 501.319 385.903C498.11 382.676 493.757 380.863 489.219 380.863C484.681 380.863 480.329 382.676 477.12 385.903C473.911 389.13 472.108 393.507 472.108 398.07V495.36C472.108 499.406 470.51 503.286 467.665 506.146C464.82 509.007 460.961 510.614 456.938 510.614C452.915 510.614 449.057 509.007 446.212 506.146C443.367 503.286 441.769 499.406 441.769 495.36V398.07C441.769 385.423 446.765 373.295 455.658 364.352C464.551 355.41 476.612 350.386 489.189 350.386C501.185 350.386 512.713 354.957 521.47 363.14C530.226 354.957 541.754 350.386 553.751 350.386C566.327 350.386 578.389 355.41 587.282 364.352C596.175 373.295 601.171 385.423 601.171 398.07V495.36C601.171 499.406 599.572 503.286 596.728 506.146C593.883 509.007 590.024 510.614 586.001 510.614C581.978 510.614 578.119 509.007 575.275 506.146C572.43 503.286 570.832 499.406 570.832 495.36V398.07C570.832 393.515 569.032 389.146 565.829 385.925C562.625 382.704 558.281 380.894 553.751 380.894C549.22 380.894 544.876 382.704 541.673 385.925C538.469 389.146 536.67 393.515 536.67 398.07V495.36C536.67 499.406 535.071 503.286 532.227 506.146C529.382 509.007 525.523 510.614 521.5 510.614H521.5Z" fill="white"/>
</svg>
