<svg width="557" height="301" viewBox="0 0 557 301" fill="none" xmlns="http://www.w3.org/2000/svg">
<path d="M84.9842 88.1506C85.2814 85.3024 85.6438 82.008 86.0712 78.2675C86.4986 74.5269 86.9611 70.6102 87.4587 66.5174C87.9496 62.4279 88.4505 58.3132 88.9614 54.1735C89.4723 50.0337 89.9732 46.1589 90.4641 42.5491C88.7176 45.9308 86.9545 49.3258 85.1746 52.7342L80.1055 62.4463C78.5026 65.5059 77.035 68.2786 75.7026 70.7645C74.3702 73.2504 73.2916 75.2633 72.4668 76.8031C71.7054 77.8297 70.9474 78.8059 70.1927 79.7318C69.4944 80.5916 68.7415 81.4052 67.9386 82.1674C67.273 82.8056 66.5349 83.363 65.7397 83.828C65.0991 84.2211 64.3663 84.4364 63.6159 84.452C62.8381 84.4927 62.0677 84.283 61.4169 83.8532C61.1433 83.6474 60.9253 83.3762 60.7827 83.0642C60.6401 82.7522 60.5774 82.4093 60.6005 82.0667C60.5901 81.9092 60.5901 81.7512 60.6005 81.5937C60.6186 81.4312 60.6591 81.272 60.7207 81.1207C60.527 76.424 60.3784 71.6804 60.2749 66.8897C60.1713 62.0991 60.1229 57.389 60.1296 52.7594V49.4583C60.1296 48.3613 60.1296 47.2894 60.1797 46.2277C58.844 49.2067 57.4097 52.3032 55.877 55.517C54.3442 58.7309 52.7297 61.9012 51.0333 65.0278C49.3636 68.1578 47.6322 71.1771 45.839 74.0857C44.0457 76.9943 42.2659 79.6262 40.4994 81.9812C38.9051 84.1298 37.1449 86.149 35.2349 88.0198C33.8091 89.4919 32.1244 90.6862 30.266 91.5423C29.0934 92.0363 27.8863 92.4433 26.6545 92.7601C25.7653 92.9899 24.8526 93.1149 23.9346 93.1325C22.997 93.2038 22.0635 92.9498 21.2899 92.4129C21.0205 92.2051 20.8026 91.9375 20.6532 91.6311C20.5037 91.3247 20.4268 90.9878 20.4283 90.6466C20.477 89.6939 20.8421 88.785 21.4652 88.0651C22.2307 87.1177 23.2385 86.3976 24.3804 85.9818C25.8998 85.3846 27.5561 84.0679 29.3493 82.0315C31.3753 79.6898 33.2349 77.2079 34.9143 74.604C36.8244 71.6887 38.7529 68.443 40.6997 64.8668C42.6466 61.2906 44.5333 57.6658 46.3599 53.9923C48.1898 50.302 49.9113 46.7007 51.5242 43.1882C53.137 39.6758 54.5713 36.4887 55.8269 33.6271C57.0791 30.7789 58.1093 28.402 58.9174 26.4965C59.7239 24.5944 60.2298 23.4118 60.4201 22.9438C60.8082 21.9975 61.4967 21.2067 62.3787 20.6944C63.14 20.25 64.0027 20.0108 64.8831 20C66.0719 20 66.8968 20.3221 67.3576 20.9662C67.8184 21.6103 68.0488 22.7627 68.0488 24.4233C68.3126 26.5066 68.5364 28.4675 68.72 30.3059C68.9037 32.1443 69.059 34.033 69.1859 35.9721C69.3161 37.9045 69.4079 39.9894 69.4614 42.2271C69.5148 44.4647 69.5382 47.0395 69.5315 49.9515C69.5315 52.0415 69.4914 54.3429 69.4113 56.8556C69.3311 59.3683 69.2977 62.1796 69.3111 65.2895C73.2682 58.0734 76.7745 51.7077 79.83 46.1924C82.8855 40.6772 85.5386 36.0576 87.7893 32.3338C89.5073 29.397 91.4147 26.5763 93.4995 23.8899C95.0456 21.9844 96.2812 21.0316 97.2062 21.0316H97.5518C97.6501 21.0418 97.7491 21.0418 97.8473 21.0316C97.9467 21.0156 98.0472 21.0072 98.1479 21.0064C98.9393 21.0064 99.5654 21.5097 100.026 22.5161C100.531 23.741 100.767 25.061 100.717 26.3858C100.587 28.0095 100.39 30.0224 100.126 32.4244C99.8626 34.8264 99.5571 37.4834 99.2098 40.3954C98.8759 43.2939 98.5052 46.3484 98.0978 49.559C97.6904 52.7695 97.2947 55.9565 96.9107 59.1201C96.5099 62.2836 96.1359 65.3465 95.7887 68.3088C95.4414 71.2711 95.1575 73.9767 94.9371 76.4257C94.8708 76.862 94.8373 77.3027 94.8369 77.7441V79.1078C94.8369 79.9734 94.8369 80.8389 94.887 81.7195C94.9371 82.6002 94.9371 83.4657 94.9371 84.3262C94.9371 85.3326 94.8887 86.3391 94.7918 87.3455C94.708 88.3027 94.4302 89.2326 93.9754 90.078C93.4874 90.943 92.7554 91.6434 91.8716 92.0908C90.635 92.6628 89.2793 92.9269 87.9195 92.8607C87.5104 92.8763 87.1036 92.7929 86.7332 92.6178C86.3628 92.4427 86.0396 92.1809 85.7907 91.8543C85.2564 91.1431 84.9876 89.9085 84.9842 88.1506Z" fill="#ED1C24"/>
<path d="M128.998 55.517C131.733 55.517 133.777 56.188 135.129 57.5299C136.482 58.8718 137.15 60.7169 137.133 63.0653C137.1 64.5862 136.729 66.0804 136.046 67.4382C135.113 69.2216 133.836 70.8005 132.289 72.0829C130.089 73.9292 127.698 75.5319 125.156 76.8635C121.552 78.7762 117.814 80.4227 113.971 81.79C114.047 82.2574 114.224 82.7024 114.49 83.0936C114.756 83.4848 115.104 83.8128 115.509 84.0545C116.547 84.6439 117.729 84.9265 118.92 84.8697C120.565 84.8528 122.2 84.6279 123.789 84.2004C125.538 83.7463 127.255 83.1747 128.928 82.4894C130.626 81.79 132.284 81.0402 133.897 80.225C135.51 79.4098 136.973 78.6449 138.275 77.9152C139.577 77.1855 140.664 76.5616 141.536 76.0281C142.407 75.4947 142.998 75.1676 143.294 75.0217C143.537 74.8462 143.816 74.7275 144.11 74.6745C144.331 74.6421 144.554 74.6252 144.777 74.6242C145.13 74.6092 145.48 74.7041 145.778 74.8959C146.034 75.0752 146.258 75.2943 146.445 75.5451C146.619 75.7831 146.745 76.0532 146.815 76.3401C146.874 76.5756 146.906 76.817 146.91 77.0597C146.906 77.4173 146.874 77.774 146.815 78.1266C146.689 78.6526 146.435 79.1387 146.074 79.5406C145.909 79.7067 145.358 80.1545 144.416 80.8842C143.474 81.6138 142.267 82.4744 140.779 83.4657C139.292 84.457 137.574 85.5087 135.615 86.6209C133.597 87.757 131.517 88.7768 129.384 89.6754C127.161 90.6126 124.872 91.3846 122.537 91.9851C120.247 92.5878 117.891 92.8973 115.524 92.906C113.703 92.9411 111.898 92.5482 110.255 91.7587C108.75 91.0213 107.419 89.9716 106.348 88.679C105.259 87.3578 104.43 85.8416 103.903 84.2104C103.338 82.4967 103.054 80.7019 103.062 78.8965C103.093 77.2966 103.377 75.7118 103.903 74.2015C104.51 72.3994 105.322 70.6737 106.323 69.0586C107.444 67.2538 108.745 65.5678 110.205 64.0264C111.749 62.3758 113.485 60.9162 115.374 59.6786C117.334 58.3995 119.452 57.3844 121.675 56.6593C124.039 55.886 126.512 55.5003 128.998 55.517ZM127.21 62.3708C127.064 62.3386 126.914 62.3217 126.764 62.3205H126.318C125.11 62.3112 123.914 62.5653 122.812 63.0653C121.718 63.5636 120.704 64.2253 119.807 65.0278C118.896 65.8546 118.085 66.787 117.392 67.8056C116.686 68.812 116.05 69.8185 115.474 70.8249C114.947 71.7644 114.476 72.7339 114.061 73.7284C113.681 74.6594 113.395 75.4344 113.195 76.0634C114.352 75.4696 115.544 74.7902 116.781 74.0505C118.019 73.3108 119.181 72.5409 120.288 71.8615C121.395 71.1822 122.321 70.5381 123.133 69.9744C123.944 69.4108 124.505 69.0334 124.836 68.8321C126.016 68.1702 127.056 67.285 127.901 66.2255C128.385 65.6207 128.678 64.8849 128.743 64.112C128.753 63.8918 128.716 63.6719 128.635 63.4671C128.554 63.2623 128.43 63.0773 128.272 62.9244C127.982 62.6355 127.612 62.4424 127.21 62.3708Z" fill="#ED1C24"/>
<path d="M194.255 79.8073C192.703 81.5601 191.007 83.1794 189.186 84.6482C187.305 86.1906 185.315 87.5933 183.231 88.8451C181.319 90.0089 179.308 90.9975 177.22 91.799C175.521 92.4916 173.713 92.8717 171.88 92.9211C170.471 92.9823 169.092 92.5018 168.023 91.5775C167.022 90.6818 166.521 89.1587 166.521 87.0083C166.561 85.2106 166.827 83.4252 167.312 81.6944C166.363 83.0963 165.288 84.4085 164.101 85.6144C162.768 86.9798 161.292 88.1963 159.698 89.2426C157.976 90.3699 156.114 91.2633 154.158 91.8996C152.002 92.592 149.75 92.9319 147.486 92.906C146.43 92.9079 145.376 92.7897 144.346 92.5538C143.392 92.3455 142.492 91.9411 141.701 91.3662C140.918 90.7711 140.291 89.994 139.873 89.1017C139.38 87.9952 139.144 86.7908 139.182 85.5792C139.182 85.544 139.247 85.0408 139.377 84.0695C139.665 82.4962 140.087 80.9506 140.639 79.45C141.347 77.3466 142.442 74.6225 143.925 71.2778C145.408 67.9331 147.502 63.8755 150.206 59.105C150.754 58.0052 151.582 57.071 152.606 56.3977C153.491 55.8533 154.508 55.5659 155.546 55.5674C156.028 55.5691 156.509 55.6266 156.979 55.7384C157.466 55.8503 157.934 56.0352 158.366 56.287C158.775 56.5243 159.127 56.8489 159.398 57.238C159.662 57.626 159.8 58.0865 159.794 58.5565C159.795 58.8763 159.745 59.1943 159.643 59.4975C159.379 60.2758 159.023 61.0193 158.581 61.7116C158.035 62.6225 157.404 63.6641 156.678 64.8366C155.952 66.0091 155.175 67.2822 154.379 68.6409C153.582 69.9996 152.821 71.4036 152.13 72.8629C151.443 74.305 150.848 75.7891 150.347 77.3063C149.881 78.7257 149.608 80.2017 149.535 81.6944C149.535 82.2776 149.71 82.8475 150.036 83.3298C150.221 83.5852 150.469 83.788 150.755 83.9185C151.041 84.049 151.356 84.1028 151.669 84.0746C153.839 84.0679 155.963 83.4489 157.8 82.2882C159.775 81.0648 161.576 79.5786 163.155 77.8699C164.804 76.0966 166.3 74.1859 167.628 72.1584C168.963 70.1221 170.077 68.2585 170.969 66.5677C171.611 65.4043 172.164 64.193 172.622 62.9445C173.07 61.722 173.59 60.5272 174.179 59.3666C174.678 58.3613 175.329 57.4396 176.108 56.6342C176.463 56.2751 176.887 55.993 177.355 55.8052C177.823 55.6174 178.324 55.5279 178.828 55.5422C179.352 55.5155 179.876 55.6039 180.363 55.8011C180.85 55.9984 181.288 56.2998 181.648 56.6845C182.332 57.4263 182.704 58.4057 182.685 59.417C182.62 60.2706 182.393 61.1039 182.018 61.8727C181.573 62.9194 181.017 64.1069 180.335 65.4505C179.654 66.7941 178.928 68.2233 178.136 69.748C177.345 71.2727 176.609 72.8176 175.938 74.3927C175.285 75.8973 174.723 77.44 174.255 79.0122C173.832 80.3715 173.608 81.7851 173.588 83.209C173.588 84.4017 174.31 84.9955 175.762 84.9955C177.075 84.9312 178.365 84.6277 179.569 84.0997C181.24 83.4224 182.839 82.5795 184.343 81.5837C186.101 80.4398 187.775 79.1701 189.352 77.7844C190.979 76.3635 192.461 74.7822 193.775 73.0642L194.255 79.8073Z" fill="#ED1C24"/>
<path d="M249.214 45.7798C251.862 44.725 254.439 43.4979 256.928 42.1063C258.882 41.0222 260.736 39.7659 262.468 38.3523C263.755 37.3224 264.888 36.1105 265.829 34.7543C266.513 33.8292 266.915 32.7243 266.986 31.574C266.947 31.1486 266.771 30.7475 266.485 30.4317C266.072 29.9336 265.56 29.5274 264.982 29.2391C264.175 28.8283 263.32 28.519 262.438 28.3182C261.269 28.0548 260.074 27.9298 258.876 27.9458C255.469 27.9185 252.075 28.3621 248.788 29.2642C245.88 30.0697 243.051 31.1427 240.338 32.4697C237.998 33.609 235.749 34.928 233.611 36.4149C231.668 37.7937 230.036 38.9948 228.717 40.018C227.959 40.5873 227.24 41.2095 226.568 41.8799C225.957 42.4938 225.363 43.0406 224.785 43.5203C224.223 43.992 223.599 44.3847 222.932 44.6878C222.181 45.0031 221.372 45.1557 220.558 45.1357C219.393 45.2042 218.244 44.8467 217.322 44.1292C216.932 43.7866 216.624 43.3595 216.422 42.8801C216.22 42.4007 216.128 41.8815 216.155 41.3615C216.155 39.9358 216.714 38.4261 217.833 36.8326C219.15 35.024 220.715 33.4112 222.481 32.042C224.664 30.3235 226.998 28.8077 229.454 27.513C232.228 26.0129 235.114 24.7293 238.084 23.6735C241.226 22.5657 244.444 21.6862 247.711 21.0417C251.025 20.3797 254.396 20.0426 257.775 20.0352C260.787 19.994 263.795 20.2825 266.746 20.8957C268.912 21.3279 270.992 22.1168 272.902 23.2307C274.363 24.0859 275.586 25.2974 276.458 26.7532C277.23 28.0976 277.631 29.6245 277.62 31.1764C277.565 32.9481 277.017 34.6688 276.037 36.1432C274.801 38.0831 273.281 39.8253 271.529 41.3112C269.318 43.205 266.916 44.8612 264.361 46.2528C261.305 47.9312 258.123 49.3681 254.844 50.5503C257.797 51.4766 260.65 52.6989 263.36 54.1986C265.266 55.2519 267.001 56.5927 268.504 58.174C269.652 59.3872 270.509 60.8487 271.008 62.4463C271.438 63.9172 271.655 65.4424 271.654 66.9753C271.625 69.3604 270.968 71.6953 269.751 73.7435C268.374 76.1173 266.609 78.2419 264.532 80.0287C262.107 82.1414 259.454 83.9745 256.622 85.4936C253.433 87.2238 250.1 88.6702 246.66 89.8163C242.948 91.0529 239.146 91.9984 235.289 92.6444C231.285 93.3205 227.232 93.6572 223.172 93.6508C221.703 93.6488 220.235 93.5648 218.774 93.3992C217.385 93.2537 216.016 92.955 214.692 92.5085C213.581 92.1443 212.557 91.5513 211.687 90.7674C211.304 90.4054 211.002 89.9654 210.801 89.4768C210.601 88.9883 210.507 88.4624 210.525 87.9343C210.517 87.8103 210.517 87.6859 210.525 87.5619C210.525 87.4461 210.565 87.3103 210.6 87.1442C210.73 86.8775 210.88 86.5554 211.046 86.173C211.305 85.6947 211.701 85.3056 212.183 85.0559C213.057 84.5959 214.002 84.2847 214.978 84.135C216.783 83.8474 218.61 83.7227 220.437 83.7626C224.575 76.1909 227.989 69.6641 230.681 64.1824C233.372 58.7007 235.621 54.1885 237.428 50.6459C238.757 47.9207 240.286 45.2985 242.001 42.8007C243.237 41.1234 244.449 40.2847 245.638 40.2847C246.159 40.2847 246.676 40.3697 247.17 40.5363C247.639 40.6886 248.08 40.9145 248.478 41.2056C248.854 41.4825 249.167 41.8378 249.394 42.2472C249.626 42.6658 249.745 43.1374 249.74 43.616C249.497 43.9006 249.342 44.2504 249.294 44.6224C249.254 44.9595 249.214 45.3521 249.214 45.7798ZM246.494 55.2654C245.012 58.647 243.619 61.6781 242.317 64.3586C241.014 67.039 239.787 69.4981 238.635 71.7357C237.483 73.97 236.388 76.055 235.349 77.9907C234.311 79.9264 233.296 81.8218 232.304 83.677C235.932 83.3857 239.52 82.711 243.008 81.6642C246.037 80.7796 248.945 79.5185 251.664 77.9102C253.891 76.6148 255.854 74.9073 257.449 72.878C258.78 71.2141 259.519 69.1503 259.548 67.0155C259.531 66.007 259.322 65.0111 258.932 64.0818C258.434 62.9288 257.72 61.8831 256.828 61.0021C255.629 59.8238 254.282 58.8087 252.821 57.9828C250.82 56.856 248.706 55.9451 246.514 55.2654H246.494Z" fill="#ED1C24"/>
<path d="M328.937 77.3667C328.346 77.9303 327.555 78.7053 326.563 79.7016C325.571 80.698 324.444 81.7699 323.177 82.9273C321.91 84.0847 320.557 85.2571 319.125 86.4498C317.722 87.605 316.251 88.6754 314.722 89.6553C313.316 90.5657 311.837 91.3552 310.299 92.0153C309.005 92.5948 307.608 92.9079 306.191 92.9362C305.153 92.9646 304.127 92.7052 303.226 92.1864C302.411 91.6998 301.712 91.0403 301.177 90.2541C300.618 89.4301 300.208 88.5137 299.965 87.5468C299.7 86.5333 299.567 85.4897 299.57 84.4419C299.569 83.7514 299.619 83.0618 299.72 82.3787C299.812 81.724 299.981 81.0823 300.221 80.4665C299.199 81.8554 298.03 83.2879 296.714 84.764C295.43 86.2236 294.024 87.5704 292.512 88.7897C291.069 89.9651 289.494 90.9667 287.818 91.7738C286.27 92.5312 284.572 92.9302 282.85 92.9413C281.829 92.9214 280.816 92.7518 279.844 92.438C278.67 92.0705 277.573 91.4888 276.608 90.7221C275.55 89.8827 274.674 88.8347 274.034 87.6424C273.303 86.2161 272.946 84.6262 272.997 83.0229C273.031 81.3832 273.239 79.752 273.618 78.1568C274.069 76.1422 274.698 74.1719 275.496 72.2691C276.373 70.1584 277.448 68.1364 278.707 66.2305C280.003 64.2505 281.558 62.4547 283.33 60.8914C285.141 59.2986 287.194 58.0074 289.411 57.067C291.825 56.0633 294.418 55.565 297.03 55.6026C298.318 55.5791 299.601 55.7625 300.832 56.1461C301.79 56.4557 302.718 56.855 303.602 57.3387C304.419 57.837 305.181 58.4207 305.876 59.0798C306.437 58.7779 307.013 58.4961 307.609 58.2344C308.116 57.9975 308.636 57.7892 309.167 57.6104C309.619 57.4459 310.094 57.3542 310.574 57.3387C311.689 57.2928 312.782 57.6639 313.64 58.3803C313.99 58.6453 314.278 58.9839 314.484 59.3725C314.69 59.761 314.809 60.1902 314.832 60.6297C314.838 60.8139 314.821 60.9982 314.782 61.1782C314.618 61.8089 314.363 62.604 314.016 63.5635C313.668 64.5229 313.281 65.5898 312.853 66.7639C312.428 67.9415 311.987 69.1693 311.546 70.4424C311.105 71.7156 310.695 72.9585 310.334 74.1914C309.973 75.4243 309.673 76.5666 309.442 77.6435C309.233 78.5483 309.117 79.4724 309.097 80.4011C309.068 81.2496 309.24 82.0928 309.598 82.8618C309.749 83.1726 309.99 83.4307 310.289 83.6028C310.588 83.775 310.932 83.8534 311.276 83.828C311.889 83.7989 312.488 83.6375 313.034 83.355C313.797 82.9903 314.532 82.5681 315.233 82.0919C316.024 81.5585 316.841 80.953 317.682 80.2753C318.519 79.601 319.335 78.9116 320.126 78.2171C321.973 76.5632 323.935 74.6745 326.012 72.5509C326.434 72.1648 326.975 71.9372 327.545 71.9068C327.88 71.9125 328.208 72.0049 328.498 72.175C328.787 72.3451 329.028 72.5872 329.198 72.878C329.64 73.5096 329.875 74.2645 329.869 75.0368C329.88 75.4684 329.802 75.8976 329.642 76.2982C329.482 76.6988 329.242 77.0624 328.937 77.3667ZM294.676 64.5498C293.097 64.5558 291.545 64.9663 290.168 65.7424C288.707 66.5467 287.401 67.6067 286.311 68.8724C285.192 70.1668 284.291 71.6352 283.641 73.2202C282.994 74.752 282.653 76.397 282.639 78.0611C282.64 78.7508 282.682 79.4397 282.764 80.1243C282.837 80.8067 283.029 81.471 283.33 82.0869C283.621 82.6866 284.055 83.2051 284.593 83.5965C285.244 84.0245 286.014 84.2326 286.792 84.1903C287.714 84.1196 288.598 83.7843 289.336 83.2241C290.41 82.4879 291.416 81.6559 292.342 80.7383C293.416 79.6877 294.432 78.5772 295.382 77.412C296.384 76.2043 297.274 75.02 298.052 73.8593C298.751 72.852 299.395 71.8071 299.98 70.7293C300.365 70.118 300.618 69.4322 300.722 68.7164C300.721 68.0846 300.491 67.4746 300.075 67.0004C299.629 66.4728 299.095 66.0268 298.498 65.682C297.869 65.3211 297.195 65.0453 296.494 64.8618C295.902 64.6865 295.292 64.5834 294.676 64.5548V64.5498Z" fill="#ED1C24"/>
<path d="M331.707 61.5254C332.237 60.2653 333.089 59.1682 334.177 58.3451C335.019 57.7023 336.04 57.3383 337.097 57.3035C337.891 57.3055 338.652 57.6178 339.221 58.174C339.55 58.5084 339.804 58.9093 339.966 59.3502C340.128 59.791 340.195 60.2615 340.162 60.7304C340.159 61.1989 340.108 61.6658 340.012 62.1243C339.897 62.6728 339.715 63.2051 339.471 63.7094C340.373 62.6177 341.422 61.6574 342.587 60.8562C343.995 59.8502 345.493 58.9759 347.06 58.2445C348.685 57.466 350.372 56.8264 352.104 56.3322C353.701 55.8543 355.357 55.6036 357.023 55.5875C358.577 55.5286 360.11 55.9712 361.396 56.8506C362.568 57.696 363.154 59.1285 363.154 61.148C363.145 62.4087 362.961 63.662 362.608 64.8718C362.235 66.1968 361.765 67.492 361.2 68.7466C360.624 70.0399 359.978 71.308 359.272 72.5459C358.566 73.7838 357.864 74.9563 357.168 76.0684L355.265 79.0877C354.689 79.9985 354.238 80.7483 353.907 81.3472C353.483 81.8632 353.255 82.5145 353.266 83.1839C353.26 83.4378 353.348 83.6849 353.511 83.8783C353.612 83.9851 353.736 84.0673 353.873 84.1188C354.01 84.1702 354.157 84.1895 354.303 84.1752C354.568 84.1714 354.833 84.1479 355.094 84.1048C355.487 84.0135 355.857 83.8423 356.181 83.6016C358.056 82.8957 359.881 82.0652 361.646 81.1157C363.504 80.1092 365.298 79.0726 367.011 77.9655C368.724 76.8585 370.297 75.7464 371.729 74.6342C373.162 73.5221 374.359 72.5258 375.316 71.6149C375.548 71.4013 375.816 71.2309 376.107 71.1117C376.344 71.0206 376.595 70.9712 376.848 70.9658C377.103 70.9559 377.356 71.0095 377.585 71.1219C377.814 71.2343 378.012 71.402 378.161 71.6099C378.487 72.0926 378.65 72.6676 378.627 73.2504C378.579 74.4529 378.25 75.6271 377.665 76.6773C376.916 78.0581 375.879 79.2598 374.624 80.1998C372.748 81.5417 371.025 82.783 369.455 83.9236C367.886 85.0642 366.288 86.116 364.661 87.0788C362.967 88.0868 361.218 88.999 359.422 89.8113C357.296 90.7511 355.107 91.5398 352.87 92.1713C352.099 92.4123 351.314 92.6106 350.521 92.7651C349.877 92.8909 349.223 92.9582 348.568 92.9664C346.819 92.9664 345.562 92.4632 344.736 91.497C343.909 90.5309 343.524 89.1571 343.524 87.4009C343.524 87.1694 343.524 86.948 343.549 86.7316C343.574 86.5152 343.589 86.2736 343.624 86.012C343.72 84.8491 343.996 83.7084 344.44 82.6304C344.946 81.3412 345.523 80.0812 346.168 78.8562C346.836 77.568 347.554 76.2848 348.322 75.0066C349.09 73.7285 349.79 72.5207 350.421 71.3835C351.062 70.2412 351.598 69.2196 352.029 68.3289C352.394 67.6531 352.613 66.907 352.67 66.1399C352.681 65.6809 352.532 65.2323 352.249 64.8718C352.093 64.695 351.898 64.5574 351.68 64.47C351.462 64.3826 351.226 64.3479 350.992 64.3686C348.846 64.3795 346.752 65.0368 344.981 66.2557C343.026 67.5484 341.24 69.0836 339.667 70.8249C338.018 72.6625 336.498 74.613 335.118 76.6622C333.736 78.7153 332.517 80.5605 331.462 82.1976C330.785 83.3318 330.181 84.5084 329.654 85.7201C329.113 86.9631 328.542 88.1255 327.951 89.1973C327.421 90.1877 326.745 91.0919 325.947 91.8795C325.575 92.2352 325.136 92.5132 324.656 92.6972C324.177 92.8812 323.665 92.9676 323.152 92.9513C322.647 92.9764 322.142 92.8914 321.672 92.702C321.203 92.5127 320.78 92.2235 320.432 91.8543C319.767 91.1233 319.408 90.1625 319.43 89.1722C319.52 88.2312 319.753 87.3097 320.121 86.4397C320.582 85.1817 321.175 83.7257 321.9 82.0718C322.624 80.4179 323.441 78.6281 324.349 76.7025C325.257 74.7936 326.164 72.9049 327.069 71.0362C327.974 69.1676 328.839 67.4047 329.664 65.7474C330.502 64.1002 331.183 62.6929 331.707 61.5254Z" fill="#ED1C24"/>
<path d="M400.927 81.5937C400.893 81.6714 400.876 81.7555 400.877 81.8403C400.879 81.9264 400.864 82.0122 400.831 82.0919C400.843 82.7373 400.993 83.3725 401.272 83.9538C401.384 84.244 401.582 84.4926 401.839 84.6655C402.096 84.8385 402.4 84.9273 402.71 84.92C402.911 84.9315 403.113 84.8989 403.301 84.8244C405.317 84.1957 407.238 83.2933 409.011 82.1422C410.944 80.9123 412.802 79.5681 414.576 78.1165C416.292 76.7135 417.933 75.2219 419.495 73.6479C420.991 72.1215 422.235 70.7628 423.227 69.5719C423.402 69.3238 423.631 69.1188 423.896 68.9723C424.162 68.8259 424.457 68.7419 424.759 68.7265C425.017 68.7329 425.27 68.7994 425.498 68.9208C425.726 69.0422 425.922 69.2151 426.072 69.4259C426.474 69.9692 426.674 70.6369 426.638 71.313C426.614 72.0831 426.444 72.8415 426.137 73.5473C425.705 74.5519 425.131 75.489 424.434 76.3301C422.49 78.4805 420.497 80.5504 418.453 82.5398C416.51 84.4367 414.445 86.2034 412.272 87.8286C410.341 89.2808 408.26 90.5208 406.066 91.5272C404.169 92.4182 402.104 92.8934 400.01 92.9211C397.602 92.9211 395.707 92.2334 394.325 90.8579C392.942 89.4825 392.249 87.421 392.246 84.6734V84.1702C392.246 84.0012 392.262 83.8326 392.296 83.667C391.521 85.0743 390.538 86.3553 389.381 87.4663C388.204 88.6009 386.892 89.5847 385.474 90.395C384.084 91.1933 382.606 91.8266 381.071 92.2821C379.645 92.7172 378.164 92.9443 376.673 92.9564C375.532 92.967 374.396 92.7971 373.307 92.4531C372.313 92.1389 371.407 91.5942 370.662 90.863C369.885 90.0776 369.295 89.1265 368.934 88.0802C368.49 86.7707 368.279 85.3924 368.313 84.0092C368.3 81.3137 368.735 78.6349 369.6 76.0835C370.43 73.6412 371.577 71.3197 373.011 69.1794C374.406 67.1055 376.04 65.2051 377.88 63.5182C379.631 61.908 381.537 60.4768 383.57 59.2459C385.415 58.1248 387.379 57.2166 389.426 56.5386C391.147 55.9494 392.948 55.6319 394.766 55.5976C396.431 55.5538 398.085 55.875 399.614 56.5386C400.291 56.8854 400.909 57.339 401.443 57.8822C401.573 57.5802 401.708 57.3035 401.838 57.0368C402.169 56.2417 402.464 55.5271 402.73 54.9736C402.995 54.42 403.171 53.9671 403.271 53.7055C403.371 53.4438 403.652 52.699 404.112 51.6221C404.573 50.5453 405.114 49.247 405.72 47.7725C406.326 46.2981 406.988 44.718 407.699 43.0272C408.41 41.3364 409.056 39.7513 409.652 38.2617L411.185 34.4121C411.611 33.3352 411.876 32.6458 411.972 32.3489C412.205 31.5162 412.521 30.7087 412.913 29.9385C413.287 29.2051 413.761 28.5276 414.321 27.9257C414.865 27.3475 415.51 26.8749 416.224 26.5318C417.001 26.1802 417.847 26.0082 418.699 26.0285C419.794 25.9866 420.878 26.2701 421.814 26.8438C422.636 27.3923 423.051 28.444 423.051 29.9989C423.048 30.6526 422.964 31.3033 422.801 31.9363C422.636 32.6006 422.445 33.2447 422.235 33.8737C422.025 34.5027 421.789 35.1267 421.544 35.7356C421.298 36.3445 421.073 36.9232 420.872 37.4516C419.223 40.7627 417.493 44.3641 415.683 48.2556C413.873 52.1472 412.077 56.0622 410.293 60.0007C408.517 63.9392 406.819 67.7804 405.199 71.5244C403.58 75.2683 402.156 78.6248 400.927 81.5937ZM399.424 62.1696C397.292 62.2699 395.19 62.7064 393.193 63.4628C390.699 64.3213 388.378 65.6217 386.34 67.3024C384.221 69.0597 382.437 71.1894 381.076 73.5876C379.603 76.2063 378.765 79.1372 378.632 82.1422C378.632 83.4657 379.188 84.1249 380.31 84.1249C381.676 84.1297 383.026 83.8343 384.267 83.2594C385.562 82.6512 386.768 81.8654 387.848 80.9244C389.02 79.9145 390.089 78.7902 391.039 77.568C392.026 76.3137 392.942 75.005 393.784 73.6479C394.625 72.306 395.383 70.9641 396.058 69.6222C396.734 68.2836 397.32 67.0306 397.811 65.8732L398.507 64.3334C398.768 63.6792 399.083 62.9646 399.444 62.1696H399.424Z" fill="#ED1C24"/>
<path d="M440.828 55.517C443.563 55.517 445.607 56.188 446.959 57.5299C448.312 58.8718 448.98 60.7169 448.963 63.0653C448.93 64.5862 448.559 66.0804 447.876 67.4382C446.943 69.2228 445.664 70.802 444.114 72.0829C441.914 73.9436 439.519 75.5584 436.971 76.8987C433.362 78.8163 429.619 80.4679 425.771 81.8403C425.847 82.307 426.024 82.7515 426.289 83.1426C426.553 83.5337 426.9 83.8621 427.304 84.1048C428.342 84.6942 429.524 84.9768 430.715 84.92C432.361 84.9034 433.999 84.6786 435.589 84.2507C437.338 83.7966 439.055 83.225 440.728 82.5398C442.426 81.8403 444.084 81.0905 445.697 80.2753C447.31 79.4601 448.772 78.6952 450.075 77.9655C451.377 77.2359 452.464 76.6119 453.336 76.0785C453.904 75.7135 454.491 75.3776 455.094 75.072C455.337 74.8965 455.616 74.7779 455.91 74.7248C456.131 74.6922 456.354 74.6754 456.576 74.6745C456.93 74.6578 457.281 74.7529 457.578 74.9462C457.836 75.1228 458.061 75.3423 458.245 75.5954C458.422 75.832 458.55 76.1025 458.62 76.3905C458.679 76.626 458.711 76.8674 458.715 77.1101C458.711 77.4676 458.679 77.8243 458.62 78.1769C458.494 78.704 458.237 79.1904 457.874 79.5909C457.71 79.7587 457.159 80.2065 456.221 80.9345C455.283 81.6625 454.07 82.523 452.584 83.516C451.082 84.5224 449.379 85.5591 447.42 86.6712C445.402 87.8073 443.322 88.8272 441.189 89.7257C438.965 90.6621 436.677 91.4341 434.342 92.0355C432.052 92.6381 429.696 92.9475 427.329 92.9564C425.509 92.9914 423.706 92.5985 422.064 91.809C420.56 91.0716 419.228 90.0219 418.158 88.7293C417.067 87.4094 416.238 85.8928 415.713 84.2608C415.148 82.547 414.863 80.7523 414.872 78.9468C414.903 77.3469 415.187 75.7621 415.713 74.2518C416.318 72.4488 417.13 70.7229 418.132 69.1089C419.254 67.3041 420.555 65.6181 422.014 64.0767C423.559 62.4261 425.295 60.9665 427.184 59.729C429.144 58.4498 431.262 57.4347 433.485 56.7097C435.853 55.9171 438.333 55.5144 440.828 55.517ZM439.055 62.3708C438.909 62.3386 438.759 62.3217 438.609 62.3205H438.163C436.955 62.3112 435.759 62.5653 434.657 63.0653C433.563 63.5636 432.549 64.2253 431.652 65.0278C430.738 65.8477 429.924 66.7734 429.227 67.7855C428.519 68.812 427.885 69.8302 427.324 70.84C426.799 71.7795 426.329 72.749 425.916 73.7435C425.536 74.6745 425.25 75.4494 425.05 76.0785C426.202 75.4847 427.397 74.8137 428.636 74.0656C429.875 73.3175 431.044 72.5878 432.143 71.8766C433.228 71.1822 434.175 70.5531 434.983 69.9895C435.794 69.4259 436.36 69.0485 436.691 68.8472C437.871 68.1853 438.912 67.3001 439.756 66.2406C440.24 65.6358 440.533 64.9 440.598 64.1271C440.607 63.907 440.569 63.6876 440.488 63.483C440.407 63.2784 440.284 63.0932 440.127 62.9395C439.837 62.6433 439.462 62.4447 439.055 62.3708Z" fill="#ED1C24"/>
<path d="M481.321 60.1366C481.309 61.2787 481.194 62.4174 480.975 63.5383C480.755 64.7585 480.373 65.9433 479.838 67.0608C479.352 68.0996 478.662 69.029 477.81 69.7933C476.961 70.5322 475.866 70.9221 474.744 70.8853C474.303 70.9447 473.855 70.839 473.487 70.5884C473.271 70.2847 473.174 69.9126 473.211 69.5417C473.211 69.2448 473.211 68.807 473.211 68.2283C473.211 67.6496 473.211 67.091 473.211 66.5627C473.225 66.0484 473.142 65.5362 472.966 65.053C472.801 64.6404 472.39 64.434 471.729 64.434C470.818 64.4829 469.937 64.7823 469.184 65.2996C468.164 65.9456 467.218 66.7034 466.364 67.559C465.378 68.5459 464.461 69.6002 463.619 70.7142C462.753 71.8592 461.953 73.0538 461.225 74.2921C460.558 75.4119 459.994 76.5911 459.542 77.8146C459.174 78.7315 458.965 79.7051 458.926 80.693C458.901 81.2115 458.997 81.7287 459.206 82.2031C459.416 82.6776 459.733 83.0962 460.133 83.4254C461.079 84.1368 462.243 84.4929 463.424 84.4319C465.034 84.4104 466.632 84.1596 468.172 83.6871C469.884 83.1759 471.557 82.5453 473.181 81.8001C474.849 81.0352 476.452 80.2099 478.005 79.3142C479.558 78.4184 480.96 77.568 482.233 76.7578C483.505 75.9476 484.562 75.2482 485.418 74.6695C485.961 74.2857 486.523 73.9297 487.101 73.6027C487.564 73.3521 488.079 73.2158 488.604 73.2051C488.957 73.1975 489.305 73.2918 489.606 73.4769C489.87 73.6452 490.096 73.8661 490.272 74.126C490.437 74.3442 490.565 74.5893 490.648 74.8506C490.708 75.0877 490.741 75.3307 490.748 75.5753C490.742 75.9329 490.708 76.2896 490.648 76.6421C490.524 77.1689 490.269 77.6555 489.906 78.0561C489.743 78.2574 489.207 78.7606 488.298 79.5658C487.39 80.3709 486.221 81.3237 484.792 82.424C483.36 83.5177 481.712 84.6919 479.848 85.9466C477.934 87.2154 475.936 88.3519 473.868 89.3483C471.738 90.3748 469.53 91.2296 467.266 91.9046C465.084 92.5655 462.818 92.9045 460.539 92.9111C459.011 92.9377 457.492 92.6677 456.066 92.116C454.834 91.6292 453.715 90.8926 452.78 89.9522C451.896 89.0379 451.214 87.9476 450.776 86.7517C450.313 85.5216 450.075 84.2173 450.075 82.9021C450.127 81.1411 450.477 79.4018 451.112 77.7592C451.868 75.6882 452.829 73.6988 453.982 71.8213C455.255 69.7242 456.692 67.732 458.28 65.8632C459.89 63.9485 461.687 62.2004 463.644 60.6448C465.495 59.1711 467.523 57.9369 469.68 56.9713C471.677 56.0661 473.841 55.5929 476.031 55.5825C476.724 55.5777 477.414 55.6605 478.085 55.829C478.688 55.977 479.257 56.2382 479.763 56.599C480.257 56.9646 480.648 57.4515 480.9 58.013C481.194 58.6812 481.338 59.4063 481.321 60.1366Z" fill="#ED1C24"/>
<path d="M506.837 55.5674C508.187 55.5855 509.531 55.7543 510.844 56.0706C512.268 56.3927 513.625 56.9651 514.851 57.7614C516.086 58.5727 517.124 59.6506 517.892 60.9165C518.739 62.3843 519.159 64.0616 519.104 65.7575C519.085 66.9019 518.953 68.0415 518.708 69.1592C518.419 70.5306 518.022 71.8767 517.521 73.185C517.821 73.5609 518.212 73.8522 518.658 74.0304C519.1 74.198 519.568 74.2816 520.04 74.277C520.841 74.2507 521.626 74.0479 522.34 73.6832C523.249 73.2459 524.118 72.7307 524.939 72.1433C525.868 71.4805 526.759 70.7665 527.609 70.0046C528.494 69.2096 529.329 68.4145 530.114 67.6194C530.905 66.8243 531.616 66.0745 532.262 65.36C532.908 64.6454 533.444 64.0466 533.87 63.5484C533.98 63.4359 534.111 63.3471 534.255 63.2874C534.4 63.2277 534.555 63.1983 534.712 63.2012C534.96 63.2132 535.202 63.2848 535.417 63.41C535.633 63.5351 535.815 63.7103 535.949 63.9208C536.343 64.5146 536.533 65.2214 536.49 65.9336C536.447 66.9698 536.185 67.9851 535.724 68.9127C535.028 70.2704 534.061 71.4696 532.883 72.4352C532.092 73.294 531.185 74.287 530.164 75.4142C529.141 76.541 528.051 77.6031 526.898 78.5946C525.784 79.5542 524.575 80.3973 523.291 81.1106C522.149 81.7765 520.855 82.1369 519.535 82.1573C518.684 82.1581 517.839 82.0239 517.03 81.7598C516.153 81.4554 515.327 81.0194 514.581 80.4665C513.417 82.2981 512.058 83.9972 510.528 85.5339C509.013 87.055 507.309 88.3741 505.459 89.459C503.571 90.5623 501.551 91.4212 499.448 92.0154C497.203 92.641 494.881 92.9509 492.551 92.9362C491.459 92.9065 490.376 92.7219 489.335 92.3877C488.076 91.999 486.897 91.3853 485.854 90.5762C484.705 89.6801 483.753 88.5544 483.059 87.27C482.258 85.7415 481.866 84.0299 481.922 82.3033C481.959 80.6958 482.174 79.0976 482.563 77.5378C483.033 75.5664 483.687 73.644 484.517 71.7961C485.437 69.7447 486.546 67.7838 487.828 65.9387C489.174 63.9885 490.78 62.2327 492.601 60.7203C494.499 59.1487 496.635 57.8916 498.928 56.9965C501.45 56.0202 504.134 55.5352 506.837 55.5674ZM504.262 64.3082C502.697 64.3116 501.158 64.7133 499.789 65.4757C498.346 66.2631 497.056 67.3065 495.982 68.5554C494.872 69.8416 493.978 71.3018 493.337 72.878C492.681 74.4421 492.34 76.122 492.336 77.8196C492.338 78.5082 492.387 79.1957 492.481 79.8778C492.574 80.6031 492.784 81.3084 493.102 81.9661C493.414 82.6096 493.88 83.1648 494.459 83.5814C495.164 84.0408 495.995 84.2662 496.834 84.2256C498.389 84.2161 499.914 83.7962 501.257 83.0078C502.71 82.1836 504.007 81.1088 505.089 79.8325C506.22 78.51 507.122 77.0063 507.758 75.384C508.413 73.7874 508.753 72.0785 508.76 70.3519C508.757 69.664 508.715 68.9769 508.635 68.2937C508.561 67.6083 508.361 66.9427 508.044 66.3312C507.727 65.7293 507.257 65.2224 506.681 64.8618C505.942 64.4535 505.104 64.2618 504.262 64.3082Z" fill="#ED1C24"/>
<path d="M84.9842 275.452C85.2814 272.604 85.6438 269.31 86.0712 265.569C86.4986 261.829 86.9611 257.912 87.4587 253.819C87.9496 249.73 88.4505 245.615 88.9614 241.475C89.4723 237.335 89.9732 233.461 90.4641 229.851C88.7176 233.233 86.9545 236.628 85.1746 240.036L80.1055 249.748C78.5026 252.808 77.035 255.58 75.7026 258.066C74.3702 260.552 73.2916 262.565 72.4668 264.105C71.7054 265.131 70.9474 266.108 70.1927 267.034C69.4944 267.893 68.7415 268.707 67.9386 269.469C67.273 270.107 66.5349 270.665 65.7397 271.13C65.0991 271.523 64.3663 271.738 63.6159 271.754C62.8381 271.795 62.0677 271.585 61.4169 271.155C61.1433 270.949 60.9253 270.678 60.7827 270.366C60.6401 270.054 60.5774 269.711 60.6005 269.369C60.5901 269.211 60.5901 269.053 60.6005 268.895C60.6186 268.733 60.6591 268.574 60.7207 268.422C60.527 263.726 60.3784 258.982 60.2749 254.191C60.1713 249.401 60.1229 244.691 60.1296 240.061V236.76C60.1296 235.663 60.1296 234.591 60.1797 233.529C58.844 236.508 57.4097 239.605 55.877 242.819C54.3442 246.033 52.7297 249.203 51.0333 252.33C49.3636 255.46 47.6322 258.479 45.839 261.387C44.0457 264.296 42.2659 266.928 40.4994 269.283C38.9051 271.432 37.1449 273.451 35.2349 275.322C33.8091 276.794 32.1244 277.988 30.266 278.844C29.0934 279.338 27.8863 279.745 26.6545 280.062C25.7653 280.292 24.8526 280.417 23.9346 280.434C22.997 280.506 22.0635 280.252 21.2899 279.715C21.0205 279.507 20.8026 279.239 20.6532 278.933C20.5037 278.627 20.4268 278.29 20.4283 277.948C20.477 276.996 20.8421 276.087 21.4652 275.367C22.2307 274.419 23.2385 273.699 24.3804 273.284C25.8998 272.686 27.5561 271.37 29.3493 269.333C31.3753 266.992 33.2349 264.51 34.9143 261.906C36.8244 258.991 38.7529 255.745 40.6997 252.169C42.6466 248.592 44.5333 244.968 46.3599 241.294C48.1898 237.604 49.9113 234.002 51.5242 230.49C53.137 226.978 54.5713 223.79 55.8269 220.929C57.0791 218.081 58.1093 215.704 58.9174 213.798C59.7239 211.896 60.2298 210.714 60.4201 210.246C60.8082 209.299 61.4967 208.508 62.3787 207.996C63.14 207.552 64.0027 207.313 64.8831 207.302C66.0719 207.302 66.8968 207.624 67.3576 208.268C67.8184 208.912 68.0488 210.064 68.0488 211.725C68.3126 213.808 68.5364 215.769 68.72 217.608C68.9037 219.446 69.059 221.335 69.1859 223.274C69.3161 225.206 69.4079 227.291 69.4614 229.529C69.5148 231.766 69.5382 234.341 69.5315 237.253C69.5315 239.343 69.4914 241.645 69.4113 244.157C69.3311 246.67 69.2977 249.481 69.3111 252.591C73.2682 245.375 76.7745 239.009 79.83 233.494C82.8855 227.979 85.5386 223.359 87.7893 219.636C89.5073 216.699 91.4147 213.878 93.4995 211.192C95.0456 209.286 96.2812 208.333 97.2062 208.333H97.5518C97.6501 208.344 97.7491 208.344 97.8473 208.333C97.9467 208.317 98.0472 208.309 98.1479 208.308C98.9393 208.308 99.5654 208.811 100.026 209.818C100.531 211.043 100.767 212.363 100.717 213.688C100.587 215.311 100.39 217.324 100.126 219.726C99.8626 222.128 99.5571 224.785 99.2098 227.697C98.8759 230.596 98.5052 233.65 98.0978 236.861C97.6904 240.071 97.2947 243.258 96.9107 246.422C96.5099 249.585 96.1359 252.648 95.7887 255.611C95.4414 258.573 95.1575 261.278 94.9371 263.727C94.8708 264.164 94.8373 264.604 94.8369 265.046V266.41C94.8369 267.275 94.8369 268.141 94.887 269.021C94.9371 269.902 94.9371 270.767 94.9371 271.628C94.9371 272.634 94.8887 273.641 94.7918 274.647C94.708 275.604 94.4302 276.534 93.9754 277.38C93.4874 278.245 92.7554 278.945 91.8716 279.393C90.635 279.965 89.2793 280.229 87.9195 280.163C87.5104 280.178 87.1036 280.095 86.7332 279.92C86.3628 279.744 86.0396 279.483 85.7907 279.156C85.2564 278.445 84.9876 277.21 84.9842 275.452Z" fill="black"/>
<path d="M128.998 242.819C131.733 242.819 133.777 243.49 135.129 244.832C136.482 246.174 137.15 248.019 137.133 250.367C137.1 251.888 136.729 253.382 136.046 254.74C135.113 256.523 133.836 258.102 132.289 259.385C130.089 261.231 127.698 262.834 125.156 264.165C121.552 266.078 117.814 267.724 113.971 269.092C114.047 269.559 114.224 270.004 114.49 270.395C114.756 270.787 115.104 271.115 115.509 271.356C116.547 271.946 117.729 272.228 118.92 272.171C120.565 272.155 122.2 271.93 123.789 271.502C125.538 271.048 127.255 270.476 128.928 269.791C130.626 269.092 132.284 268.342 133.897 267.527C135.51 266.712 136.973 265.947 138.275 265.217C139.577 264.487 140.664 263.863 141.536 263.33C142.407 262.796 142.998 262.469 143.294 262.323C143.537 262.148 143.816 262.029 144.11 261.976C144.331 261.944 144.554 261.927 144.777 261.926C145.13 261.911 145.48 262.006 145.778 262.198C146.034 262.377 146.258 262.596 146.445 262.847C146.619 263.085 146.745 263.355 146.815 263.642C146.874 263.877 146.906 264.119 146.91 264.361C146.906 264.719 146.874 265.076 146.815 265.428C146.689 265.954 146.435 266.44 146.074 266.842C145.909 267.008 145.358 267.456 144.416 268.186C143.474 268.916 142.267 269.776 140.779 270.767C139.292 271.759 137.574 272.811 135.615 273.923C133.597 275.059 131.517 276.079 129.384 276.977C127.161 277.914 124.872 278.686 122.537 279.287C120.247 279.89 117.891 280.199 115.524 280.208C113.703 280.243 111.898 279.85 110.255 279.06C108.75 278.323 107.419 277.273 106.348 275.981C105.259 274.66 104.43 273.143 103.903 271.512C103.338 269.798 103.054 268.004 103.062 266.198C103.093 264.598 103.377 263.014 103.903 261.503C104.51 259.701 105.322 257.975 106.323 256.36C107.444 254.556 108.745 252.87 110.205 251.328C111.749 249.678 113.485 248.218 115.374 246.98C117.334 245.701 119.452 244.686 121.675 243.961C124.039 243.188 126.512 242.802 128.998 242.819ZM127.21 249.673C127.064 249.64 126.914 249.623 126.764 249.622H126.318C125.11 249.613 123.914 249.867 122.812 250.367C121.718 250.865 120.704 251.527 119.807 252.33C118.896 253.156 118.085 254.089 117.392 255.107C116.686 256.114 116.05 257.12 115.474 258.127C114.947 259.066 114.476 260.036 114.061 261.03C113.681 261.961 113.395 262.736 113.195 263.365C114.352 262.771 115.544 262.092 116.781 261.352C118.019 260.613 119.181 259.843 120.288 259.163C121.395 258.484 122.321 257.84 123.133 257.276C123.944 256.713 124.505 256.335 124.836 256.134C126.016 255.472 127.056 254.587 127.901 253.527C128.385 252.922 128.678 252.187 128.743 251.414C128.753 251.194 128.716 250.974 128.635 250.769C128.554 250.564 128.43 250.379 128.272 250.226C127.982 249.937 127.612 249.744 127.21 249.673Z" fill="black"/>
<path d="M194.255 267.109C192.703 268.862 191.007 270.481 189.186 271.95C187.305 273.492 185.315 274.895 183.231 276.147C181.319 277.311 179.308 278.299 177.22 279.101C175.521 279.793 173.713 280.173 171.88 280.223C170.471 280.284 169.092 279.804 168.023 278.879C167.022 277.984 166.521 276.461 166.521 274.31C166.561 272.512 166.827 270.727 167.312 268.996C166.363 270.398 165.288 271.71 164.101 272.916C162.768 274.282 161.292 275.498 159.698 276.544C157.976 277.672 156.114 278.565 154.158 279.201C152.002 279.894 149.75 280.234 147.486 280.208C146.43 280.21 145.376 280.091 144.346 279.856C143.392 279.647 142.492 279.243 141.701 278.668C140.918 278.073 140.291 277.296 139.873 276.403C139.38 275.297 139.144 274.093 139.182 272.881C139.182 272.846 139.247 272.343 139.377 271.371C139.665 269.798 140.087 268.252 140.639 266.752C141.347 264.648 142.442 261.924 143.925 258.58C145.408 255.235 147.502 251.177 150.206 246.407C150.754 245.307 151.582 244.373 152.606 243.699C153.491 243.155 154.508 242.868 155.546 242.869C156.028 242.871 156.509 242.928 156.979 243.04C157.466 243.152 157.934 243.337 158.366 243.589C158.775 243.826 159.127 244.151 159.398 244.54C159.662 244.928 159.8 245.388 159.794 245.858C159.795 246.178 159.745 246.496 159.643 246.799C159.379 247.578 159.023 248.321 158.581 249.013C158.035 249.924 157.404 250.966 156.678 252.138C155.952 253.311 155.175 254.584 154.379 255.943C153.582 257.301 152.821 258.705 152.13 260.165C151.443 261.607 150.848 263.091 150.347 264.608C149.881 266.027 149.608 267.503 149.535 268.996C149.535 269.579 149.71 270.149 150.036 270.632C150.221 270.887 150.469 271.09 150.755 271.22C151.041 271.351 151.356 271.405 151.669 271.376C153.839 271.37 155.963 270.751 157.8 269.59C159.775 268.367 161.576 266.88 163.155 265.172C164.804 263.398 166.3 261.488 167.628 259.46C168.963 257.424 170.077 255.56 170.969 253.869C171.611 252.706 172.164 251.495 172.622 250.246C173.07 249.024 173.59 247.829 174.179 246.668C174.678 245.663 175.329 244.741 176.108 243.936C176.463 243.577 176.887 243.295 177.355 243.107C177.823 242.919 178.324 242.83 178.828 242.844C179.352 242.817 179.876 242.906 180.363 243.103C180.85 243.3 181.288 243.602 181.648 243.986C182.332 244.728 182.704 245.707 182.685 246.719C182.62 247.572 182.393 248.406 182.018 249.174C181.573 250.221 181.017 251.409 180.335 252.752C179.654 254.096 178.928 255.525 178.136 257.05C177.345 258.575 176.609 260.119 175.938 261.694C175.285 263.199 174.723 264.742 174.255 266.314C173.832 267.673 173.608 269.087 173.588 270.511C173.588 271.703 174.31 272.297 175.762 272.297C177.075 272.233 178.365 271.929 179.569 271.401C181.24 270.724 182.839 269.881 184.343 268.885C186.101 267.742 187.775 266.472 189.352 265.086C190.979 263.665 192.461 262.084 193.775 260.366L194.255 267.109Z" fill="black"/>
<path d="M249.214 233.082C251.862 232.027 254.439 230.8 256.928 229.408C258.882 228.324 260.736 227.068 262.468 225.654C263.755 224.624 264.888 223.412 265.829 222.056C266.513 221.131 266.915 220.026 266.986 218.876C266.947 218.45 266.771 218.049 266.485 217.733C266.072 217.235 265.56 216.829 264.982 216.541C264.175 216.13 263.32 215.821 262.438 215.62C261.269 215.357 260.074 215.232 258.876 215.248C255.469 215.22 252.075 215.664 248.788 216.566C245.88 217.371 243.051 218.444 240.338 219.771C237.998 220.911 235.749 222.23 233.611 223.717C231.668 225.095 230.036 226.297 228.717 227.32C227.959 227.889 227.24 228.511 226.568 229.182C225.957 229.796 225.363 230.342 224.785 230.822C224.223 231.294 223.599 231.686 222.932 231.99C222.181 232.305 221.372 232.457 220.558 232.437C219.393 232.506 218.244 232.148 217.322 231.431C216.932 231.088 216.624 230.661 216.422 230.182C216.22 229.702 216.128 229.183 216.155 228.663C216.155 227.238 216.714 225.728 217.833 224.134C219.15 222.326 220.715 220.713 222.481 219.344C224.664 217.625 226.998 216.109 229.454 214.815C232.228 213.315 235.114 212.031 238.084 210.975C241.226 209.867 244.444 208.988 247.711 208.343C251.025 207.681 254.396 207.344 257.775 207.337C260.787 207.296 263.795 207.584 266.746 208.197C268.912 208.63 270.992 209.419 272.902 210.532C274.363 211.388 275.586 212.599 276.458 214.055C277.23 215.399 277.631 216.926 277.62 218.478C277.565 220.25 277.017 221.971 276.037 223.445C274.801 225.385 273.281 227.127 271.529 228.613C269.318 230.507 266.916 232.163 264.361 233.555C261.305 235.233 258.123 236.67 254.844 237.852C257.797 238.778 260.65 240.001 263.36 241.5C265.266 242.554 267.001 243.894 268.504 245.476C269.652 246.689 270.509 248.15 271.008 249.748C271.438 251.219 271.655 252.744 271.654 254.277C271.625 256.662 270.968 258.997 269.751 261.045C268.374 263.419 266.609 265.544 264.532 267.33C262.107 269.443 259.454 271.276 256.622 272.795C253.433 274.526 250.1 275.972 246.66 277.118C242.948 278.355 239.146 279.3 235.289 279.946C231.285 280.622 227.232 280.959 223.172 280.953C221.703 280.951 220.235 280.867 218.774 280.701C217.385 280.555 216.016 280.257 214.692 279.81C213.581 279.446 212.557 278.853 211.687 278.069C211.304 277.707 211.002 277.267 210.801 276.779C210.601 276.29 210.507 275.764 210.525 275.236C210.517 275.112 210.517 274.988 210.525 274.864C210.525 274.748 210.565 274.612 210.6 274.446C210.73 274.179 210.88 273.857 211.046 273.475C211.305 272.996 211.701 272.607 212.183 272.358C213.057 271.898 214.002 271.586 214.978 271.437C216.783 271.149 218.61 271.024 220.437 271.064C224.575 263.493 227.989 256.966 230.681 251.484C233.372 246.002 235.621 241.49 237.428 237.948C238.757 235.223 240.286 232.6 242.001 230.103C243.237 228.425 244.449 227.586 245.638 227.586C246.159 227.586 246.676 227.671 247.17 227.838C247.639 227.99 248.08 228.216 248.478 228.507C248.854 228.784 249.167 229.14 249.394 229.549C249.626 229.968 249.745 230.439 249.74 230.918C249.497 231.202 249.342 231.552 249.294 231.924C249.254 232.261 249.214 232.654 249.214 233.082ZM246.494 242.567C245.012 245.949 243.619 248.98 242.317 251.66C241.014 254.341 239.787 256.8 238.635 259.037C237.483 261.272 236.388 263.357 235.349 265.292C234.311 267.228 233.296 269.124 232.304 270.979C235.932 270.687 239.52 270.013 243.008 268.966C246.037 268.081 248.945 266.82 251.664 265.212C253.891 263.917 255.854 262.209 257.449 260.18C258.78 258.516 259.519 256.452 259.548 254.317C259.531 253.309 259.322 252.313 258.932 251.384C258.434 250.231 257.72 249.185 256.828 248.304C255.629 247.126 254.282 246.11 252.821 245.285C250.82 244.158 248.706 243.247 246.514 242.567H246.494Z" fill="black"/>
<path d="M328.937 264.668C328.346 265.232 327.555 266.007 326.563 267.003C325.571 268 324.444 269.072 323.177 270.229C321.91 271.386 320.557 272.559 319.125 273.752C317.722 274.907 316.251 275.977 314.722 276.957C313.316 277.867 311.837 278.657 310.299 279.317C309.005 279.897 307.608 280.21 306.191 280.238C305.153 280.266 304.127 280.007 303.226 279.488C302.411 279.002 301.712 278.342 301.177 277.556C300.618 276.732 300.208 275.815 299.965 274.849C299.7 273.835 299.567 272.791 299.57 271.744C299.569 271.053 299.619 270.364 299.72 269.681C299.812 269.026 299.981 268.384 300.221 267.768C299.199 269.157 298.03 270.59 296.714 272.066C295.43 273.525 294.024 274.872 292.512 276.091C291.069 277.267 289.494 278.268 287.818 279.076C286.27 279.833 284.572 280.232 282.85 280.243C281.829 280.223 280.816 280.054 279.844 279.74C278.67 279.372 277.573 278.791 276.608 278.024C275.55 277.184 274.674 276.136 274.034 274.944C273.303 273.518 272.946 271.928 272.997 270.325C273.031 268.685 273.239 267.054 273.618 265.459C274.069 263.444 274.698 261.474 275.496 259.571C276.373 257.46 277.448 255.438 278.707 253.532C280.003 251.552 281.558 249.756 283.33 248.193C285.141 246.6 287.194 245.309 289.411 244.369C291.825 243.365 294.418 242.867 297.03 242.904C298.318 242.881 299.601 243.064 300.832 243.448C301.79 243.758 302.718 244.157 303.602 244.64C304.419 245.139 305.181 245.722 305.876 246.382C306.437 246.08 307.013 245.798 307.609 245.536C308.116 245.299 308.636 245.091 309.167 244.912C309.619 244.748 310.094 244.656 310.574 244.64C311.689 244.595 312.782 244.966 313.64 245.682C313.99 245.947 314.278 246.286 314.484 246.674C314.69 247.063 314.809 247.492 314.832 247.931C314.838 248.116 314.821 248.3 314.782 248.48C314.618 249.111 314.363 249.906 314.016 250.865C313.668 251.825 313.281 252.892 312.853 254.066C312.428 255.243 311.987 256.471 311.546 257.744C311.105 259.017 310.695 260.26 310.334 261.493C309.973 262.726 309.673 263.868 309.442 264.945C309.233 265.85 309.117 266.774 309.097 267.703C309.068 268.551 309.24 269.395 309.598 270.164C309.749 270.474 309.99 270.732 310.289 270.905C310.588 271.077 310.932 271.155 311.276 271.13C311.889 271.101 312.488 270.939 313.034 270.657C313.797 270.292 314.532 269.87 315.233 269.394C316.024 268.86 316.841 268.255 317.682 267.577C318.519 266.903 319.335 266.213 320.126 265.519C321.973 263.865 323.935 261.976 326.012 259.853C326.434 259.467 326.975 259.239 327.545 259.209C327.88 259.214 328.208 259.307 328.498 259.477C328.787 259.647 329.028 259.889 329.198 260.18C329.64 260.811 329.875 261.566 329.869 262.339C329.88 262.77 329.802 263.199 329.642 263.6C329.482 264.001 329.242 264.364 328.937 264.668ZM294.676 251.852C293.097 251.858 291.545 252.268 290.168 253.044C288.707 253.848 287.401 254.908 286.311 256.174C285.192 257.469 284.291 258.937 283.641 260.522C282.994 262.054 282.653 263.699 282.639 265.363C282.64 266.053 282.682 266.741 282.764 267.426C282.837 268.108 283.029 268.773 283.33 269.389C283.621 269.988 284.055 270.507 284.593 270.898C285.244 271.326 286.014 271.534 286.792 271.492C287.714 271.421 288.598 271.086 289.336 270.526C290.41 269.79 291.416 268.958 292.342 268.04C293.416 266.989 294.432 265.879 295.382 264.714C296.384 263.506 297.274 262.322 298.052 261.161C298.751 260.154 299.395 259.109 299.98 258.031C300.365 257.42 300.618 256.734 300.722 256.018C300.721 255.386 300.491 254.776 300.075 254.302C299.629 253.775 299.095 253.329 298.498 252.984C297.869 252.623 297.195 252.347 296.494 252.164C295.902 251.988 295.292 251.885 294.676 251.857V251.852Z" fill="black"/>
<path d="M331.707 248.827C332.237 247.567 333.089 246.47 334.177 245.647C335.019 245.004 336.04 244.64 337.097 244.605C337.891 244.607 338.652 244.92 339.221 245.476C339.55 245.81 339.804 246.211 339.966 246.652C340.128 247.093 340.195 247.563 340.162 248.032C340.159 248.501 340.108 248.968 340.012 249.426C339.897 249.975 339.715 250.507 339.471 251.011C340.373 249.919 341.422 248.959 342.587 248.158C343.995 247.152 345.493 246.278 347.06 245.546C348.685 244.768 350.372 244.128 352.104 243.634C353.701 243.156 355.357 242.905 357.023 242.889C358.577 242.83 360.11 243.273 361.396 244.152C362.568 244.998 363.154 246.43 363.154 248.45C363.145 249.71 362.961 250.964 362.608 252.174C362.235 253.499 361.765 254.794 361.2 256.048C360.624 257.342 359.978 258.61 359.272 259.848C358.566 261.086 357.864 262.258 357.168 263.37L355.265 266.389C354.689 267.3 354.238 268.05 353.907 268.649C353.483 269.165 353.255 269.816 353.266 270.486C353.26 270.74 353.348 270.987 353.511 271.18C353.612 271.287 353.736 271.369 353.873 271.421C354.01 271.472 354.157 271.491 354.303 271.477C354.568 271.473 354.833 271.45 355.094 271.407C355.487 271.315 355.857 271.144 356.181 270.903C358.056 270.197 359.881 269.367 361.646 268.417C363.504 267.411 365.298 266.374 367.011 265.267C368.724 264.16 370.297 263.048 371.729 261.936C373.162 260.824 374.359 259.828 375.316 258.917C375.548 258.703 375.816 258.533 376.107 258.413C376.344 258.322 376.595 258.273 376.848 258.268C377.103 258.258 377.356 258.311 377.585 258.424C377.814 258.536 378.012 258.704 378.161 258.912C378.487 259.394 378.65 259.969 378.627 260.552C378.579 261.755 378.25 262.929 377.665 263.979C376.916 265.36 375.879 266.562 374.624 267.502C372.748 268.843 371.025 270.085 369.455 271.225C367.886 272.366 366.288 273.418 364.661 274.381C362.967 275.389 361.218 276.301 359.422 277.113C357.296 278.053 355.107 278.842 352.87 279.473C352.099 279.714 351.314 279.912 350.521 280.067C349.877 280.193 349.223 280.26 348.568 280.268C346.819 280.268 345.562 279.765 344.736 278.799C343.909 277.833 343.524 276.459 343.524 274.703C343.524 274.471 343.524 274.25 343.549 274.033C343.574 273.817 343.589 273.575 343.624 273.314C343.72 272.151 343.996 271.01 344.44 269.932C344.946 268.643 345.523 267.383 346.168 266.158C346.836 264.87 347.554 263.587 348.322 262.308C349.09 261.03 349.79 259.822 350.421 258.685C351.062 257.543 351.598 256.521 352.029 255.631C352.394 254.955 352.613 254.209 352.67 253.442C352.681 252.983 352.532 252.534 352.249 252.174C352.093 251.997 351.898 251.859 351.68 251.772C351.462 251.684 351.226 251.65 350.992 251.67C348.846 251.681 346.752 252.339 344.981 253.557C343.026 254.85 341.24 256.385 339.667 258.127C338.018 259.964 336.498 261.915 335.118 263.964C333.736 266.017 332.517 267.862 331.462 269.499C330.785 270.634 330.181 271.81 329.654 273.022C329.113 274.265 328.542 275.427 327.951 276.499C327.421 277.489 326.745 278.394 325.947 279.181C325.575 279.537 325.136 279.815 324.656 279.999C324.177 280.183 323.665 280.269 323.152 280.253C322.647 280.278 322.142 280.193 321.672 280.004C321.203 279.814 320.78 279.525 320.432 279.156C319.767 278.425 319.408 277.464 319.43 276.474C319.52 275.533 319.753 274.611 320.121 273.741C320.582 272.483 321.175 271.027 321.9 269.374C322.624 267.72 323.441 265.93 324.349 264.004C325.257 262.095 326.164 260.207 327.069 258.338C327.974 256.469 328.839 254.706 329.664 253.049C330.502 251.402 331.183 249.995 331.707 248.827Z" fill="black"/>
<path d="M400.927 268.895C400.893 268.973 400.876 269.057 400.877 269.142C400.879 269.228 400.864 269.314 400.831 269.394C400.843 270.039 400.993 270.674 401.272 271.256C401.384 271.546 401.582 271.794 401.839 271.967C402.096 272.14 402.4 272.229 402.71 272.222C402.911 272.233 403.113 272.201 403.301 272.126C405.317 271.497 407.238 270.595 409.011 269.444C410.944 268.214 412.802 266.87 414.576 265.418C416.292 264.015 417.933 262.524 419.495 260.95C420.991 259.423 422.235 258.065 423.227 256.874C423.402 256.626 423.631 256.421 423.896 256.274C424.162 256.128 424.457 256.044 424.759 256.028C425.017 256.035 425.27 256.101 425.498 256.223C425.726 256.344 425.922 256.517 426.072 256.728C426.474 257.271 426.674 257.939 426.638 258.615C426.614 259.385 426.444 260.143 426.137 260.849C425.705 261.854 425.131 262.791 424.434 263.632C422.49 265.782 420.497 267.852 418.453 269.842C416.51 271.738 414.445 273.505 412.272 275.13C410.341 276.583 408.26 277.823 406.066 278.829C404.169 279.72 402.104 280.195 400.01 280.223C397.602 280.223 395.707 279.535 394.325 278.16C392.942 276.784 392.249 274.723 392.246 271.975V271.472C392.246 271.303 392.262 271.134 392.296 270.969C391.521 272.376 390.538 273.657 389.381 274.768C388.204 275.903 386.892 276.886 385.474 277.697C384.084 278.495 382.606 279.128 381.071 279.584C379.645 280.019 378.164 280.246 376.673 280.258C375.532 280.269 374.396 280.099 373.307 279.755C372.313 279.441 371.407 278.896 370.662 278.165C369.885 277.379 369.295 276.428 368.934 275.382C368.49 274.072 368.279 272.694 368.313 271.311C368.3 268.615 368.735 265.937 369.6 263.385C370.43 260.943 371.577 258.621 373.011 256.481C374.406 254.407 376.04 252.507 377.88 250.82C379.631 249.21 381.537 247.779 383.57 246.548C385.415 245.427 387.379 244.518 389.426 243.84C391.147 243.251 392.948 242.934 394.766 242.899C396.431 242.856 398.085 243.177 399.614 243.84C400.291 244.187 400.909 244.641 401.443 245.184C401.573 244.882 401.708 244.605 401.838 244.339C402.169 243.543 402.464 242.829 402.73 242.275C402.995 241.722 403.171 241.269 403.271 241.007C403.371 240.746 403.652 240.001 404.112 238.924C404.573 237.847 405.114 236.549 405.72 235.074C406.326 233.6 406.988 232.02 407.699 230.329C408.41 228.638 409.056 227.053 409.652 225.564L411.185 221.714C411.611 220.637 411.876 219.948 411.972 219.651C412.205 218.818 412.521 218.011 412.913 217.24C413.287 216.507 413.761 215.829 414.321 215.227C414.865 214.649 415.51 214.177 416.224 213.834C417.001 213.482 417.847 213.31 418.699 213.33C419.794 213.288 420.878 213.572 421.814 214.146C422.636 214.694 423.051 215.746 423.051 217.301C423.048 217.954 422.964 218.605 422.801 219.238C422.636 219.902 422.445 220.546 422.235 221.175C422.025 221.804 421.789 222.428 421.544 223.037C421.298 223.646 421.073 224.225 420.872 224.753C419.223 228.064 417.493 231.666 415.683 235.557C413.873 239.449 412.077 243.364 410.293 247.302C408.517 251.241 406.819 255.082 405.199 258.826C403.58 262.57 402.156 265.927 400.927 268.895ZM399.424 249.471C397.292 249.572 395.19 250.008 393.193 250.765C390.699 251.623 388.378 252.923 386.34 254.604C384.221 256.361 382.437 258.491 381.076 260.889C379.603 263.508 378.765 266.439 378.632 269.444C378.632 270.767 379.188 271.427 380.31 271.427C381.676 271.432 383.026 271.136 384.267 270.561C385.562 269.953 386.768 269.167 387.848 268.226C389.02 267.216 390.089 266.092 391.039 264.87C392.026 263.615 392.942 262.307 393.784 260.95C394.625 259.608 395.383 258.266 396.058 256.924C396.734 255.585 397.32 254.332 397.811 253.175L398.507 251.635C398.768 250.981 399.083 250.266 399.444 249.471H399.424Z" fill="black"/>
<path d="M440.828 242.819C443.563 242.819 445.607 243.49 446.959 244.832C448.312 246.174 448.98 248.019 448.963 250.367C448.93 251.888 448.559 253.382 447.876 254.74C446.943 256.525 445.664 258.104 444.114 259.385C441.914 261.245 439.519 262.86 436.971 264.2C433.362 266.118 429.619 267.77 425.771 269.142C425.847 269.609 426.024 270.053 426.289 270.444C426.553 270.835 426.9 271.164 427.304 271.407C428.342 271.996 429.524 272.279 430.715 272.222C432.361 272.205 433.999 271.98 435.589 271.552C437.338 271.098 439.055 270.527 440.728 269.842C442.426 269.142 444.084 268.392 445.697 267.577C447.31 266.762 448.772 265.997 450.075 265.267C451.377 264.538 452.464 263.914 453.336 263.38C453.904 263.015 454.491 262.679 455.094 262.374C455.337 262.198 455.616 262.08 455.91 262.027C456.131 261.994 456.354 261.977 456.576 261.976C456.93 261.96 457.281 262.055 457.578 262.248C457.836 262.425 458.061 262.644 458.245 262.897C458.422 263.134 458.55 263.404 458.62 263.692C458.679 263.928 458.711 264.169 458.715 264.412C458.711 264.769 458.679 265.126 458.62 265.479C458.494 266.006 458.237 266.492 457.874 266.893C457.71 267.06 457.159 267.508 456.221 268.236C455.283 268.964 454.07 269.825 452.584 270.818C451.082 271.824 449.379 272.861 447.42 273.973C445.402 275.109 443.322 276.129 441.189 277.027C438.965 277.964 436.677 278.736 434.342 279.337C432.052 279.94 429.696 280.249 427.329 280.258C425.509 280.293 423.706 279.9 422.064 279.111C420.56 278.373 419.228 277.324 418.158 276.031C417.067 274.711 416.238 273.195 415.713 271.563C415.148 269.849 414.863 268.054 414.872 266.249C414.903 264.649 415.187 263.064 415.713 261.554C416.318 259.751 417.13 258.025 418.132 256.411C419.254 254.606 420.555 252.92 422.014 251.379C423.559 249.728 425.295 248.268 427.184 247.031C429.144 245.752 431.262 244.736 433.485 244.011C435.853 243.219 438.333 242.816 440.828 242.819ZM439.055 249.673C438.909 249.64 438.759 249.624 438.609 249.622H438.163C436.955 249.613 435.759 249.867 434.657 250.367C433.563 250.865 432.549 251.527 431.652 252.33C430.738 253.15 429.924 254.075 429.227 255.087C428.519 256.114 427.885 257.132 427.324 258.142C426.799 259.081 426.329 260.051 425.916 261.045C425.536 261.976 425.25 262.751 425.05 263.38C426.202 262.786 427.397 262.115 428.636 261.367C429.875 260.619 431.044 259.89 432.143 259.178C433.228 258.484 434.175 257.855 434.983 257.291C435.794 256.728 436.36 256.35 436.691 256.149C437.871 255.487 438.912 254.602 439.756 253.542C440.24 252.938 440.533 252.202 440.598 251.429C440.607 251.209 440.569 250.989 440.488 250.785C440.407 250.58 440.284 250.395 440.127 250.241C439.837 249.945 439.462 249.746 439.055 249.673Z" fill="black"/>
<path d="M481.321 247.438C481.309 248.58 481.194 249.719 480.975 250.84C480.755 252.06 480.373 253.245 479.838 254.363C479.352 255.401 478.662 256.331 477.81 257.095C476.961 257.834 475.866 258.224 474.744 258.187C474.303 258.246 473.855 258.141 473.487 257.89C473.271 257.586 473.174 257.214 473.211 256.843C473.211 256.547 473.211 256.109 473.211 255.53C473.211 254.951 473.211 254.393 473.211 253.864C473.225 253.35 473.142 252.838 472.966 252.355C472.801 251.942 472.39 251.736 471.729 251.736C470.818 251.785 469.937 252.084 469.184 252.601C468.164 253.247 467.218 254.005 466.364 254.861C465.378 255.848 464.461 256.902 463.619 258.016C462.753 259.161 461.953 260.356 461.225 261.594C460.558 262.714 459.994 263.893 459.542 265.116C459.174 266.033 458.965 267.007 458.926 267.995C458.901 268.513 458.997 269.03 459.206 269.505C459.416 269.979 459.733 270.398 460.133 270.727C461.079 271.439 462.243 271.795 463.424 271.734C465.034 271.712 466.632 271.461 468.172 270.989C469.884 270.478 471.557 269.847 473.181 269.102C474.849 268.337 476.452 267.512 478.005 266.616C479.558 265.72 480.96 264.87 482.233 264.06C483.505 263.249 484.562 262.55 485.418 261.971C485.961 261.587 486.523 261.231 487.101 260.904C487.564 260.654 488.079 260.518 488.604 260.507C488.957 260.499 489.305 260.594 489.606 260.779C489.87 260.947 490.096 261.168 490.272 261.428C490.437 261.646 490.565 261.891 490.648 262.152C490.708 262.389 490.741 262.633 490.748 262.877C490.742 263.235 490.708 263.591 490.648 263.944C490.524 264.471 490.269 264.957 489.906 265.358C489.743 265.559 489.207 266.062 488.298 266.868C487.39 267.673 486.221 268.625 484.792 269.726C483.36 270.819 481.712 271.994 479.848 273.248C477.934 274.517 475.936 275.654 473.868 276.65C471.738 277.677 469.53 278.531 467.266 279.206C465.084 279.867 462.818 280.206 460.539 280.213C459.011 280.239 457.492 279.969 456.066 279.418C454.834 278.931 453.715 278.194 452.78 277.254C451.896 276.34 451.214 275.249 450.776 274.053C450.313 272.823 450.075 271.519 450.075 270.204C450.127 268.443 450.477 266.704 451.112 265.061C451.868 262.99 452.829 261.001 453.982 259.123C455.255 257.026 456.692 255.034 458.28 253.165C459.89 251.25 461.687 249.502 463.644 247.947C465.495 246.473 467.523 245.239 469.68 244.273C471.677 243.368 473.841 242.895 476.031 242.884C476.724 242.879 477.414 242.962 478.085 243.131C478.688 243.279 479.257 243.54 479.763 243.901C480.257 244.266 480.648 244.753 480.9 245.315C481.194 245.983 481.338 246.708 481.321 247.438Z" fill="black"/>
<path d="M506.837 242.869C508.187 242.887 509.531 243.056 510.844 243.372C512.268 243.694 513.625 244.267 514.851 245.063C516.086 245.874 517.124 246.952 517.892 248.218C518.739 249.686 519.159 251.363 519.104 253.059C519.085 254.204 518.953 255.343 518.708 256.461C518.419 257.832 518.022 259.178 517.521 260.487C517.821 260.863 518.212 261.154 518.658 261.332C519.1 261.5 519.568 261.583 520.04 261.579C520.841 261.552 521.626 261.35 522.34 260.985C523.249 260.548 524.118 260.032 524.939 259.445C525.868 258.782 526.759 258.068 527.609 257.306C528.494 256.511 529.329 255.716 530.114 254.921C530.905 254.126 531.616 253.376 532.262 252.662C532.908 251.947 533.444 251.348 533.87 250.85C533.98 250.738 534.111 250.649 534.255 250.589C534.4 250.529 534.555 250.5 534.712 250.503C534.96 250.515 535.202 250.587 535.417 250.712C535.633 250.837 535.815 251.012 535.949 251.223C536.343 251.816 536.533 252.523 536.49 253.235C536.447 254.272 536.185 255.287 535.724 256.214C535.028 257.572 534.061 258.771 532.883 259.737C532.092 260.596 531.185 261.589 530.164 262.716C529.141 263.843 528.051 264.905 526.898 265.896C525.784 266.856 524.575 267.699 523.291 268.412C522.149 269.078 520.855 269.439 519.535 269.459C518.684 269.46 517.839 269.326 517.03 269.062C516.153 268.757 515.327 268.321 514.581 267.768C513.417 269.6 512.058 271.299 510.528 272.836C509.013 274.357 507.309 275.676 505.459 276.761C503.571 277.864 501.551 278.723 499.448 279.317C497.203 279.943 494.881 280.253 492.551 280.238C491.459 280.208 490.376 280.024 489.335 279.689C488.076 279.301 486.897 278.687 485.854 277.878C484.705 276.982 483.753 275.856 483.059 274.572C482.258 273.043 481.866 271.332 481.922 269.605C481.959 267.998 482.174 266.399 482.563 264.84C483.033 262.868 483.687 260.946 484.517 259.098C485.437 257.046 486.546 255.086 487.828 253.24C489.174 251.29 490.78 249.534 492.601 248.022C494.499 246.45 496.635 245.193 498.928 244.298C501.45 243.322 504.134 242.837 506.837 242.869ZM504.262 251.61C502.697 251.613 501.158 252.015 499.789 252.777C498.346 253.565 497.056 254.608 495.982 255.857C494.872 257.143 493.978 258.604 493.337 260.18C492.681 261.744 492.34 263.424 492.336 265.121C492.338 265.81 492.387 266.498 492.481 267.18C492.574 267.905 492.784 268.61 493.102 269.268C493.414 269.911 493.88 270.467 494.459 270.883C495.164 271.343 495.995 271.568 496.834 271.527C498.389 271.518 499.914 271.098 501.257 270.31C502.71 269.485 504.007 268.411 505.089 267.134C506.22 265.812 507.122 264.308 507.758 262.686C508.413 261.089 508.753 259.38 508.76 257.654C508.757 256.966 508.715 256.279 508.635 255.595C508.561 254.91 508.361 254.244 508.044 253.633C507.727 253.031 507.257 252.524 506.681 252.164C505.942 251.755 505.104 251.564 504.262 251.61Z" fill="black"/>
<path d="M84.9842 181.802C85.2814 178.953 85.6438 175.659 86.0712 171.918C86.4986 168.178 86.9611 164.261 87.4587 160.168C87.9496 156.079 88.4505 151.964 88.9614 147.824C89.4723 143.685 89.9732 139.81 90.4641 136.2C88.7176 139.582 86.9545 142.977 85.1746 146.385L80.1055 156.097C78.5026 159.157 77.035 161.929 75.7026 164.415C74.3702 166.901 73.2916 168.914 72.4668 170.454C71.7054 171.481 70.9474 172.457 70.1927 173.383C69.4944 174.243 68.7415 175.056 67.9386 175.818C67.273 176.457 66.5349 177.014 65.7397 177.479C65.0991 177.872 64.3663 178.087 63.6159 178.103C62.8381 178.144 62.0677 177.934 61.4169 177.504C61.1433 177.298 60.9253 177.027 60.7827 176.715C60.6401 176.403 60.5774 176.06 60.6005 175.718C60.5901 175.56 60.5901 175.402 60.6005 175.245C60.6186 175.082 60.6591 174.923 60.7207 174.772C60.527 170.075 60.3784 165.331 60.2749 160.541C60.1713 155.75 60.1229 151.04 60.1296 146.41V143.109C60.1296 142.012 60.1296 140.94 60.1797 139.879C58.844 142.858 57.4097 145.954 55.877 149.168C54.3442 152.382 52.7297 155.552 51.0333 158.679C49.3636 161.809 47.6322 164.828 45.839 167.737C44.0457 170.645 42.2659 173.277 40.4994 175.632C38.9051 177.781 37.1449 179.8 35.2349 181.671C33.8091 183.143 32.1244 184.337 30.266 185.193C29.0934 185.687 27.8863 186.094 26.6545 186.411C25.7653 186.641 24.8526 186.766 23.9346 186.783C22.997 186.855 22.0635 186.601 21.2899 186.064C21.0205 185.856 20.8026 185.588 20.6532 185.282C20.5037 184.976 20.4268 184.639 20.4283 184.297C20.477 183.345 20.8421 182.436 21.4652 181.716C22.2307 180.769 23.2385 180.048 24.3804 179.633C25.8998 179.036 27.5561 177.719 29.3493 175.682C31.3753 173.341 33.2349 170.859 34.9143 168.255C36.8244 165.34 38.7529 162.094 40.6997 158.518C42.6466 154.941 44.5333 151.317 46.3599 147.643C48.1898 143.953 49.9113 140.352 51.5242 136.839C53.137 133.327 54.5713 130.14 55.8269 127.278C57.0791 124.43 58.1093 122.053 58.9174 120.147C59.7239 118.245 60.2298 117.063 60.4201 116.595C60.8082 115.648 61.4967 114.858 62.3787 114.345C63.14 113.901 64.0027 113.662 64.8831 113.651C66.0719 113.651 66.8968 113.973 67.3576 114.617C67.8184 115.261 68.0488 116.414 68.0488 118.074C68.3126 120.157 68.5364 122.118 68.72 123.957C68.9037 125.795 69.059 127.684 69.1859 129.623C69.3161 131.555 69.4079 133.64 69.4614 135.878C69.5148 138.116 69.5382 140.69 69.5315 143.602C69.5315 145.692 69.4914 147.994 69.4113 150.506C69.3311 153.019 69.2977 155.831 69.3111 158.94C73.2682 151.724 76.7745 145.359 79.83 139.843C82.8855 134.328 85.5386 129.709 87.7893 125.985C89.5073 123.048 91.4147 120.227 93.4995 117.541C95.0456 115.635 96.2812 114.682 97.2062 114.682H97.5518C97.6501 114.693 97.7491 114.693 97.8473 114.682C97.9467 114.667 98.0472 114.658 98.1479 114.657C98.9393 114.657 99.5654 115.161 100.026 116.167C100.531 117.392 100.767 118.712 100.717 120.037C100.587 121.66 100.39 123.673 100.126 126.075C99.8626 128.477 99.5571 131.134 99.2098 134.046C98.8759 136.945 98.5052 139.999 98.0978 143.21C97.6904 146.42 97.2947 149.607 96.9107 152.771C96.5099 155.935 96.1359 158.997 95.7887 161.96C95.4414 164.922 95.1575 167.628 94.9371 170.077C94.8708 170.513 94.8373 170.954 94.8369 171.395V172.759C94.8369 173.624 94.8369 174.49 94.887 175.37C94.9371 176.251 94.9371 177.117 94.9371 177.977C94.9371 178.984 94.8887 179.99 94.7918 180.996C94.708 181.954 94.4302 182.883 93.9754 183.729C93.4874 184.594 92.7554 185.294 91.8716 185.742C90.635 186.314 89.2793 186.578 87.9195 186.512C87.5104 186.527 87.1036 186.444 86.7332 186.269C86.3628 186.094 86.0396 185.832 85.7907 185.505C85.2564 184.794 84.9876 183.559 84.9842 181.802Z" fill="white"/>
<path d="M128.998 149.168C131.733 149.168 133.777 149.839 135.129 151.181C136.482 152.523 137.15 154.368 137.133 156.716C137.1 158.237 136.729 159.731 136.046 161.089C135.113 162.872 133.836 164.451 132.289 165.734C130.089 167.58 127.698 169.183 125.156 170.514C121.552 172.427 117.814 174.074 113.971 175.441C114.047 175.908 114.224 176.353 114.49 176.744C114.756 177.136 115.104 177.464 115.509 177.705C116.547 178.295 117.729 178.577 118.92 178.521C120.565 178.504 122.2 178.279 123.789 177.851C125.538 177.397 127.255 176.826 128.928 176.14C130.626 175.441 132.284 174.691 133.897 173.876C135.51 173.061 136.973 172.296 138.275 171.566C139.577 170.836 140.664 170.212 141.536 169.679C142.407 169.146 142.998 168.819 143.294 168.673C143.537 168.497 143.816 168.378 144.11 168.325C144.331 168.293 144.554 168.276 144.777 168.275C145.13 168.26 145.48 168.355 145.778 168.547C146.034 168.726 146.258 168.945 146.445 169.196C146.619 169.434 146.745 169.704 146.815 169.991C146.874 170.227 146.906 170.468 146.91 170.711C146.906 171.068 146.874 171.425 146.815 171.777C146.689 172.303 146.435 172.79 146.074 173.191C145.909 173.358 145.358 173.805 144.416 174.535C143.474 175.265 142.267 176.125 140.779 177.117C139.292 178.108 137.574 179.16 135.615 180.272C133.597 181.408 131.517 182.428 129.384 183.326C127.161 184.263 124.872 185.035 122.537 185.636C120.247 186.239 117.891 186.548 115.524 186.557C113.703 186.592 111.898 186.199 110.255 185.41C108.75 184.672 107.419 183.622 106.348 182.33C105.259 181.009 104.43 179.492 103.903 177.861C103.338 176.148 103.054 174.353 103.062 172.547C103.093 170.947 103.377 169.363 103.903 167.852C104.51 166.05 105.322 164.325 106.323 162.709C107.444 160.905 108.745 159.219 110.205 157.677C111.749 156.027 113.485 154.567 115.374 153.33C117.334 152.05 119.452 151.035 121.675 150.31C124.039 149.537 126.512 149.151 128.998 149.168ZM127.21 156.022C127.064 155.989 126.914 155.973 126.764 155.971H126.318C125.11 155.962 123.914 156.216 122.812 156.716C121.718 157.215 120.704 157.876 119.807 158.679C118.896 159.505 118.085 160.438 117.392 161.456C116.686 162.463 116.05 163.469 115.474 164.476C114.947 165.415 114.476 166.385 114.061 167.379C113.681 168.31 113.395 169.085 113.195 169.714C114.352 169.12 115.544 168.441 116.781 167.701C118.019 166.962 119.181 166.192 120.288 165.512C121.395 164.833 122.321 164.189 123.133 163.625C123.944 163.062 124.505 162.684 124.836 162.483C126.016 161.821 127.056 160.936 127.901 159.876C128.385 159.272 128.678 158.536 128.743 157.763C128.753 157.543 128.716 157.323 128.635 157.118C128.554 156.913 128.43 156.728 128.272 156.575C127.982 156.286 127.612 156.093 127.21 156.022Z" fill="white"/>
<path d="M194.255 173.458C192.703 175.211 191.007 176.83 189.186 178.299C187.305 179.841 185.315 181.244 183.231 182.496C181.319 183.66 179.308 184.648 177.22 185.45C175.521 186.142 173.713 186.523 171.88 186.572C170.471 186.633 169.092 186.153 168.023 185.228C167.022 184.333 166.521 182.81 166.521 180.659C166.561 178.861 166.827 177.076 167.312 175.345C166.363 176.747 165.288 178.059 164.101 179.265C162.768 180.631 161.292 181.847 159.698 182.893C157.976 184.021 156.114 184.914 154.158 185.55C152.002 186.243 149.75 186.583 147.486 186.557C146.43 186.559 145.376 186.441 144.346 186.205C143.392 185.996 142.492 185.592 141.701 185.017C140.918 184.422 140.291 183.645 139.873 182.753C139.38 181.646 139.144 180.442 139.182 179.23C139.182 179.195 139.247 178.692 139.377 177.72C139.665 176.147 140.087 174.602 140.639 173.101C141.347 170.997 142.442 168.273 143.925 164.929C145.408 161.584 147.502 157.526 150.206 152.756C150.754 151.656 151.582 150.722 152.606 150.049C153.491 149.504 154.508 149.217 155.546 149.218C156.028 149.22 156.509 149.277 156.979 149.389C157.466 149.501 157.934 149.686 158.366 149.938C158.775 150.175 159.127 150.5 159.398 150.889C159.662 151.277 159.8 151.737 159.794 152.207C159.795 152.527 159.745 152.845 159.643 153.148C159.379 153.927 159.023 154.67 158.581 155.363C158.035 156.273 157.404 157.315 156.678 158.487C155.952 159.66 155.175 160.933 154.379 162.292C153.582 163.65 152.821 165.054 152.13 166.514C151.443 167.956 150.848 169.44 150.347 170.957C149.881 172.377 149.608 173.853 149.535 175.345C149.535 175.929 149.71 176.498 150.036 176.981C150.221 177.236 150.469 177.439 150.755 177.569C151.041 177.7 151.356 177.754 151.669 177.725C153.839 177.719 155.963 177.1 157.8 175.939C159.775 174.716 161.576 173.229 163.155 171.521C164.804 169.747 166.3 167.837 167.628 165.809C168.963 163.773 170.077 161.909 170.969 160.219C171.611 159.055 172.164 157.844 172.622 156.595C173.07 155.373 173.59 154.178 174.179 153.018C174.678 152.012 175.329 151.09 176.108 150.285C176.463 149.926 176.887 149.644 177.355 149.456C177.823 149.268 178.324 149.179 178.828 149.193C179.352 149.166 179.876 149.255 180.363 149.452C180.85 149.649 181.288 149.951 181.648 150.335C182.332 151.077 182.704 152.057 182.685 153.068C182.62 153.921 182.393 154.755 182.018 155.524C181.573 156.57 181.017 157.758 180.335 159.101C179.654 160.445 178.928 161.874 178.136 163.399C177.345 164.924 176.609 166.468 175.938 168.044C175.285 169.548 174.723 171.091 174.255 172.663C173.832 174.022 173.608 175.436 173.588 176.86C173.588 178.053 174.31 178.646 175.762 178.646C177.075 178.582 178.365 178.279 179.569 177.751C181.24 177.073 182.839 176.23 184.343 175.235C186.101 174.091 187.775 172.821 189.352 171.435C190.979 170.014 192.461 168.433 193.775 166.715L194.255 173.458Z" fill="white"/>
<path d="M249.214 139.431C251.862 138.376 254.439 137.149 256.928 135.757C258.882 134.673 260.736 133.417 262.468 132.003C263.755 130.973 264.888 129.761 265.829 128.405C266.513 127.48 266.915 126.375 266.986 125.225C266.947 124.799 266.771 124.398 266.485 124.083C266.072 123.584 265.56 123.178 264.982 122.89C264.175 122.479 263.32 122.17 262.438 121.969C261.269 121.706 260.074 121.581 258.876 121.597C255.469 121.569 252.075 122.013 248.788 122.915C245.88 123.721 243.051 124.794 240.338 126.121C237.998 127.26 235.749 128.579 233.611 130.066C231.668 131.445 230.036 132.646 228.717 133.669C227.959 134.238 227.24 134.86 226.568 135.531C225.957 136.145 225.363 136.691 224.785 137.171C224.223 137.643 223.599 138.036 222.932 138.339C222.181 138.654 221.372 138.807 220.558 138.787C219.393 138.855 218.244 138.498 217.322 137.78C216.932 137.438 216.624 137.01 216.422 136.531C216.22 136.052 216.128 135.532 216.155 135.012C216.155 133.587 216.714 132.077 217.833 130.483C219.15 128.675 220.715 127.062 222.481 125.693C224.664 123.974 226.998 122.459 229.454 121.164C232.228 119.664 235.114 118.38 238.084 117.324C241.226 116.217 244.444 115.337 247.711 114.693C251.025 114.031 254.396 113.694 257.775 113.686C260.787 113.645 263.795 113.933 266.746 114.547C268.912 114.979 270.992 115.768 272.902 116.882C274.363 117.737 275.586 118.948 276.458 120.404C277.23 121.748 277.631 123.275 277.62 124.827C277.565 126.599 277.017 128.32 276.037 129.794C274.801 131.734 273.281 133.476 271.529 134.962C269.318 136.856 266.916 138.512 264.361 139.904C261.305 141.582 258.123 143.019 254.844 144.201C257.797 145.127 260.65 146.35 263.36 147.849C265.266 148.903 267.001 150.244 268.504 151.825C269.652 153.038 270.509 154.5 271.008 156.097C271.438 157.568 271.655 159.093 271.654 160.626C271.625 163.011 270.968 165.346 269.751 167.394C268.374 169.768 266.609 171.893 264.532 173.68C262.107 175.792 259.454 177.625 256.622 179.145C253.433 180.875 250.1 182.321 246.66 183.467C242.948 184.704 239.146 185.649 235.289 186.295C231.285 186.971 227.232 187.308 223.172 187.302C221.703 187.3 220.235 187.216 218.774 187.05C217.385 186.905 216.016 186.606 214.692 186.159C213.581 185.795 212.557 185.202 211.687 184.418C211.304 184.056 211.002 183.616 210.801 183.128C210.601 182.639 210.507 182.113 210.525 181.585C210.517 181.461 210.517 181.337 210.525 181.213C210.525 181.097 210.565 180.961 210.6 180.795C210.73 180.528 210.88 180.206 211.046 179.824C211.305 179.346 211.701 178.956 212.183 178.707C213.057 178.247 214.002 177.936 214.978 177.786C216.783 177.498 218.61 177.374 220.437 177.413C224.575 169.842 227.989 163.315 230.681 157.833C233.372 152.352 235.621 147.839 237.428 144.297C238.757 141.572 240.286 138.949 242.001 136.452C243.237 134.774 244.449 133.936 245.638 133.936C246.159 133.936 246.676 134.021 247.17 134.187C247.639 134.339 248.08 134.565 248.478 134.856C248.854 135.133 249.167 135.489 249.394 135.898C249.626 136.317 249.745 136.788 249.74 137.267C249.497 137.551 249.342 137.901 249.294 138.273C249.254 138.61 249.214 139.003 249.214 139.431ZM246.494 148.916C245.012 152.298 243.619 155.329 242.317 158.009C241.014 160.69 239.787 163.149 238.635 165.387C237.483 167.621 236.388 169.706 235.349 171.642C234.311 173.577 233.296 175.473 232.304 177.328C235.932 177.037 239.52 176.362 243.008 175.315C246.037 174.43 248.945 173.169 251.664 171.561C253.891 170.266 255.854 168.558 257.449 166.529C258.78 164.865 259.519 162.801 259.548 160.666C259.531 159.658 259.322 158.662 258.932 157.733C258.434 156.58 257.72 155.534 256.828 154.653C255.629 153.475 254.282 152.46 252.821 151.634C250.82 150.507 248.706 149.596 246.514 148.916H246.494Z" fill="white"/>
<path d="M328.937 171.018C328.346 171.581 327.555 172.356 326.563 173.353C325.571 174.349 324.444 175.421 323.177 176.578C321.91 177.736 320.557 178.908 319.125 180.101C317.722 181.256 316.251 182.326 314.722 183.306C313.316 184.217 311.837 185.006 310.299 185.666C309.005 186.246 307.608 186.559 306.191 186.587C305.153 186.615 304.127 186.356 303.226 185.837C302.411 185.351 301.712 184.691 301.177 183.905C300.618 183.081 300.208 182.165 299.965 181.198C299.7 180.184 299.567 179.141 299.57 178.093C299.569 177.402 299.619 176.713 299.72 176.03C299.812 175.375 299.981 174.733 300.221 174.117C299.199 175.506 298.03 176.939 296.714 178.415C295.43 179.875 294.024 181.221 292.512 182.441C291.069 183.616 289.494 184.618 287.818 185.425C286.27 186.182 284.572 186.581 282.85 186.592C281.829 186.572 280.816 186.403 279.844 186.089C278.67 185.721 277.573 185.14 276.608 184.373C275.55 183.534 274.674 182.486 274.034 181.293C273.303 179.867 272.946 178.277 272.997 176.674C273.031 175.034 273.239 173.403 273.618 171.808C274.069 169.793 274.698 167.823 275.496 165.92C276.373 163.809 277.448 161.787 278.707 159.881C280.003 157.901 281.558 156.106 283.33 154.542C285.141 152.949 287.194 151.658 289.411 150.718C291.825 149.714 294.418 149.216 297.03 149.253C298.318 149.23 299.601 149.413 300.832 149.797C301.79 150.107 302.718 150.506 303.602 150.99C304.419 151.488 305.181 152.072 305.876 152.731C306.437 152.429 307.013 152.147 307.609 151.885C308.116 151.648 308.636 151.44 309.167 151.261C309.619 151.097 310.094 151.005 310.574 150.99C311.689 150.944 312.782 151.315 313.64 152.031C313.99 152.296 314.278 152.635 314.484 153.023C314.69 153.412 314.809 153.841 314.832 154.281C314.838 154.465 314.821 154.649 314.782 154.829C314.618 155.46 314.363 156.255 314.016 157.214C313.668 158.174 313.281 159.241 312.853 160.415C312.428 161.592 311.987 162.82 311.546 164.093C311.105 165.366 310.695 166.609 310.334 167.842C309.973 169.075 309.673 170.217 309.442 171.294C309.233 172.199 309.117 173.123 309.097 174.052C309.068 174.9 309.24 175.744 309.598 176.513C309.749 176.824 309.99 177.082 310.289 177.254C310.588 177.426 310.932 177.504 311.276 177.479C311.889 177.45 312.488 177.288 313.034 177.006C313.797 176.641 314.532 176.219 315.233 175.743C316.024 175.209 316.841 174.604 317.682 173.926C318.519 173.252 319.335 172.562 320.126 171.868C321.973 170.214 323.935 168.325 326.012 166.202C326.434 165.816 326.975 165.588 327.545 165.558C327.88 165.563 328.208 165.656 328.498 165.826C328.787 165.996 329.028 166.238 329.198 166.529C329.64 167.16 329.875 167.915 329.869 168.688C329.88 169.119 329.802 169.548 329.642 169.949C329.482 170.35 329.242 170.713 328.937 171.018ZM294.676 158.201C293.097 158.207 291.545 158.617 290.168 159.393C288.707 160.198 287.401 161.258 286.311 162.523C285.192 163.818 284.291 165.286 283.641 166.871C282.994 168.403 282.653 170.048 282.639 171.712C282.64 172.402 282.682 173.091 282.764 173.775C282.837 174.458 283.029 175.122 283.33 175.738C283.621 176.338 284.055 176.856 284.593 177.247C285.244 177.675 286.014 177.883 286.792 177.841C287.714 177.771 288.598 177.435 289.336 176.875C290.41 176.139 291.416 175.307 292.342 174.389C293.416 173.339 294.432 172.228 295.382 171.063C296.384 169.855 297.274 168.671 298.052 167.51C298.751 166.503 299.395 165.458 299.98 164.38C300.365 163.769 300.618 163.083 300.722 162.367C300.721 161.735 300.491 161.126 300.075 160.651C299.629 160.124 299.095 159.678 298.498 159.333C297.869 158.972 297.195 158.696 296.494 158.513C295.902 158.337 295.292 158.234 294.676 158.206V158.201Z" fill="white"/>
<path d="M331.707 155.176C332.237 153.916 333.089 152.819 334.177 151.996C335.019 151.353 336.04 150.989 337.097 150.954C337.891 150.956 338.652 151.269 339.221 151.825C339.55 152.159 339.804 152.56 339.966 153.001C340.128 153.442 340.195 153.912 340.162 154.381C340.159 154.85 340.108 155.317 340.012 155.775C339.897 156.324 339.715 156.856 339.471 157.36C340.373 156.269 341.422 155.308 342.587 154.507C343.995 153.501 345.493 152.627 347.06 151.895C348.685 151.117 350.372 150.477 352.104 149.983C353.701 149.505 355.357 149.255 357.023 149.238C358.577 149.179 360.11 149.622 361.396 150.501C362.568 151.347 363.154 152.779 363.154 154.799C363.145 156.06 362.961 157.313 362.608 158.523C362.235 159.848 361.765 161.143 361.2 162.397C360.624 163.691 359.978 164.959 359.272 166.197C358.566 167.435 357.864 168.607 357.168 169.719L355.265 172.739C354.689 173.649 354.238 174.399 353.907 174.998C353.483 175.514 353.255 176.165 353.266 176.835C353.26 177.089 353.348 177.336 353.511 177.529C353.612 177.636 353.736 177.718 353.873 177.77C354.01 177.821 354.157 177.84 354.303 177.826C354.568 177.822 354.833 177.799 355.094 177.756C355.487 177.664 355.857 177.493 356.181 177.252C358.056 176.547 359.881 175.716 361.646 174.767C363.504 173.76 365.298 172.723 367.011 171.616C368.724 170.509 370.297 169.397 371.729 168.285C373.162 167.173 374.359 166.177 375.316 165.266C375.548 165.052 375.816 164.882 376.107 164.763C376.344 164.671 376.595 164.622 376.848 164.617C377.103 164.607 377.356 164.66 377.585 164.773C377.814 164.885 378.012 165.053 378.161 165.261C378.487 165.744 378.65 166.318 378.627 166.901C378.579 168.104 378.25 169.278 377.665 170.328C376.916 171.709 375.879 172.911 374.624 173.851C372.748 175.193 371.025 176.434 369.455 177.575C367.886 178.715 366.288 179.767 364.661 180.73C362.967 181.738 361.218 182.65 359.422 183.462C357.296 184.402 355.107 185.191 352.87 185.822C352.099 186.063 351.314 186.261 350.521 186.416C349.877 186.542 349.223 186.609 348.568 186.617C346.819 186.617 345.562 186.114 344.736 185.148C343.909 184.182 343.524 182.808 343.524 181.052C343.524 180.82 343.524 180.599 343.549 180.382C343.574 180.166 343.589 179.925 343.624 179.663C343.72 178.5 343.996 177.359 344.44 176.281C344.946 174.992 345.523 173.732 346.168 172.507C346.836 171.219 347.554 169.936 348.322 168.657C349.09 167.379 349.79 166.172 350.421 165.034C351.062 163.892 351.598 162.871 352.029 161.98C352.394 161.304 352.613 160.558 352.67 159.791C352.681 159.332 352.532 158.883 352.249 158.523C352.093 158.346 351.898 158.208 351.68 158.121C351.462 158.033 351.226 157.999 350.992 158.019C348.846 158.03 346.752 158.688 344.981 159.907C343.026 161.199 341.24 162.734 339.667 164.476C338.018 166.313 336.498 168.264 335.118 170.313C333.736 172.366 332.517 174.211 331.462 175.848C330.785 176.983 330.181 178.159 329.654 179.371C329.113 180.614 328.542 181.776 327.951 182.848C327.421 183.839 326.745 184.743 325.947 185.53C325.575 185.886 325.136 186.164 324.656 186.348C324.177 186.532 323.665 186.618 323.152 186.602C322.647 186.627 322.142 186.542 321.672 186.353C321.203 186.164 320.78 185.874 320.432 185.505C319.767 184.774 319.408 183.813 319.43 182.823C319.52 181.882 319.753 180.961 320.121 180.091C320.582 178.833 321.175 177.377 321.9 175.723C322.624 174.069 323.441 172.279 324.349 170.353C325.257 168.444 326.164 166.556 327.069 164.687C327.974 162.819 328.839 161.056 329.664 159.398C330.502 157.751 331.183 156.344 331.707 155.176Z" fill="white"/>
<path d="M400.927 175.245C400.893 175.322 400.876 175.406 400.877 175.491C400.879 175.577 400.864 175.663 400.831 175.743C400.843 176.388 400.993 177.023 401.272 177.605C401.384 177.895 401.582 178.143 401.839 178.316C402.096 178.489 402.4 178.578 402.71 178.571C402.911 178.582 403.113 178.55 403.301 178.475C405.317 177.847 407.238 176.944 409.011 175.793C410.944 174.563 412.802 173.219 414.576 171.767C416.292 170.364 417.933 168.873 419.495 167.299C420.991 165.772 422.235 164.414 423.227 163.223C423.402 162.975 423.631 162.77 423.896 162.623C424.162 162.477 424.457 162.393 424.759 162.377C425.017 162.384 425.27 162.45 425.498 162.572C425.726 162.693 425.922 162.866 426.072 163.077C426.474 163.62 426.674 164.288 426.638 164.964C426.614 165.734 426.444 166.492 426.137 167.198C425.705 168.203 425.131 169.14 424.434 169.981C422.49 172.131 420.497 174.201 418.453 176.191C416.51 178.088 414.445 179.854 412.272 181.479C410.341 182.932 408.26 184.172 406.066 185.178C404.169 186.069 402.104 186.544 400.01 186.572C397.602 186.572 395.707 185.884 394.325 184.509C392.942 183.133 392.249 181.072 392.246 178.324V177.821C392.246 177.652 392.262 177.483 392.296 177.318C391.521 178.725 390.538 180.006 389.381 181.117C388.204 182.252 386.892 183.236 385.474 184.046C384.084 184.844 382.606 185.477 381.071 185.933C379.645 186.368 378.164 186.595 376.673 186.607C375.532 186.618 374.396 186.448 373.307 186.104C372.313 185.79 371.407 185.245 370.662 184.514C369.885 183.729 369.295 182.777 368.934 181.731C368.49 180.422 368.279 179.043 368.313 177.66C368.3 174.965 368.735 172.286 369.6 169.734C370.43 167.292 371.577 164.971 373.011 162.83C374.406 160.756 376.04 158.856 377.88 157.169C379.631 155.559 381.537 154.128 383.57 152.897C385.415 151.776 387.379 150.867 389.426 150.189C391.147 149.6 392.948 149.283 394.766 149.248C396.431 149.205 398.085 149.526 399.614 150.189C400.291 150.536 400.909 150.99 401.443 151.533C401.573 151.231 401.708 150.954 401.838 150.688C402.169 149.893 402.464 149.178 402.73 148.624C402.995 148.071 403.171 147.618 403.271 147.356C403.371 147.095 403.652 146.35 404.112 145.273C404.573 144.196 405.114 142.898 405.72 141.423C406.326 139.949 406.988 138.369 407.699 136.678C408.41 134.987 409.056 133.402 409.652 131.913L411.185 128.063C411.611 126.986 411.876 126.297 411.972 126C412.205 125.167 412.521 124.36 412.913 123.589C413.287 122.856 413.761 122.178 414.321 121.577C414.865 120.998 415.51 120.526 416.224 120.183C417.001 119.831 417.847 119.659 418.699 119.679C419.794 119.637 420.878 119.921 421.814 120.495C422.636 121.043 423.051 122.095 423.051 123.65C423.048 124.303 422.964 124.954 422.801 125.587C422.636 126.251 422.445 126.896 422.235 127.525C422.025 128.154 421.789 128.778 421.544 129.386C421.298 129.995 421.073 130.574 420.872 131.102C419.223 134.414 417.493 138.015 415.683 141.907C413.873 145.798 412.077 149.713 410.293 153.652C408.517 157.59 406.819 161.431 405.199 165.175C403.58 168.919 402.156 172.276 400.927 175.245ZM399.424 155.82C397.292 155.921 395.19 156.357 393.193 157.114C390.699 157.972 388.378 159.273 386.34 160.953C384.221 162.711 382.437 164.84 381.076 167.238C379.603 169.857 378.765 172.788 378.632 175.793C378.632 177.117 379.188 177.776 380.31 177.776C381.676 177.781 383.026 177.485 384.267 176.91C385.562 176.302 386.768 175.516 387.848 174.575C389.02 173.565 390.089 172.441 391.039 171.219C392.026 169.965 392.942 168.656 393.784 167.299C394.625 165.957 395.383 164.615 396.058 163.273C396.734 161.935 397.32 160.682 397.811 159.524L398.507 157.984C398.768 157.33 399.083 156.616 399.444 155.82H399.424Z" fill="white"/>
<path d="M440.828 149.168C443.563 149.168 445.607 149.839 446.959 151.181C448.312 152.523 448.98 154.368 448.963 156.716C448.93 158.237 448.559 159.731 447.876 161.089C446.943 162.874 445.664 164.453 444.114 165.734C441.914 167.594 439.519 169.209 436.971 170.55C433.362 172.467 429.619 174.119 425.771 175.491C425.847 175.958 426.024 176.402 426.289 176.793C426.553 177.185 426.9 177.513 427.304 177.756C428.342 178.345 429.524 178.628 430.715 178.571C432.361 178.554 433.999 178.329 435.589 177.902C437.338 177.448 439.055 176.876 440.728 176.191C442.426 175.491 444.084 174.741 445.697 173.926C447.31 173.111 448.772 172.346 450.075 171.616C451.377 170.887 452.464 170.263 453.336 169.729C453.904 169.364 454.491 169.028 455.094 168.723C455.337 168.547 455.616 168.429 455.91 168.376C456.131 168.343 456.354 168.326 456.576 168.325C456.93 168.309 457.281 168.404 457.578 168.597C457.836 168.774 458.061 168.993 458.245 169.246C458.422 169.483 458.55 169.753 458.62 170.041C458.679 170.277 458.711 170.518 458.715 170.761C458.711 171.118 458.679 171.475 458.62 171.828C458.494 172.355 458.237 172.841 457.874 173.242C457.71 173.41 457.159 173.857 456.221 174.585C455.283 175.313 454.07 176.174 452.584 177.167C451.082 178.173 449.379 179.21 447.42 180.322C445.402 181.458 443.322 182.478 441.189 183.377C438.965 184.313 436.677 185.085 434.342 185.686C432.052 186.289 429.696 186.598 427.329 186.607C425.509 186.642 423.706 186.249 422.064 185.46C420.56 184.722 419.228 183.673 418.158 182.38C417.067 181.06 416.238 179.544 415.713 177.912C415.148 176.198 414.863 174.403 414.872 172.598C414.903 170.998 415.187 169.413 415.713 167.903C416.318 166.1 417.13 164.374 418.132 162.76C419.254 160.955 420.555 159.269 422.014 157.728C423.559 156.077 425.295 154.617 427.184 153.38C429.144 152.101 431.262 151.086 433.485 150.361C435.853 149.568 438.333 149.165 440.828 149.168ZM439.055 156.022C438.909 155.989 438.759 155.973 438.609 155.971H438.163C436.955 155.962 435.759 156.216 434.657 156.716C433.563 157.215 432.549 157.876 431.652 158.679C430.738 159.499 429.924 160.424 429.227 161.436C428.519 162.463 427.885 163.481 427.324 164.491C426.799 165.43 426.329 166.4 425.916 167.394C425.536 168.325 425.25 169.1 425.05 169.729C426.202 169.136 427.397 168.465 428.636 167.716C429.875 166.968 431.044 166.239 432.143 165.527C433.228 164.833 434.175 164.204 434.983 163.64C435.794 163.077 436.36 162.699 436.691 162.498C437.871 161.836 438.912 160.951 439.756 159.891C440.24 159.287 440.533 158.551 440.598 157.778C440.607 157.558 440.569 157.338 440.488 157.134C440.407 156.929 440.284 156.744 440.127 156.59C439.837 156.294 439.462 156.096 439.055 156.022Z" fill="white"/>
<path d="M481.321 153.787C481.309 154.93 481.194 156.068 480.975 157.189C480.755 158.409 480.373 159.594 479.838 160.712C479.352 161.75 478.662 162.68 477.81 163.444C476.961 164.183 475.866 164.573 474.744 164.536C474.303 164.596 473.855 164.49 473.487 164.239C473.271 163.936 473.174 163.564 473.211 163.193C473.211 162.896 473.211 162.458 473.211 161.879C473.211 161.3 473.211 160.742 473.211 160.214C473.225 159.699 473.142 159.187 472.966 158.704C472.801 158.291 472.39 158.085 471.729 158.085C470.818 158.134 469.937 158.433 469.184 158.95C468.164 159.597 467.218 160.354 466.364 161.21C465.378 162.197 464.461 163.251 463.619 164.365C462.753 165.51 461.953 166.705 461.225 167.943C460.558 169.063 459.994 170.242 459.542 171.465C459.174 172.382 458.965 173.356 458.926 174.344C458.901 174.862 458.997 175.38 459.206 175.854C459.416 176.328 459.733 176.747 460.133 177.076C461.079 177.788 462.243 178.144 463.424 178.083C465.034 178.061 466.632 177.811 468.172 177.338C469.884 176.827 471.557 176.196 473.181 175.451C474.849 174.686 476.452 173.861 478.005 172.965C479.558 172.069 480.96 171.219 482.233 170.409C483.505 169.599 484.562 168.899 485.418 168.32C485.961 167.937 486.523 167.581 487.101 167.254C487.564 167.003 488.079 166.867 488.604 166.856C488.957 166.848 489.305 166.943 489.606 167.128C489.87 167.296 490.096 167.517 490.272 167.777C490.437 167.995 490.565 168.24 490.648 168.502C490.708 168.739 490.741 168.982 490.748 169.226C490.742 169.584 490.708 169.94 490.648 170.293C490.524 170.82 490.269 171.306 489.906 171.707C489.743 171.908 489.207 172.412 488.298 173.217C487.39 174.022 486.221 174.975 484.792 176.075C483.36 177.169 481.712 178.343 479.848 179.597C477.934 180.866 475.936 182.003 473.868 182.999C471.738 184.026 469.53 184.88 467.266 185.556C465.084 186.216 462.818 186.555 460.539 186.562C459.011 186.589 457.492 186.319 456.066 185.767C454.834 185.28 453.715 184.543 452.78 183.603C451.896 182.689 451.214 181.598 450.776 180.403C450.313 179.173 450.075 177.868 450.075 176.553C450.127 174.792 450.477 173.053 451.112 171.41C451.868 169.339 452.829 167.35 453.982 165.472C455.255 163.375 456.692 161.383 458.28 159.514C459.89 157.599 461.687 155.851 463.644 154.296C465.495 152.822 467.523 151.588 469.68 150.622C471.677 149.717 473.841 149.244 476.031 149.233C476.724 149.229 477.414 149.311 478.085 149.48C478.688 149.628 479.257 149.889 479.763 150.25C480.257 150.615 480.648 151.102 480.9 151.664C481.194 152.332 481.338 153.057 481.321 153.787Z" fill="white"/>
<path d="M506.837 149.218C508.187 149.236 509.531 149.405 510.844 149.721C512.268 150.044 513.625 150.616 514.851 151.412C516.086 152.224 517.124 153.302 517.892 154.567C518.739 156.035 519.159 157.713 519.104 159.408C519.085 160.553 518.953 161.692 518.708 162.81C518.419 164.181 518.022 165.528 517.521 166.836C517.821 167.212 518.212 167.503 518.658 167.681C519.1 167.849 519.568 167.932 520.04 167.928C520.841 167.902 521.626 167.699 522.34 167.334C523.249 166.897 524.118 166.382 524.939 165.794C525.868 165.131 526.759 164.417 527.609 163.656C528.494 162.86 529.329 162.065 530.114 161.27C530.905 160.475 531.616 159.725 532.262 159.011C532.908 158.296 533.444 157.697 533.87 157.199C533.98 157.087 534.111 156.998 534.255 156.938C534.4 156.879 534.555 156.849 534.712 156.852C534.96 156.864 535.202 156.936 535.417 157.061C535.633 157.186 535.815 157.361 535.949 157.572C536.343 158.165 536.533 158.872 536.49 159.585C536.447 160.621 536.185 161.636 535.724 162.564C535.028 163.921 534.061 165.12 532.883 166.086C532.092 166.945 531.185 167.938 530.164 169.065C529.141 170.192 528.051 171.254 526.898 172.245C525.784 173.205 524.575 174.048 523.291 174.762C522.149 175.427 520.855 175.788 519.535 175.808C518.684 175.809 517.839 175.675 517.03 175.411C516.153 175.106 515.327 174.67 514.581 174.117C513.417 175.949 512.058 177.648 510.528 179.185C509.013 180.706 507.309 182.025 505.459 183.11C503.571 184.213 501.551 185.072 499.448 185.666C497.203 186.292 494.881 186.602 492.551 186.587C491.459 186.557 490.376 186.373 489.335 186.039C488.076 185.65 486.897 185.036 485.854 184.227C484.705 183.331 483.753 182.205 483.059 180.921C482.258 179.392 481.866 177.681 481.922 175.954C481.959 174.347 482.174 172.748 482.563 171.189C483.033 169.217 483.687 167.295 484.517 165.447C485.437 163.396 486.546 161.435 487.828 159.59C489.174 157.639 490.78 155.884 492.601 154.371C494.499 152.8 496.635 151.543 498.928 150.647C501.45 149.671 504.134 149.186 506.837 149.218ZM504.262 157.959C502.697 157.963 501.158 158.364 499.789 159.127C498.346 159.914 497.056 160.957 495.982 162.206C494.872 163.492 493.978 164.953 493.337 166.529C492.681 168.093 492.34 169.773 492.336 171.47C492.338 172.159 492.387 172.847 492.481 173.529C492.574 174.254 492.784 174.959 493.102 175.617C493.414 176.26 493.88 176.816 494.459 177.232C495.164 177.692 495.995 177.917 496.834 177.876C498.389 177.867 499.914 177.447 501.257 176.659C502.71 175.835 504.007 174.76 505.089 173.483C506.22 172.161 507.122 170.657 507.758 169.035C508.413 167.438 508.753 165.729 508.76 164.003C508.757 163.315 508.715 162.628 508.635 161.945C508.561 161.259 508.361 160.594 508.044 159.982C507.727 159.38 507.257 158.873 506.681 158.513C505.942 158.104 505.104 157.913 504.262 157.959Z" fill="white"/>
<rect x="0.928299" y="0.5" width="555.068" height="299.953" rx="4.5" stroke="#7B61FF" stroke-dasharray="10 5"/>
</svg>
